<svg xmlns="http://www.w3.org/2000/svg" viewBox="0 0 260.79 260.76">
  <defs>
    <style>
      .cls-1 {
        fill: #d53668;
      }

      .cls-2 {
        fill: #ffc727;
      }

      .cls-3 {
        fill: #61bb8d;
      }

      .cls-4 {
        fill: #317ff6;
      }

      .cls-5 {
        fill: #fff;
      }
    </style>
  </defs>
  <g id="Layer_2" data-name="Layer 2">
    <g id="Layer_1-2" data-name="Layer 1">
      <g id="_1" data-name="1">
        <g>
          <path class="cls-1" d="M130.41,130.38,5.73,168.49A130.37,130.37,0,0,1,92.29,5.7,127,127,0,0,1,130.41,0Z"/>
          <path class="cls-2" d="M130.41,130.38,234.53,51.91A130.38,130.38,0,1,1,26.29,208.84,123,123,0,0,1,5.73,168.49Z"/>
          <path class="cls-3" d="M130.41,130.38,187.56,13.19a126,126,0,0,1,47,38.72Z"/>
          <path class="cls-4" d="M130.41,130.38l29.33-127a121.08,121.08,0,0,1,27.82,9.85Z"/>
          <path d="M130.41,130.38V0a120.72,120.72,0,0,1,29.33,3.34Z"/>
        </g>
        <circle class="cls-5" cx="129.75" cy="132.15" r="87.6"/>
      </g>
    </g>
  </g>
</svg>
