<svg xmlns="http://www.w3.org/2000/svg" viewBox="0 0 261.36 260.75">
  <defs>
    <style>
      .cls-1 {
        fill: #d53668;
      }

      .cls-2 {
        fill: #ffc727;
      }

      .cls-3 {
        fill: #61bb8d;
      }

      .cls-4 {
        fill: #317ff6;
      }

      .cls-5 {
        fill: #fff;
      }
    </style>
  </defs>
  <g id="Layer_2" data-name="Layer 2">
    <g id="Layer_1-2" data-name="Layer 1">
      <g id="_3" data-name="3">
        <g>
          <path class="cls-1" d="M130.38,130.38.32,139.47A130.38,130.38,0,0,1,121.29.32c2.58-.18,6.5-.32,9.09-.32Z"/>
          <path class="cls-2" d="M130.38,130.38l95.35,88.91a130.39,130.39,0,0,1-184.27,6.44C16.19,202.15,2.73,174,.32,139.47Z"/>
          <path class="cls-3" d="M130.38,130.38,243.29,65.19c29.38,50.88,22.51,111.13-17.56,154.1Z"/>
          <path class="cls-4" d="M130.38,130.38,175,7.86C205,18.8,227.3,37.5,243.29,65.19Z"/>
          <path d="M130.38,130.38V0A123.15,123.15,0,0,1,175,7.86Z"/>
        </g>
        <circle class="cls-5" cx="129.73" cy="132.15" r="87.6"/>
      </g>
    </g>
  </g>
</svg>
