<svg xmlns="http://www.w3.org/2000/svg" viewBox="0 0 67.82 44.4">
  <defs>
    <style>
      .cls-1 {
        fill: #eabbce;
      }
    </style>
  </defs>
  <g id="Layer_2" data-name="Layer 2">
    <g id="Layer_1-2" data-name="Layer 1">
      <path class="cls-1" d="M16,44.4c-11.41,0-16-9-16-20.22C0,12.17,11,0,25.09,0a6.27,6.27,0,0,1,6.24,5C23.11,7.6,17.79,12.93,17.79,19c0,4.26,3.5,8.06,12.62,9C31.33,35.89,26.76,44.4,16,44.4ZM67.82,5C59.61,7.6,54.29,12.93,54.29,19c0,4.26,3.5,8.06,12.62,9,.91,7.91-3.65,16.42-14.45,16.42-11.4,0-16-9-16-20.22,0-12,11-24.18,25.09-24.18A6.25,6.25,0,0,1,67.82,5Z"/>
    </g>
  </g>
</svg>
