<svg xmlns="http://www.w3.org/2000/svg" width="53.966" height="35.332" viewBox="0 0 53.966 35.332">
  <path id="quote" d="M53.845-90.508c-11.253,0-19.965,9.68-19.965,19.239,0,8.954,3.63,16.093,12.7,16.093,8.591,0,12.221-6.776,11.495-13.068C50.82-68.97,48.037-72,48.037-75.383c0-4.84,4.235-9.075,10.769-11.132A4.982,4.982,0,0,0,53.845-90.508ZM29.04-68.244C21.78-68.97,19-72,19-75.383c0-4.84,4.235-9.075,10.769-11.132a4.982,4.982,0,0,0-4.961-3.993c-11.253,0-19.965,9.68-19.965,19.239,0,8.954,3.63,16.093,12.705,16.093C26.136-55.176,29.766-61.952,29.04-68.244Z" transform="translate(-4.84 90.508)" fill="#ffc727"/>
</svg>
