<svg xmlns="http://www.w3.org/2000/svg" width="36" height="36" viewBox="0 0 36 36">
  <g id="algemeen" transform="translate(-172.75 -3146)">
    <g id="Group_40" data-name="Group 40" transform="translate(-18.554 30.696)">
      <rect id="Rectangle_30" data-name="Rectangle 30" width="36" height="36" rx="5" transform="translate(191.304 3115.304)" fill="#61bb8d" opacity="0.196"/>
    </g>
    <g id="Page-1" transform="translate(155.894 3150.629)">
      <g id="_001---Thinking" data-name="001---Thinking" transform="translate(20 0)">
        <path id="Shape" d="M30.552,5.16l-.446,2.223a8.844,8.844,0,0,0-1.251.52L26.969,6.64a1.486,1.486,0,0,0-1.866.194L23.87,8.066a1.486,1.486,0,0,0-.2,1.883l1.257,1.877a8.844,8.844,0,0,0-.52,1.251l-2.22.446A1.486,1.486,0,0,0,21,14.98v1.753a1.486,1.486,0,0,0,1.189,1.457l2.223.446a8.844,8.844,0,0,0,.52,1.251l-1.263,1.886a1.486,1.486,0,0,0,.194,1.866L25.1,24.871a1.49,1.49,0,0,0,1.882.2l1.877-1.257a8.845,8.845,0,0,0,1.251.52l.446,2.22a1.486,1.486,0,0,0,1.457,1.192h1.753a1.486,1.486,0,0,0,1.457-1.189l.446-2.223a8.844,8.844,0,0,0,1.251-.52L38.8,25.073a1.486,1.486,0,0,0,1.866-.194L41.9,23.647a1.486,1.486,0,0,0,.2-1.883l-1.257-1.877a8.844,8.844,0,0,0,.52-1.251l2.22-.446a1.48,1.48,0,0,0,1.023-.774l1.119.75a1.356,1.356,0,0,0,.721.209,1.337,1.337,0,0,0,.949-.394l.988-.988a1.349,1.349,0,0,0,.173-1.689l-.958-1.434a6.982,6.982,0,0,0,.36-.863l1.681-.335a1.337,1.337,0,0,0,1.079-1.317v-1.4a1.337,1.337,0,0,0-1.073-1.316l-1.688-.336a6.875,6.875,0,0,0-.358-.863l.973-1.451a1.342,1.342,0,0,0-.186-1.67l-.988-.988A1.348,1.348,0,0,0,45.7,3.162L44.27,4.12a6.983,6.983,0,0,0-.863-.36l-.336-1.681A1.337,1.337,0,0,0,41.754,1h-1.4a1.337,1.337,0,0,0-1.316,1.073l-.336,1.688a6.876,6.876,0,0,0-.863.36l-1.451-.973a1.344,1.344,0,0,0-1.67.186L34.054,4a1.522,1.522,0,0,0-.292-.032H32.009A1.486,1.486,0,0,0,30.552,5.16ZM41.908,8.072l-.347-.347a2.956,2.956,0,0,1,.923,5.576l-1.128-.223a8.844,8.844,0,0,0-.52-1.251L42.1,9.941a1.486,1.486,0,0,0-.192-1.867ZM35.691,4.465l1.7,1.141a.743.743,0,0,0,.793.022,5.434,5.434,0,0,1,1.359-.568.743.743,0,0,0,.535-.572l.4-2h1.162l.4,2.006a.743.743,0,0,0,.535.572,5.434,5.434,0,0,1,1.359.568.743.743,0,0,0,.793-.026l1.7-1.139.825.825-1.139,1.7a.743.743,0,0,0-.022.793,5.434,5.434,0,0,1,.568,1.359.743.743,0,0,0,.572.535l2.006.4v1.162l-2,.4a.743.743,0,0,0-.572.535,5.434,5.434,0,0,1-.568,1.359.743.743,0,0,0,.022.793l1.139,1.7-.825.825L44.77,15.739V14.98a1.49,1.49,0,0,0-.52-1.131,4.447,4.447,0,0,0-3.1-7.649,4.3,4.3,0,0,0-1.321.217,1.506,1.506,0,0,0-1.04.229L36.916,7.9a8.844,8.844,0,0,0-1.251-.52l-.446-2.22a1.362,1.362,0,0,0-.051-.175ZM31.474,8.114l.535-2.657h1.753L34.3,8.116a.743.743,0,0,0,.534.57,7.318,7.318,0,0,1,1.754.728.743.743,0,0,0,.786-.025l2.248-1.5,1.245,1.238-1.508,2.25a.743.743,0,0,0-.025.786,7.317,7.317,0,0,1,.728,1.754.743.743,0,0,0,.57.534l2.657.531v1.754l-2.659.534a.743.743,0,0,0-.57.534,7.318,7.318,0,0,1-.728,1.754.743.743,0,0,0,.025.786l1.5,2.248-1.238,1.245-2.25-1.508a.743.743,0,0,0-.786-.025,7.318,7.318,0,0,1-1.754.728.743.743,0,0,0-.534.57l-.532,2.657H32.009L31.475,23.6a.743.743,0,0,0-.534-.57,7.318,7.318,0,0,1-1.754-.728.743.743,0,0,0-.786.025l-2.248,1.5-1.245-1.238,1.508-2.25a.743.743,0,0,0,.025-.786,7.318,7.318,0,0,1-.728-1.754.743.743,0,0,0-.57-.534l-2.657-.532V14.98l2.659-.534a.743.743,0,0,0,.57-.534,7.318,7.318,0,0,1,.728-1.754.743.743,0,0,0-.025-.786l-1.5-2.248,1.238-1.245L28.4,9.387a.743.743,0,0,0,.786.025,7.318,7.318,0,0,1,1.754-.728A.743.743,0,0,0,31.474,8.114Z" transform="translate(-21 -1)" fill="#61bb8d"/>
        <path id="Shape-2" data-name="Shape" d="M35.2,24.4A5.2,5.2,0,1,0,30,19.2,5.2,5.2,0,0,0,35.2,24.4Zm0-8.914A3.714,3.714,0,1,1,31.486,19.2,3.714,3.714,0,0,1,35.2,15.486Z" transform="translate(-23.315 -4.343)" fill="#61bb8d"/>
        <ellipse id="Oval" cx="1" cy="0.5" rx="1" ry="0.5" transform="translate(10.856 14.371)" fill="#61bb8d"/>
      </g>
    </g>
  </g>
</svg>
