<svg xmlns="http://www.w3.org/2000/svg" width="36" height="36" viewBox="0 0 36 36">
  <g id="cognitief" transform="translate(-812 -3116)">
    <g id="_007-brainstorm" data-name="007-brainstorm" transform="translate(816.355 3121.943)">
      <path id="Path_1507" data-name="Path 1507" d="M25.86,12.8a.528.528,0,0,0,.038-.109,2.409,2.409,0,0,0-.819-2.524,2.571,2.571,0,0,0-1.747-1.854,3.169,3.169,0,0,0-1.014-2.167,4.7,4.7,0,0,0-3.074-1.009h-.021c-.67-1.144-2.2-1.2-3.1-1.031a12.174,12.174,0,0,0-1.572-.424.535.535,0,1,0-.207,1.05,11.2,11.2,0,0,1,1.565.433.533.533,0,0,0,.3.017c.018,0,1.784-.406,2.171.684a.537.537,0,0,0,.556.353,3.975,3.975,0,0,1,2.661.723,2.025,2.025,0,0,1,.631,1.2A2.74,2.74,0,0,0,19.8,9.594a.535.535,0,1,0,.955.483A1.92,1.92,0,0,1,22.7,9.225c.2.065,1.371.483,1.324,1.2a.535.535,0,0,0,.289.51,1.256,1.256,0,0,1,.356.332,1.347,1.347,0,0,1,.212,1.076l-.036.048a2.408,2.408,0,0,0-2.25,2.159.535.535,0,0,0,.473.591.573.573,0,0,0,.059,0,.535.535,0,0,0,.531-.476,1.359,1.359,0,0,1,1.311-1.212c2.344,1.72.69,5.73.58,5.987a2.715,2.715,0,0,1-2.222,1.729,7.864,7.864,0,0,0-3.207-1.483.535.535,0,1,0-.249,1.041,6.957,6.957,0,0,1,2.726,1.228,2,2,0,0,1-.059.433c-.381,1.512-2.427,2.3-4.562,1.767a5.508,5.508,0,0,1-1.017-.365.535.535,0,0,0-.763.436,7.254,7.254,0,0,0,.088,1.991l-1.4.234c-.06-.213-.12-.462-.185-.732a10.718,10.718,0,0,0-2.1-4.715,20.689,20.689,0,0,1,3.184-.531.535.535,0,1,0-.087-1.066,22.729,22.729,0,0,0-4.239.791,11.779,11.779,0,0,1-2.419.1c-2.319-.349-2.967-1.75-2.816-2.846a.535.535,0,0,0-.657-.593l-.388.095a4.966,4.966,0,0,1-3.128-1.182,1.739,1.739,0,0,1-.387-1.422.535.535,0,0,0-.281-.539.674.674,0,0,1-.286-.38,1.207,1.207,0,0,1,.3-.871.535.535,0,0,0,.07-.5A3.1,3.1,0,0,1,1.507,9.97,2.313,2.313,0,0,1,2.936,8.818a.53.53,0,0,0,.36-.461A1.643,1.643,0,0,1,3.858,7.3,1.806,1.806,0,0,1,5.322,7.11a.535.535,0,0,0,.633-.44c0-.012.242-1.125,2.329-1.165a2.629,2.629,0,0,1,.5,2.586.535.535,0,1,0,.954.486,2.758,2.758,0,0,0,.3-1.125,1.768,1.768,0,0,1,1.1-.148.9.9,0,0,1,.549.518.535.535,0,0,0,.962-.469,1.964,1.964,0,0,0-1.206-1.075A2.585,2.585,0,0,0,9.9,6.359a4.8,4.8,0,0,0-.553-1.2,6.991,6.991,0,0,1,1.011-.348.535.535,0,1,0-.272-1.035A7.33,7.33,0,0,0,8.4,4.433c-2.167,0-3,.947-3.32,1.56a2.6,2.6,0,0,0-1.875.462,2.607,2.607,0,0,0-.915,1.464A3.231,3.231,0,0,0,.541,9.509a4.015,4.015,0,0,0-.173,2.649,1.989,1.989,0,0,0-.326,1.517,1.666,1.666,0,0,0,.523.865,2.73,2.73,0,0,0,.662,1.931c1.153,1.342,3.45,1.529,3.9,1.554.117,1.492,1.253,2.964,3.755,3.335l.024,0c.022,0,.3.029.768.029a14.225,14.225,0,0,0,1.7-.107,8.961,8.961,0,0,1,2.271,4.686,9.642,9.642,0,0,0,.367,1.286.535.535,0,0,0,.5.333.527.527,0,0,0,.088-.007l2.421-.4a.535.535,0,0,0,.426-.677,5.614,5.614,0,0,1-.214-1.449c.157.052.317.1.478.139a5.923,5.923,0,0,0,3.68-.2,3.5,3.5,0,0,0,2.181-2.346,3.076,3.076,0,0,0,.076-.437A3.815,3.815,0,0,0,26.5,19.919l.014-.029a10.266,10.266,0,0,0,.728-2.8A4.725,4.725,0,0,0,25.86,12.8Zm0,0" transform="translate(-0.001 -3.476)" fill="#ffc727"/>
      <path id="Path_1508" data-name="Path 1508" d="M229.776,134.211a4.139,4.139,0,0,0,.656,1.492,3.612,3.612,0,0,0,.452.526c-.1.55-.937.85-.957.857a.535.535,0,0,0,.344,1.013,2.688,2.688,0,0,0,1.531-1.25,3.649,3.649,0,0,0,1.52.309h.116a.535.535,0,0,0-.014-1.07h-.014a2.548,2.548,0,0,1-2.583-2.071.535.535,0,0,0-1.052.194Zm0,0" transform="translate(-217.33 -126.46)" fill="#ffc727"/>
      <path id="Path_1509" data-name="Path 1509" d="M321.12,145.224a3.383,3.383,0,0,0,.091-3.646,4,4,0,0,0-1.245-1.255.535.535,0,0,0-.544.922,2.939,2.939,0,0,1,.9.923,2.378,2.378,0,0,1-.126,2.524.535.535,0,1,0,.929.532Zm0,0" transform="translate(-302.151 -132.775)" fill="#ffc727"/>
      <path id="Path_1510" data-name="Path 1510" d="M390.758,229.663a.535.535,0,0,0-.622-.871,1.775,1.775,0,0,1-1.411.416,1.739,1.739,0,0,1-.988-.8.535.535,0,0,0-.947.5,2.9,2.9,0,0,0,1.41,1.26,2.488,2.488,0,0,0,.7,2.618.535.535,0,1,0,.686-.821,1.543,1.543,0,0,1-.308-1.671A3.255,3.255,0,0,0,390.758,229.663Zm0,0" transform="translate(-366.118 -215.963)" fill="#ffc727"/>
      <path id="Path_1511" data-name="Path 1511" d="M92.387,184.255a.535.535,0,0,0-1.062.135A1.715,1.715,0,0,1,90.5,185.9a3.335,3.335,0,0,0-1.863-.254.535.535,0,0,0,.184,1.054,2.014,2.014,0,0,1,1.453.322,1.631,1.631,0,0,1,.443,1.33.535.535,0,0,0,.523.547h.013a.535.535,0,0,0,.535-.523,2.9,2.9,0,0,0-.456-1.768A2.63,2.63,0,0,0,92.387,184.255Zm0,0" transform="translate(-83.499 -173.992)" fill="#ffc727"/>
      <path id="Path_1512" data-name="Path 1512" d="M48.938,107.163a1.2,1.2,0,0,1-.258.377,1.723,1.723,0,0,1-.668.41.535.535,0,0,0,.282,1.032,2.789,2.789,0,0,0,1.225-.774,2.04,2.04,0,0,0,1.237.4,2.452,2.452,0,0,0,.393-.032,3.114,3.114,0,0,0,1.11-.416.535.535,0,1,0-.582-.9,2.114,2.114,0,0,1-.7.257,1.014,1.014,0,0,1-.941-.275,2.952,2.952,0,0,0-.046-1.535.535.535,0,1,0-1.033.28,1.752,1.752,0,0,1-.011,1.146Zm0,0" transform="translate(-45.082 -99.705)" fill="#ffc727"/>
      <path id="Path_1513" data-name="Path 1513" d="M265.032,48.686a2.79,2.79,0,0,0-1.986-.247.535.535,0,0,0,.284,1.032,1.7,1.7,0,0,1,1.156.136,1.452,1.452,0,0,1,.621.973.535.535,0,0,0,.521.413.541.541,0,0,0,.123-.014.535.535,0,0,0,.4-.643A2.472,2.472,0,0,0,265.032,48.686Zm0,0" transform="translate(-248.654 -45.78)" fill="#ffc727"/>
      <path id="Path_1514" data-name="Path 1514" d="M210.192,239.09a1.936,1.936,0,0,1-1.637,1.043,2.742,2.742,0,0,1-1.045-.158.535.535,0,0,0-.407.99,3.712,3.712,0,0,0,1.325.242l.135,0a2.979,2.979,0,0,0,2.555-1.575.535.535,0,0,0-.925-.538Zm0,0" transform="translate(-195.752 -226.095)" fill="#ffc727"/>
      <path id="Path_1515" data-name="Path 1515" d="M326.208,298.479a.535.535,0,1,0-.08.688A.538.538,0,0,0,326.208,298.479Zm0,0" transform="translate(-307.894 -282.346)" fill="#ffc727"/>
      <path id="Path_1516" data-name="Path 1516" d="M221.483.739a.534.534,0,0,0,1-.033.535.535,0,1,0-1,.033Zm0,0" transform="translate(-209.641 -0.001)" fill="#ffc727"/>
    </g>
    <rect id="Rectangle_182" data-name="Rectangle 182" width="36" height="36" rx="5" transform="translate(812 3116)" fill="#ffc727" opacity="0.196"/>
  </g>
</svg>
