<svg id="Layer_1" data-name="Layer 1" xmlns="http://www.w3.org/2000/svg" viewBox="0 0 447.01 542.7"><defs><style>.cls-1{fill:#009eb5;}.cls-2{fill:#3a2328;}.cls-3{fill:none;stroke:#3a2328;stroke-linecap:round;stroke-linejoin:bevel;stroke-width:2px;}</style></defs><title>logo fc</title><path class="cls-1" d="M351.5,359.6c0-.2-0.1-0.3-0.1-0.5a4.89,4.89,0,0,0-.1-1.3,2.2,2.2,0,0,1-.1-0.8,24.37,24.37,0,0,1-.1-2.7c0-.2.1-0.3,0.1-0.5s-0.1-.4-0.1-0.6v-0.7l-0.1-.8a26.13,26.13,0,0,1-.8-3.6v-1.6c0-.1-0.2-0.6-0.2-0.8a5.75,5.75,0,0,0-.2-1l-0.1-.3c-0.1-.4-0.3-0.8-0.4-1.1a1.27,1.27,0,0,1-.1-0.6,5.07,5.07,0,0,1-.2-0.9v-0.5c0-.1-0.1-0.2-0.1-0.3v-0.5c0-.2-0.2-0.3-0.2-0.5l-0.1-.4a7.72,7.72,0,0,0-.2-1.5l-0.1-.4c0-.2-0.2-0.3-0.2-0.5v-0.5a1.42,1.42,0,0,0-.2-0.6,5.16,5.16,0,0,1-.2-1.1v-0.5a1.42,1.42,0,0,0-.2-0.6l-0.1-.2a10.38,10.38,0,0,1-.4-1l-0.1-.2V332c-0.1-.2-0.2-0.3-0.3-0.5a10.26,10.26,0,0,1-.4-1.4c0-.1-0.1-0.3-0.1-0.4a4.23,4.23,0,0,0-.5-0.7l-0.2-.5a14.92,14.92,0,0,0-.4-1.9c-0.1-.2-0.3-0.9-0.5-1.4l-0.2-.4-0.3-.5a9.32,9.32,0,0,1-.7-1.3c0-.1-0.4-0.6-0.8-1.3l-0.3-.5c-0.2-.3-0.6-0.5-0.8-0.8-0.1-.1,0-0.3-0.1-0.4s-0.2-.1-0.3-0.2a0.53,0.53,0,0,1-.2-0.3c-0.2-.2-0.4-0.3-0.6-0.5s-0.1-.3-0.2-0.4a2.18,2.18,0,0,0-.5-0.4c-0.2-.2-0.2-0.5-0.4-0.7a3.74,3.74,0,0,1-.7-0.6,2.57,2.57,0,0,1-.2-0.5l-0.1-.2c-0.2-.2-0.7-0.9-1.2-1.5l-0.4-.6a1.51,1.51,0,0,0-.4-0.4,2.51,2.51,0,0,1-.4-0.7l-0.2-.3c-0.2-.4-0.9-1.3-1.1-1.6s-0.4-.8-0.6-1.1l-0.2-.3a1.79,1.79,0,0,1-.5-0.7,0.38,0.38,0,0,0-.2-0.2c-0.1-.1-0.2-0.4-0.3-0.5a1.76,1.76,0,0,1-.5-0.4,2.57,2.57,0,0,1-.2-0.5,1.2,1.2,0,0,0-.5-0.5l-0.2-.2a2.2,2.2,0,0,1-.5-0.6c-0.1-.1-0.4-0.5-0.7-0.9l-0.3-.4-0.6-.6a5.94,5.94,0,0,0-.4-0.8l-0.1-.3a2.27,2.27,0,0,0-.6-0.7c-0.1,0-.5-0.9-0.8-1.2a3.08,3.08,0,0,0-.6-0.6,2,2,0,0,0-.5-0.9,5.24,5.24,0,0,1-1-1.1c-0.2-.2-0.7-1.1-0.9-1.4s-1-1.7-1.3-2.2a4.25,4.25,0,0,1-.5-1.2,8.08,8.08,0,0,0-.7-1.4l-0.3-.6a3.88,3.88,0,0,0-.6-1.1,4.17,4.17,0,0,1-.6-0.8c-0.1-.4-0.1-0.6-0.2-0.9a9,9,0,0,0-1-.9l-0.3-.3c-0.3-.4-1-1.6-1.2-1.9a14,14,0,0,1-1-1.6,4.71,4.71,0,0,0-1-1l-0.2-.4a0.78,0.78,0,0,0-.4-0.4,6.47,6.47,0,0,1-.8-0.9l-0.2-.3a7.76,7.76,0,0,1-.4-0.7s-0.8-.7-1.1-0.9a3.08,3.08,0,0,1-.5-0.7c0-.1-0.4-0.3-0.7-0.7l-0.3-.3c-0.3-.3-0.7-0.6-1-0.9l-0.3-.3c-0.3-.4-1.8-1.6-2.2-2.1s-0.6-1-.7-1.2l-0.1-.1c-0.2-.2-0.4-0.3-0.6-0.5l-0.4-.5c-0.4-.6-0.9-1.2-1.1-1.5l-0.1-.2c-0.1-.2-0.1-0.4-0.2-0.6s-0.3-.5-0.4-0.7a0.37,0.37,0,0,0-.1-0.3,7,7,0,0,1-.8-1c-0.1-.2,0-0.3-0.1-0.6a4.35,4.35,0,0,0-.4-0.7v-0.5l-0.1-.5a3,3,0,0,0-.3-1.1,14,14,0,0,1-.3-1.8l-0.1-.9a9.73,9.73,0,0,0-.5-2,0.48,0.48,0,0,0-.1-0.4l-0.2-.6a12.85,12.85,0,0,1-.4-2.5l-0.1-.3a1.09,1.09,0,0,0-.1-0.5c0-.2-0.2-0.4-0.2-0.6-0.1-.4-0.1-0.8-0.2-1.3-0.1-.3,0-0.8-0.1-1.1a18,18,0,0,1-.5-1.9l-0.2-.7a35.9,35.9,0,0,0-.8-3.5c-0.1-.7-0.3-1.3-0.3-1.4V245a1,1,0,0,0-.1-0.4v-0.2c-0.1-.3-0.2-0.6-0.3-1a3.4,3.4,0,0,1-.1-1,1.06,1.06,0,0,1-.2-0.5v-0.4l-0.1-.8c-0.3-.8-1-2.6-1.2-3.1a9.32,9.32,0,0,1-.2-1.4l-0.1-.2-0.1-.5c-0.2-.6-0.8-2.1-0.9-2.5a2.4,2.4,0,0,1-.2-1,2.92,2.92,0,0,1-.2-0.9,4.33,4.33,0,0,1,.1-0.5c0-.1-0.1-2.7-0.2-3.7s-0.2-2.3-.3-2.8l-0.1-.5c0-.2-0.1-0.3-0.1-0.5v-1.2a17,17,0,0,1,.1-2.2c0-1-.1-2.3-0.2-3.2,0-.2.1-0.4,0.1-0.6s-0.1-.2-0.1-0.3v-0.5a15.7,15.7,0,0,0-.3-1.6v-1l-0.1-.1v-0.1c-0.1,0-.1-0.2-0.1-0.3s-0.1-.5-0.2-1.1l-0.1-.5c0-.2-0.1-0.3-0.1-0.5v-0.6c0-.1-0.1-0.1-0.1-0.2s-0.1-.4-0.1-0.6a8.47,8.47,0,0,0-.4-1.7c-0.1-.4-0.3-0.8-0.4-1.2s-0.1-.5-0.2-0.8a4.88,4.88,0,0,0-.3-0.7l-0.4-.9a14.48,14.48,0,0,0-1.4-2.8l-0.3-.5-0.6-.9c-0.7-1-1.7-2.3-1.8-2.5s-0.5-.5-0.6-0.7l-0.8-.8a13.58,13.58,0,0,0-1.2-1.2,2.69,2.69,0,0,0-.9-0.6,13.89,13.89,0,0,0-1.7-1.6,2.91,2.91,0,0,1-1.1-.8,0.76,0.76,0,0,0-.5-0.2c-0.1,0-1-.6-1.4-0.8a3.26,3.26,0,0,0-1-.3,2.49,2.49,0,0,0-.7-0.5l-0.4-.2-0.5-.2a12.43,12.43,0,0,1-1.5-.5c-0.1-.1-0.5-0.2-0.9-0.4l-0.4-.2c-0.1,0-.3-0.2-0.4-0.2l-0.8-.4a14.42,14.42,0,0,0-2.7-.5,14.52,14.52,0,0,1-2.8-1.2c-0.5-.4-1.2-0.8-1.3-0.9s-1-1-1.3-1.2a5.72,5.72,0,0,1-.8-0.8c0-.1-0.9-0.5-1.2-0.8a7.76,7.76,0,0,0-.7-0.4c-0.1,0-1.1-.6-1.6-0.8a3.42,3.42,0,0,0-1.1-.2c-0.1,0-.5-0.1-1-0.2l-0.4-.2-0.1-.1a9,9,0,0,0-1.6-.3c-0.3-.1-0.5-0.2-0.8-0.3a4.33,4.33,0,0,0-.5-0.1c-0.2-.1-0.3-0.3-0.6-0.5-0.1-.1-0.3-0.1-0.4-0.2l-0.5-.3a5.68,5.68,0,0,0-1.1-1.4l-0.2-.3a5.45,5.45,0,0,1-.8-1.9c-0.4-1.1,0-2.7-.1-4a8.08,8.08,0,0,1-.1-1.5c0-.2.1-0.5,0.1-0.8a6.7,6.7,0,0,1,0-2c0.2-.6.8-0.4,1.5-0.4,0.9,0,1.8-.1,2.7-0.1a10.87,10.87,0,0,0,1.8-.1,3.55,3.55,0,0,0,1-.2c0.5-.1,1,0,1.3-0.1s0.6-.2.8-0.3l0.3-.3c0.1-.1.3-0.1,0.4-0.2a1.38,1.38,0,0,0,.3-0.4c0.1-.1.3-0.2,0.4-0.3a2.57,2.57,0,0,0,.2-0.5,1,1,0,0,0,.3-0.4,2.57,2.57,0,0,0,.2-0.5c0.1-.2.1-0.3,0.2-0.5a4.71,4.71,0,0,0-.2-2.1,2.27,2.27,0,0,0-.1-0.4c-0.1-.3-0.1-0.8-0.2-1.1s-0.1-.3-0.1-0.5c0-.7.6-0.7,0.9-1a0.85,0.85,0,0,0,.3-0.5c0.2-.2.4-0.5,0.6-0.7,0.4-.8-0.2-1.5,0-2.2a1.61,1.61,0,0,1,.4-0.7,4.12,4.12,0,0,0,.3-0.8c0-.2-0.1-0.4-0.1-0.6v-0.4c-0.1-.2-0.2-0.3-0.3-0.5a2.88,2.88,0,0,1-.1-1.3,2,2,0,0,1,.8-1,3,3,0,0,1,1-.2,2.39,2.39,0,0,0,.7-0.3,3.79,3.79,0,0,0,1-1.3,2.15,2.15,0,0,0-.1-2.2c-0.6-.8-1.9-2.7-2-2.8-0.7-1-2.2-3.5-2.2-3.6s-0.9-1.4-1-1.6-1.1-1.5-1.3-1.9a1.7,1.7,0,0,1,0-1,1.79,1.79,0,0,1,.5-0.7,3.81,3.81,0,0,0,.3-1,8.87,8.87,0,0,0,.2-1.5v-2.6c0-.3-0.3-2.2-0.3-2.4s-0.3-1.5-.3-1.7c-0.1-.4-0.6-2.2-0.7-2.5s-1-2-1.1-2.3-1.3-1.8-1.5-2a15,15,0,0,1-1.1-1.3c-0.4-.4-2.4-2.1-2.5-2.2s-2.2-1.4-2.4-1.5a16,16,0,0,1-1.9-1.1c-0.2-.1-2.2-1-2.3-1.1a16.19,16.19,0,0,0-1.7-.6c-0.1-.1-2.9-0.7-3.5-0.8-0.4,0-1.7-.4-2-0.4s-2.8-.3-3.1-0.4c-1.2-.2-3.6-0.1-3.8-0.2s-2.6.1-3.9,0.2c-0.4,0-5.1,1.3-5.3,1.3a23.4,23.4,0,0,0-2.4.9c-0.2.1-1.6,0.7-1.7,0.7s-1.2.5-2,1c-0.6.4-2.1,1.3-2.3,1.4l-1.8,1.7c-0.2.2-1,1.2-1.2,1.4-0.4.6-.9,1.1-1.3,1.8-0.1.2-.9,1.9-0.9,2a21.85,21.85,0,0,0-.9,2.3c0,0.1-.6,2-0.6,2.1s-0.7,2.4-.8,2.6-0.6,3.2-.6,3.5,0.1,2.1.1,2.1c0,0.2.1,1.4,0.1,1.7a7.57,7.57,0,0,0,.1,1.5,14.93,14.93,0,0,1,.2,1.7c0,0.2.4,2.2,0.4,2.3s0.5,2,.5,2.2,0.7,2,.7,2,0.9,2,.9,2.2,0.9,1.9,1,2.1,1,1.4,1.6,2.2c0.2,0.2,1.4,1.6,1.5,1.7l1.1,1.1,1.4,1.4c0.1,0.1,1.5,1.5,1.6,1.7,0.4,0.5,1.5,1.7,1.7,1.9A15.26,15.26,0,0,0,221,159a20.75,20.75,0,0,1,.8,2c0.1,0.2.4,1.6,0.6,2.1a15.72,15.72,0,0,1,.4,2.3c0,0.1.3,2.7,0.3,2.8a19.22,19.22,0,0,0,0,2.4,4.5,4.5,0,0,1-.2,1.4,14.6,14.6,0,0,1-.7,2.4c-0.1.3-1,2.4-1,2.4s-0.9,1.6-1.1,1.9a9.77,9.77,0,0,1-1.1,1.4c-0.2.1-1,.7-1.1,0.7a14.62,14.62,0,0,1-2,.5,16.82,16.82,0,0,0-2.4.7c-0.1,0-2.4.9-2.7,1s-2.5,1.1-2.5,1.1a30.49,30.49,0,0,0-3,1.9,20.81,20.81,0,0,1-3,1.3c-0.4.2-2.9,1.1-3.2,1.2s-1.7.7-2.2,1c-0.2.1-1.8,0.8-2.1,0.9a4.05,4.05,0,0,1-.9.5c-0.2.1-2.1,1.2-2.2,1.3s-1.3.8-1.7,1.2a4.56,4.56,0,0,0-1.2,1.2l-0.3.2a0.38,0.38,0,0,0-.2.2,2.19,2.19,0,0,0-.5.3l-0.3.3c-0.2.3-.4,0.9-0.5,1a2.26,2.26,0,0,1-.7.6l-0.3.3a0.37,0.37,0,0,0-.1.3c-0.1.1-.3,0.2-0.4,0.3a1.91,1.91,0,0,0-.3.8h-0.1V199l-0.4.5a5.42,5.42,0,0,1-1.1,1.3c-0.1.1-.2,0.6-0.4,1l-0.1.2a0.6,0.6,0,0,0-.1.4l-0.4.4v0.3l-0.2.2a1.47,1.47,0,0,0-.2.4l-0.2.5c-0.2.6-.4,1.5-0.5,1.9l-0.1.4a1.69,1.69,0,0,0-.3.6c-0.1.2,0,.4-0.1,0.7l-0.1.4c0,0.5-.3,1.3-0.3,1.6a8.21,8.21,0,0,1-.3,1.8l-0.2.5a13.14,13.14,0,0,0-.5,1.5l-0.2,1c-0.2,1.1-.4,3.8-0.5,4.4s-0.4,1.5-.4,1.7-0.1.4-.1,0.6v0.1l-0.2.7c-0.2.7-.5,1.9-0.7,2.7l-0.2.5c-0.2.4-.2,0.6-0.3,0.8l-0.1.2a3.6,3.6,0,0,1-.5.9,3.09,3.09,0,0,1-.2.8v0.1a0.1,0.1,0,0,0,.1.1c0,0.1-.1,0-0.2.1l-0.3.4a15.55,15.55,0,0,1-.8,2.3,17.72,17.72,0,0,0-.6,1.7c-0.1.2-.5,1.1-0.7,1.4s-0.5,1.3-.7,1.7-0.6,1.7-.9,3l-0.4,1.1a0.76,0.76,0,0,0-.2.5,1.7,1.7,0,0,0-.1.7l-0.1.3a15.47,15.47,0,0,1-.4,1.5l-0.1.4c0,0.2-.2.5-0.2,0.7l-0.1.3a7.26,7.26,0,0,1-.6,1.4l-0.1.7c-0.1.4-.2,0.9-0.3,1.2l-0.2.5c-0.1.7-.2,1.6-0.3,2l-0.1.4c0,0.1-.1,0-0.1.1a1.49,1.49,0,0,0-.1.6c-0.1.5-.3,1-0.4,1.4v0.7c0,0.2-.2.5-0.2,0.7v0.4c-0.1.7-.4,1.3-0.5,2v0.4c-0.1.4-.2,1.1-0.3,1.5l-0.1.3-0.1.4a5.28,5.28,0,0,0-.1,1.2c0,0.1-.5.8-0.6,1.1s-0.2.8-.3,1.2l-0.1.3a4,4,0,0,0-.3.4,1.49,1.49,0,0,0-.1.6c0,0.1-.2.2-0.2,0.3l-0.1.2a1.47,1.47,0,0,1-.2.4,0.77,0.77,0,0,0-.2.3,3.17,3.17,0,0,1-.6.5,1.87,1.87,0,0,1-.3.4,2.27,2.27,0,0,0-.1.4,0.54,0.54,0,0,1-.3.4l-0.1.1-0.3.3a2.27,2.27,0,0,1-.6.7,2.19,2.19,0,0,0-.3.5,9.32,9.32,0,0,0-1,1,7.36,7.36,0,0,0-.5.6,12,12,0,0,1-.9,1.2,7.64,7.64,0,0,1-.9.9l-0.1.3a0.1,0.1,0,0,1-.1.1c0,0.1,0,.2-0.1.2-0.1.2-.4,0.4-0.5,0.6l-0.1.2a0.76,0.76,0,0,1-.2.5,1,1,0,0,1-.6.4l-0.2.2-0.3.6c-0.1.2-.3,0.4-0.4,0.6a3.33,3.33,0,0,1-.3.6,0.1,0.1,0,0,0-.1.1l-0.3.5a1.74,1.74,0,0,1-.7,1,5,5,0,0,0-.7,1.3c-0.2.4-.7,1.2-0.8,1.4s-0.8,1-.9,1.3a9.2,9.2,0,0,0-.3.9,2.85,2.85,0,0,1-.4.8l-0.1.4a7.93,7.93,0,0,1-.4.9,3.11,3.11,0,0,1-.4.6l-0.1.2c-0.1.2-.3,0.5-0.4,0.4a4.54,4.54,0,0,0-.2.8,0.49,0.49,0,0,1-.3.5,1.51,1.51,0,0,0-.4.4c-0.1.1-.8,2.3-1.2,3a8.7,8.7,0,0,0-.8,1.9l-0.1.3-0.2.4a14.8,14.8,0,0,0-.8,1.3l-0.2.4a1.48,1.48,0,0,0-.1.7l-0.2.4a4.78,4.78,0,0,1-.6,1.1,8.36,8.36,0,0,0-.7,1.6c-0.2.4-.8,1.3-0.9,1.6a2.62,2.62,0,0,1-.5.9c-0.1.1-.2,0.7-0.3,0.8a1.33,1.33,0,0,1-.3.5,0.76,0.76,0,0,0-.2.4,5.9,5.9,0,0,1-.4.8,4.05,4.05,0,0,0-.5.9,6.21,6.21,0,0,1-.8,1.2c-0.2.3-.6,1.2-0.8,1.4s-0.3.7-.4,0.7a1.38,1.38,0,0,1-.4.3,0.76,0.76,0,0,0-.2.4,2.18,2.18,0,0,1-.5.3,0.3,0.3,0,0,0,0,.3c0.1,0,0,.3-0.1.4s-0.9,1.3-1.2,1.7a3.23,3.23,0,0,1-.8.7,0.76,0.76,0,0,1-.2.4c-0.1.1-.3,0.4-0.2,0.4a0.73,0.73,0,0,1-.1.6l-0.2.2a3.39,3.39,0,0,0-.6.6,0.37,0.37,0,0,0-.1.3l-0.4.5a11.12,11.12,0,0,1-1.2,1.5l-0.3.2-0.2.1a3.51,3.51,0,0,0-.8.5l-0.3.2a1.06,1.06,0,0,1-.5.2,1.65,1.65,0,0,0-.7,0l-0.5.1c-0.5.1-2,.5-2.5,0.6s-1.5.1-1.7,0.2a6.6,6.6,0,0,1-1.1.4l-0.4.2-0.3.1a8.49,8.49,0,0,0-1.7.8l-0.5.3-0.4.3a10.8,10.8,0,0,0-2,1.6,4.32,4.32,0,0,1-.9.6,4,4,0,0,1-.3.4c-0.1.1-.5,0.3-0.9,0.6l-0.3.3a5.58,5.58,0,0,1-.8.5l-0.4.2c-0.5.2-2.2,1.3-2.9,1.5a12.3,12.3,0,0,0-2.2.9c-0.2.1-.8,0.6-1,0.7a10.59,10.59,0,0,0-1.2,1,2,2,0,0,0-.7.9l-0.1.2-0.2.4a5.21,5.21,0,0,0,.6,1.5,2.58,2.58,0,0,0,1.1.8l0.6,0.1,1.2,0.1c1.3-.3,3.1-1.1,3.5-1.2s0.9-.3,1.2-0.4l0.2-.2,0.2-.2a2.09,2.09,0,0,1,.6-0.4,0.76,0.76,0,0,1,.4-0.2,1.42,1.42,0,0,0,.4-0.2c0.1-.1,1.3-0.2,1.7-0.3s1.4-.6,1.8-0.7,0.7,0.1.6,0.3l-0.1.2v0.3c0,0.2-.2.2-0.2,0.4v0.6a2.57,2.57,0,0,0-.2.5l-0.1.3a6.25,6.25,0,0,0-.1,1.2,2.81,2.81,0,0,1-.1.8l-0.1.3v0.1a1.06,1.06,0,0,0-.2.5,9.66,9.66,0,0,0-.7,1.2c-0.1.3-.4,1.2-0.5,1.4a1.1,1.1,0,0,1-.9.4l-0.3.2a0.37,0.37,0,0,1-.3.1,1,1,0,0,0-.4,1,6.15,6.15,0,0,1,.1,1.3,1.3,1.3,0,0,1-1,.9,1.33,1.33,0,0,1-1-.4h-0.4a6.37,6.37,0,0,1-.7-0.2,3.81,3.81,0,0,0-1,.3,0.49,0.49,0,0,1-.3.1l-0.1.1a3.4,3.4,0,0,0-.1,1,4.87,4.87,0,0,0,.4,1.1,0.82,0.82,0,0,1-.1.7c-0.1.1-.9,0.5-1.1,0.7a15.5,15.5,0,0,1-1.3,1.7,12.74,12.74,0,0,0-1.9,1.3,7,7,0,0,0-.8,1l-0.2.2-0.2.2a4.24,4.24,0,0,0-.6,1.4,3.92,3.92,0,0,0,.4.9,7.47,7.47,0,0,0,1.2.7l0.6-.1,0.5-.1c0.4-.2,1-0.6,1.4-0.8l0.4-.2c0.3-.1.5-0.4,0.8-0.5a6,6,0,0,0,1.1-.6l0.3-.2a4,4,0,0,0,.9-0.7,3.11,3.11,0,0,1,.6-0.4,0.79,0.79,0,0,1,.7.5l0.2,0.2c0.1,0.1.5,0.4,0.6,0.5a1.69,1.69,0,0,0,.6.3,1.38,1.38,0,0,0,.4.3,0.35,0.35,0,0,1,.2.1,0.38,0.38,0,0,0,.2.2c0.2,0.1.3,0.1,0.5,0.2l0.3,0.2a6.66,6.66,0,0,1,.7.3,12,12,0,0,1,1.4.3l0.6-.3a4.23,4.23,0,0,1,.7-0.5l0.8-.3c1,0.1,3.4,0,3.7-.5s0.7-1.1.8-1.2a1.87,1.87,0,0,1,.3.4,1.06,1.06,0,0,0,.5.2c0.1,0,.2.1,0.3,0.1l0.1,0.1,0.4,0.2c0.6,0,1.6.2,1.8,0.2a0.59,0.59,0,0,0,.5-0.2,6.65,6.65,0,0,1,.7-0.3l0.3-.1c0.2-.1.5-0.1,0.7-0.2l0.2-.1a5.72,5.72,0,0,0,.8-0.7,11,11,0,0,0,1.2-1.1c0.2-.3.8-0.9,1.2-1.4l0.3-.5a3.39,3.39,0,0,1,.6-0.6,2.19,2.19,0,0,0,.3-0.5,1.51,1.51,0,0,1,.4-0.4c0.1-.2.1-0.4,0.2-0.6s0.2-.3.3-0.5a2.09,2.09,0,0,0,.4-0.6l0.1-.2a1.1,1.1,0,0,0,.3-0.6,9.22,9.22,0,0,1,.5-0.8,5.94,5.94,0,0,1,.4-0.8,3.39,3.39,0,0,0,.6-0.6c0.1-.1.3-0.8,0.4-0.9s0.6-1.6.8-2,0.4-1.1.5-1.2a2.57,2.57,0,0,1,.2-0.5,9.44,9.44,0,0,0,.3-0.9c0.1-.2.4-1.5,0.5-1.9a13.14,13.14,0,0,0,.5-1.5,13.35,13.35,0,0,1,.6-1.2c0.1-.3.4-1.3,0.5-1.6a5.93,5.93,0,0,1,.4-0.6,7.57,7.57,0,0,1,.8-1.5,6,6,0,0,1,.6-0.7s0.6-.8.8-1.1a1.18,1.18,0,0,1,.6-0.5,4.37,4.37,0,0,0,.8-0.7,6,6,0,0,1,.8-0.8l0.3-.3,0.3-.3a1.87,1.87,0,0,1,.4-0.9,3.17,3.17,0,0,1,.6-0.5c0.1-.1.7-0.7,1.2-1.3l0.5-.5a6,6,0,0,1,.8-0.8,2.34,2.34,0,0,0,.7-0.7c0.1-.1.2-0.3,0.3-0.4s0.3-.2.4-0.3l0.4-.4a5.4,5.4,0,0,1,.8-0.8s0.8-1,1.2-1.4l1.1-1.1,0.2-.2c0.1-.1.2-0.1,0.3-0.2s0.1-.2.2-0.3l0.3-.3a8,8,0,0,1,.8-0.6l0.6-.6,0.2-.3c0.2-.2.2-0.4,0.4-0.6s0.3-.1.4-0.2l0.2-.2,0.2-.2c0.1-.1.1-0.3,0.2-0.4a7.05,7.05,0,0,1,.9-0.7c0.1-.1.1-0.2,0.2-0.3,0.3-.4.7-0.7,0.9-1l0.4-.5a22.05,22.05,0,0,0,1.6-1.7,1.52,1.52,0,0,1,.6-0.4c0.1,0,.1-0.3.2-0.3s0.6-.5.7-0.7a9,9,0,0,0,.9-1,2.74,2.74,0,0,1,.4-0.5,0.39,0.39,0,0,0,.2-0.4l0.1-.2c0.2-.2.5-0.4,0.7-0.6s0.1-.2.2-0.3l0.2-.3a8.7,8.7,0,0,0,1.3-1.5c0.2-.3,1.4-1.3,1.6-1.7s1.1-1.5,1.3-1.8a7.76,7.76,0,0,0,.4-0.7,3.61,3.61,0,0,1,.5-0.4l0.2-.2a2,2,0,0,0,.4-0.8l0.3-.4c0.3-.4,1.1-1.3,1.3-1.6a13.82,13.82,0,0,1,1-2.2,6.38,6.38,0,0,1,.6-0.9,2.74,2.74,0,0,1,.4-0.7l0.1-.3a4.33,4.33,0,0,0,.1-0.5,5.94,5.94,0,0,1,.4-0.8l0.1-.3c0.1-.3.8-2.1,1-2.7s0.5-1.1.5-1.2l0.8-2.8c0.3-.7.9-2.1,1-2.4s0.3-1.5.4-1.7,0.4-.6.4-0.7a1,1,0,0,1,.1-0.3c0-.1.2-0.1,0.2-0.2a18.32,18.32,0,0,0,.7-1.7c0.2-.5,1.2-2.3,1.5-3s0.6-1.4.7-1.8l0.1-.2c0.1-.1.1-0.4,0.2-0.5v-0.2c0-.1.2-0.1,0.2-0.1s0.1-.3.1-0.4a1.54,1.54,0,0,1,.4-0.6c0.1-.2.1-0.5,0.2-0.7s0.3-.5.4-0.8,0.1-.5.2-0.8l0.1-.2a5.25,5.25,0,0,0,.7-1.1l0.2-.3a7.59,7.59,0,0,0,.4-1.1,8.8,8.8,0,0,0,.6-1l0.1-.4c0.1-.4.4-0.9,0.4-1s0.2-.5.3-0.9l0.1-.4c0.1-.2.2-0.2,0.3-0.4l0.3-.6a16.68,16.68,0,0,1,.8-2.4,2.85,2.85,0,0,0,.4-0.8c0-.1.8-1.5,1-2.1s0.5-1.4.5-1.5,0.5-1.8.7-2.4a6.25,6.25,0,0,1,.5-1.1,2.27,2.27,0,0,0,.1-0.4l0.1-.1a2.54,2.54,0,0,0,.2-0.7c0.1-.4.2-0.7,0.3-1a0.52,0.52,0,0,0,.2-0.4c0.1-.2,0-0.4.1-0.6a4.35,4.35,0,0,0,.4-0.7c0.1-.3.1-0.6,0.2-0.9l0.2-.6c0.2-.7.4-1.3,0.4-1.3a4.4,4.4,0,0,1,.2-1,15.6,15.6,0,0,0,.5-1.6c0.1-.4.5-1.1,0.6-1.4s0.4-.3.3-0.2a2.15,2.15,0,0,0,0,.8c0,0.1.1,0.6,0.2,1.1l0.1,0.5,0.1,0.5a5.4,5.4,0,0,1,.4,1.2V237c0.1,0.5.3,0.8,0.4,1.2a4.17,4.17,0,0,0,.2.6V239l0.1,0.1,0.1,0.4c0.1,0.4.4,1.6,0.5,1.9s0.4,1,.5,1.2,0.1,0.5.2,0.7l0.1,0.2c0,0.1.1,0.1,0.1,0.2v0.2a2.61,2.61,0,0,0,.3.8,7.72,7.72,0,0,1,.2,1.5c0,0.2.2,0.5,0.2,0.7,0.1,0.7.2,1.4,0.3,1.9v0.5a1.06,1.06,0,0,0,.2.5,5.6,5.6,0,0,1,.1,1.8c0,0.5.3,0.9,0.3,1.3a3.73,3.73,0,0,0,.2,1.2c0.1,0.3.1,0.6,0.2,0.9s0.2,0.5.3,0.8v0.3a1.42,1.42,0,0,0,.2.4c0.1,0.4.1,0.8,0.2,1.1a1.33,1.33,0,0,0,.3.5,1.85,1.85,0,0,1,.2.7c0.1,0.5.1,1.1,0.2,1.6a0.76,0.76,0,0,0,.2.4,2.13,2.13,0,0,0,0,.8c0,0.5.2,1,.2,1.4,0,0.1-.1.2-0.1,0.3a4.82,4.82,0,0,1,0,1.2c0,0.2-.1.3-0.1,0.5-0.1.5,0,1.1-.1,1.6a1.85,1.85,0,0,0-.2.7,1.88,1.88,0,0,0-.2.8c0,0.1.1,0.1,0,.2v0.2a0.62,0.62,0,0,1-.3.5c0,0.1-.1.7-0.1,0.9s-0.5.8-.6,1a1.89,1.89,0,0,1-.4.6c-0.1.1-.2,0.4-0.4,0.7l-0.1.2-0.2.3c-0.1.4-.6,1.6-0.7,1.9a4.5,4.5,0,0,0-.2.8,0.34,0.34,0,0,1-.2.3,21.68,21.68,0,0,0-1.2,2.3,13.36,13.36,0,0,0-.5,1.4,0.22,0.22,0,0,1-.2.2s-0.2.5-.3,0.7-0.5,1.1-1.1,2.1l-0.2,1v0.5c0,0.1-.1.2-0.1,0.3l-0.2.4c-0.1.4-.4,0.8-0.4,0.9s-0.6,1.9-.9,2.5a4.25,4.25,0,0,1-.7,1.4,3.71,3.71,0,0,1-.2.9,9.44,9.44,0,0,0-.3.9v0.3a2.27,2.27,0,0,1,.1.4v0.2a5.39,5.39,0,0,1-.3,1l-0.1.4c-0.1.2-.1,0.5-0.2,0.7a1.42,1.42,0,0,0-.2.4c-0.1.2,0,.4-0.1,0.7s-0.1.3-.1,0.5v0.6c0,0.3-.2.7-0.2,0.9a5.65,5.65,0,0,0,0,1.3c0,0.1-.1.1-0.1,0.2a0.32,0.32,0,0,1,0,.3l-0.3,1.2v0.9a10.42,10.42,0,0,1-.1,1.1v0.1l-0.1.2a3.1,3.1,0,0,1-.2.7c0,0.1-.1.9-0.2,2v0.8a5.73,5.73,0,0,1-.4,1.4c-0.1.6,0,1.2-.1,1.7,0,0.2-.2.3-0.2,0.5a2.13,2.13,0,0,0,0,.8c0,0.2-.1.4-0.1,0.6s-0.1.3-.1,0.5l-0.1.9a4.32,4.32,0,0,0-.1,1.5c0.1,0-.1.1-0.2,0.2s-0.1.9-.2,1.9l-0.1.8a4.1,4.1,0,0,0-.1,1.1c-0.1.6-.4,1.2-0.5,1.9a0.32,0.32,0,0,1,0,.3V321a18.21,18.21,0,0,1-.5,2l-0.1.2c0,0.1.1,0.2,0.1,0.3v0.2a2.07,2.07,0,0,0-.2.6,0.54,0.54,0,0,1-.3.4,1,1,0,0,0-.3.8,0.44,0.44,0,0,1-.1.5,4.05,4.05,0,0,0-.3,1,3.59,3.59,0,0,0-.2,1.1v0.4c0,0.1-.1.1-0.1,0.2,0,0.4-.1.5-0.1,0.8v0.3c0,0.1-.1.1-0.1,0.2v0.1a20.12,20.12,0,0,1-.5,2.3,14.37,14.37,0,0,0-.1,1.8v0.5c0.1,0,0,.2-0.1.4v0.2c-0.1.5-.1,1.2-0.2,1.8l-0.1.4v1.1l-0.1.4a3.33,3.33,0,0,0-.2,1.7l-0.1.4a2.27,2.27,0,0,0-.1.4,0.55,0.55,0,0,1,0,.4c0,0.1-.1.3-0.1,0.4a9.63,9.63,0,0,1,0,1.7c0,0.2-.1.4-0.1,0.6v0.3c0,0.3.1,1.2,0.1,1.5a4.89,4.89,0,0,0-.1,1.3v0.4c0,0.2.1,0.4,0.1,0.7,0,0.1-.1.1-0.1,0.2,0,0.4.1,0.9,0.1,1.2s-0.1.6-.1,0.9a0.35,0.35,0,0,0,.1.2c0,0.1-.1.2-0.1,0.3,0,0.4.1,0.9,0.1,1.1a0.35,0.35,0,0,1-.1.2c0,0.1.1,0.2,0.1,0.3v4.3a9.7,9.7,0,0,1,.1,1.7v0.1c0,0.1.1,1.5,0.1,2.1v2.3l0.1,0.5,0.1,0.4a9.15,9.15,0,0,0,.1,1.6v0.4a0.35,0.35,0,0,0,.1.2v0.9c0,0.3.1,0.5,0.1,0.7v0.4a0.63,0.63,0,0,1-.3.7,0.34,0.34,0,0,0-.2.3,1.1,1.1,0,0,0,.3.6l0.1,0.5c0,0.2.1,0.3,0.1,0.5l0.1,0.8c0.1,0.8.1,2,.2,2.2a1.49,1.49,0,0,0,.3.7c0.1,0.1.1,0.3,0,.3a2.89,2.89,0,0,0,0,1v0.4l-0.1.2c0,0.2.1,0.3,0.1,0.5l0.1,0.7a17,17,0,0,1,.1,2.1v1.1c0,0.2.1,0.4,0.1,0.6s-0.1.3-.1,0.4v0.2a1.09,1.09,0,0,1,.1.5,6.27,6.27,0,0,0-.1,1.8l-0.1.9a4.82,4.82,0,0,0,0,1.2,4.17,4.17,0,0,1,.2.6v0.5a0.19,0.19,0,0,1,0,.3V390l0.1,2.3c0.1,2.3.2,4.3,0.2,4.3V398c0,0.2-.1.4-0.1,0.6s0.1,0.3.1,0.5-0.1.5-.1,0.7a4,4,0,0,1,0,1.1c0,0.1-.1.3-0.1,0.4v1l-0.1.6a2.83,2.83,0,0,0,.1,1.2c0.1,0,0,.2,0,0.3a2.24,2.24,0,0,0-.1,1v0.3c0,0.2-.2.5-0.2,0.7v1.1c0,0.4-.1.8-0.1,1.2a5.65,5.65,0,0,1,0,1.3v0.3a2,2,0,0,1-.2.7,6.53,6.53,0,0,1-.2,1.1,1,1,0,0,0-.1.7c0.1,0,0,.3-0.1.3a3.33,3.33,0,0,0-.3.6c-0.1.1-.3,0.6-0.6,1.1l-0.2.5a5.36,5.36,0,0,1-.5,1.1,0.75,0.75,0,0,1-.1.5,2.47,2.47,0,0,1-.4.9l-0.1.2a3.29,3.29,0,0,0-.3.6,4,4,0,0,0-.4.3,8.91,8.91,0,0,0-.5,1l-0.2.3a2.57,2.57,0,0,0-.2.5,0.1,0.1,0,0,0-.1.1l-0.1.2a1.69,1.69,0,0,0-.3.6c0,0.1-1.1,1.9-1.4,2.6a6.51,6.51,0,0,1-.9,1.4,9.66,9.66,0,0,1-.9,1.7,19.23,19.23,0,0,0-1.2,2.5,6.38,6.38,0,0,1-.6.9s-0.4.6-.5,0.8a11.88,11.88,0,0,0-.8,1.6,5.07,5.07,0,0,0-.2.9,6.42,6.42,0,0,1-.5,1.1l-0.2.5-0.1.3a4.13,4.13,0,0,1-.4.9,13.67,13.67,0,0,1-.5,1.9,2.8,2.8,0,0,1-.5,1,8.32,8.32,0,0,1-.2,1.3c-0.1.3-.3,0.9-0.4,1.1a4.17,4.17,0,0,1-.2.6c0,0.1-.2.9-0.4,1.8l-0.2.9-0.1.5a3.74,3.74,0,0,0-.1,1.4c0,0.1-.2.1-0.2,0.1s-0.2.7-.3,1.3v0.5c0,0.2.1,0.2,0.1,0.4s-0.1.2-.1,0.3l-0.1.4a12.1,12.1,0,0,1-.1,1.9v0.4c0,0.1-.1.2-0.1,0.3a1.63,1.63,0,0,1,0,.7c0,0.1-.1.2-0.1,0.3a12.05,12.05,0,0,1,0,1.9l-0.1.1c0,0.1.1,0.1,0,.2s-0.1.2-.1,0.3,0.1,0.4.1,0.6-0.1.4-.1,0.6v1a9.88,9.88,0,0,0,.1,2.2,1.48,1.48,0,0,1,0,1v0.4l0.1,0.6c0,0.7-.1,1.5-0.1,1.6a0.39,0.39,0,0,0,.2.4V465a3.78,3.78,0,0,0-.1.8v1.6c0,0.5-.1,1.1-0.1,1.5v0.4c0,0.2-.1.4-0.1,0.6a1.22,1.22,0,0,1,0,.6c0,0.5-.2,1.1-0.2,1.7,0,0.1.1,0.2,0.1,0.3v0.3c0,0.4-.2,1-0.2,1.2a0.78,0.78,0,0,1,0,.5c0,0.1-.1,1.8-0.1,2.4a8.37,8.37,0,0,1-.1,1.2s0.1,1,.2,1.4-0.1,1.3,0,1.6a13,13,0,0,0,.3,1.3,1.39,1.39,0,0,1,0,.9c0,0.2-.1.4,0,0.4s0.1,0.1,0,.1a6.82,6.82,0,0,1,.2,1.8c-0.1.5-.1,1.2-0.2,1.5v0.3c0,0.4-.2.9-0.2,1.4,0,0.1.1,0.2,0.1,0.3a4.33,4.33,0,0,0-.1.5v0.5a3.4,3.4,0,0,1-.1,1.5,0.62,0.62,0,0,0,.1.5c0.1,0,0,.1-0.1.1a0.48,0.48,0,0,0,0,.4v0.6a7.72,7.72,0,0,1-.1,1c0,0.1.2,0.4,0.2,0.3s0,0,0,.1-0.2.1-.2,0a2.64,2.64,0,0,1-.1.7,2.72,2.72,0,0,1,0,.9c0,0.2-.3.7-0.3,0.9a0.76,0.76,0,0,1-.2.5,0.48,0.48,0,0,0-.1.4c0,0.1-.6.8-0.7,1.1a2,2,0,0,0,0,.8c0,0.1-.2.4-0.2,0.5s-0.2.2-.2,0.1a3.19,3.19,0,0,0-.6,1.1,5.48,5.48,0,0,1-.4,1.2,13.53,13.53,0,0,0-.7,2.5,7.45,7.45,0,0,1-.9,1.8,2.49,2.49,0,0,0-.1.8,1.38,1.38,0,0,1-.4.3c-0.1.1,0,.3,0,0.2a0.1,0.1,0,0,1-.1.1,1.33,1.33,0,0,0-.5.3,6.82,6.82,0,0,1-.7.5l-0.2.2-0.3.6a4.62,4.62,0,0,1-.7.7,1.69,1.69,0,0,0-.3.6l-0.1.2a1.06,1.06,0,0,1-.5.2,1.47,1.47,0,0,0-.2.4c-0.1.1,0,.5-0.1,0.6a7,7,0,0,0-.7.9c-0.1.2-.7,0.8-0.8,1s-0.6.5-.6,0.6a1.2,1.2,0,0,1-.5.5l-0.1.1-0.2.1c-0.2.1-.4,0.4-0.5,0.4a1.47,1.47,0,0,1-.4.2c-0.1,0-1.2.7-1.6,0.9s-1.2.6-1.7,0.9l-0.5.2-0.4.2c-0.4.2-1.3,0.8-2.1,1.2l-0.7.4-0.6.4c-0.5.5-1.1,1.3-1.2,1.4s-0.5.6-.8,1l-0.2.4c-0.1.2-.1,0.5-0.2,0.8a0.53,0.53,0,0,0-.2.3c-0.1.1,0,.3-0.1,0.4a0.53,0.53,0,0,0-.2.3l-0.3.7a7.05,7.05,0,0,0,0,2.1,0.37,0.37,0,0,1-.2.5V529a0.91,0.91,0,0,0,.3.5,2.19,2.19,0,0,0,.3.5,0.62,0.62,0,0,0,.4.3c0.4,0.3.7,0.5,1,.7a4.05,4.05,0,0,0,.9.5c0.3,0.1.7,0.1,1,.2a4,4,0,0,1,.4.3h0.3a0.35,0.35,0,0,1,.2.1,8.09,8.09,0,0,0,2.2,0c0.8,0.1,1.4.4,2,.5a2.05,2.05,0,0,0,1.1,0c0.2,0,.4-0.1.6-0.1h0.2a5.14,5.14,0,0,0,2,.1l0.9,0.1c0.6,0,1.1.1,1.7,0.1,0.8,0,1.5.2,2.2,0.2h3a3,3,0,0,0,1.4-.6c0.2-.1.4,0,0.6-0.1l1.2-.3a2.09,2.09,0,0,0,.6-0.4l0.6-.3a3.81,3.81,0,0,0,1-.3l0.6-.3a2.45,2.45,0,0,0,.7-1.2,0.77,0.77,0,0,1,.5-0.2l0.3-.1a6.47,6.47,0,0,0,.9-0.8l0.4-.3a12.17,12.17,0,0,0,1.7-1.5c0.3-.3.9-1,1.1-1.2a1.52,1.52,0,0,0,.4-0.6,0.34,0.34,0,0,1,.3-0.2,18,18,0,0,0,1.4-1.7,7.09,7.09,0,0,0,1.1-2.1,1.86,1.86,0,0,0,.1-1v-0.2a1.27,1.27,0,0,1,.1-0.6,1.44,1.44,0,0,1,.2-0.3l0.1-.4a13.48,13.48,0,0,1,.1-2.7l0.2-1.1a2.35,2.35,0,0,0,.2-0.8,1.22,1.22,0,0,1,0-.6,3.63,3.63,0,0,1,.3-0.7,4.67,4.67,0,0,1,.4-1.4,0.53,0.53,0,0,0,.2-0.3,1.27,1.27,0,0,0,.1-0.6c0-.1.2-0.2,0.2-0.3l0.2-.5c0.2-.5.4-1.2,0.4-1.2a1,1,0,0,1,.1-0.3V507a7.83,7.83,0,0,0,.3-1.4l0.1-.5c0.1-.8.2-1.7,0.3-2.6,0.1-.6,0-1.1.1-1.6a3.4,3.4,0,0,1,.1-1c0-.1.1-0.2,0.1-0.3v-0.7c0.1-.7.3-1.5,0.4-2.1v-0.2c0-.1.1-0.3,0.1-0.4a0.83,0.83,0,0,1,0-.5c0-.2.2-0.3,0.2-0.5l0.1-.3a10.83,10.83,0,0,1,.5-1.9l0.2-.6a1.33,1.33,0,0,0,.3-0.5l0.1-.1a1.34,1.34,0,0,0,.1-0.5,3.2,3.2,0,0,1,.1-0.7l0.1-.4a5.94,5.94,0,0,1,.4-0.8l0.2-.7a31.5,31.5,0,0,1,.9-3.6l0.3-1.2,0.1-.3c0.1-.3.2-0.8,0.3-1.2l0.1-.3c0.1-.4.3-0.8,0.4-1.2l0.2-.6c0.2-.7.7-1.8,0.8-2.1s0.4-1.1.7-2l0.2-.7,0.2-.5c0.2-.5.5-1,0.5-1.1a14.32,14.32,0,0,1,.9-1.9c0.2-.5.7-1.5,1.1-2.3l0.4-.6c0.1-.2.3-0.4,0.4-0.6,0.2-.4.3-0.8,0.5-1.2l0.2-.5c0.3-.5,1.1-2.1,1.4-2.5a6.38,6.38,0,0,1,.6-0.9s0.4-.8.5-1.1a4.07,4.07,0,0,0,.2-0.7c-0.1,0,.1-0.1.2-0.1a3.21,3.21,0,0,1,.3-0.5,1,1,0,0,0,.3-0.4,1.27,1.27,0,0,0,.1-0.6c0-.1.7-0.9,0.9-1.2a6.12,6.12,0,0,0,.5-1.2l0.1-.3c0-.2.1-0.3,0.1-0.5s0.3-.6.4-0.9,0.1-.6.2-0.9c0-.1.1-0.2,0.1-0.3a6.89,6.89,0,0,1,.3-0.8l0.1-.4a4.07,4.07,0,0,1,.2-1,7.75,7.75,0,0,0,.1-0.9l0.1-.4a2.27,2.27,0,0,0,.1-0.4v-0.7c0-.2.2-0.4,0.2-0.6a1.85,1.85,0,0,0,.2-0.7,0.32,0.32,0,0,1,0-.3l0.1-.1v-0.2c0-.1.1-0.1,0.1-0.2v-0.7a2.92,2.92,0,0,1,.2-0.9,12.91,12.91,0,0,1,.5-2.1l0.3-1c0.2-1.2.4-2.7,0.5-3.3l0.2-.5a4.88,4.88,0,0,0,.3-0.7,3.09,3.09,0,0,0,.2-0.8v-0.6a1.42,1.42,0,0,0,.2-0.6v-0.6a2.19,2.19,0,0,1,.3-0.5,3.09,3.09,0,0,1,.2-0.8c0.1-.2.2-0.7,0.4-1.2l0.1-.4a13.39,13.39,0,0,1,.6-1.2l0.2-.4c0.2-.4.3-0.8,0.4-0.9l0.1-.1c0.1-.1.3-0.2,0.4-0.3s0-.2.1-0.2l0.5-.7a19.37,19.37,0,0,1,1.4-1.8l0.2-.2,0.2-.3a3.11,3.11,0,0,1,.7-0.9l0.1-.2c0.2-.3.3-0.5,0.5-0.8a1.51,1.51,0,0,1,.4-0.4l0.2-.3c0.2-.3.6-1.5,0.8-1.7a2,2,0,0,0,.3-0.8,3.33,3.33,0,0,0,.3-0.6,1.14,1.14,0,0,1,.3-0.6c0.1-.1.3-0.9,0.4-1.1a11.32,11.32,0,0,0,.6-1.4l0.2-.5a0.52,0.52,0,0,0,.2-0.4,1.27,1.27,0,0,0,.1-0.6,3.29,3.29,0,0,0,.3-0.6v-0.5a0.62,0.62,0,0,1,.3-0.4l0.2-.5a3.1,3.1,0,0,1,.3-1.2,6.42,6.42,0,0,0,.4-1.4l0.2-.6a0.76,0.76,0,0,0,.2-0.4c0.1-.3,0-0.7.1-1l0.1-.3a6.66,6.66,0,0,1,.3-0.7l0.4-1.8,0.2-.8c0.1-.6.2-1,0.3-1.4a2.92,2.92,0,0,0,.2-0.9v-0.7a2.92,2.92,0,0,1,.2-0.9l0.1-.4c0.1-.5.3-1.1,0.4-1.5l0.1-.3c0.1-.2,0-0.4.1-0.6l0.1-.5a3.14,3.14,0,0,1,.4-1.2v-0.1l0.2-.9a25.54,25.54,0,0,1,.7-3.3c0.1-.4.3-2.5,0.5-3.1a12.77,12.77,0,0,0,.4-1.3,6.59,6.59,0,0,0,.3-1l0.1-.4v-0.3l0.3-.9c0.1-.3.3-0.6,0.4-0.9s0.1-.6.2-0.9a4.35,4.35,0,0,1,.4-0.7l0.1-.4c0.2-.4.7-2,1.2-3.6l0.3-1.5v-0.4c0.1-.3.2-0.7,0.3-1.1l0.1-.5c0.1-.6.8-2.4,0.9-3a3.79,3.79,0,0,0,.1-1.4c-0.1,0,0-.1.1-0.1a2.8,2.8,0,0,0,.5-1l0.2-.4,0.1-.1a2.53,2.53,0,0,1,0,1.3,7.84,7.84,0,0,0-.2,1.4l-0.1.4c0,0.2-.2.3-0.2,0.5l-0.2.8c0,0.8.1,1.8,0.1,1.9v0.8c0.1,0,0,.1-0.1.1a1.38,1.38,0,0,0-.2,1v0.4c0,0.2-.1.5-0.1,0.7a9.73,9.73,0,0,0-.1,1.6,4.05,4.05,0,0,1,0,1.1c0,0.2-.1.3-0.1,0.5s0.1,0.4.1,0.6v0.6c-0.1.7,0,1.5-.1,1.6a2.13,2.13,0,0,0,0,.8,4.51,4.51,0,0,0-.1,1.3l0.1,0.5a12.75,12.75,0,0,1,.1,2,16.2,16.2,0,0,0,.1,2.2c0,0.3.1,0.6,0.1,0.8v0.9l0.1,1.2a9,9,0,0,0,.4,2.5,1.86,1.86,0,0,1,0,.8v0.3l-0.1.7c0.1,0.8.3,1.9,0.3,2.1a0.42,0.42,0,0,0,.4.3c0.1,0-.1.1-0.2,0.2a2.44,2.44,0,0,0-.2,1.3v2.3c0,0.2.1,0.5,0.1,0.7,0,0.4-.1.9-0.1,1.2s0.1,0.6.1,0.9-0.2.4-.2,0.6a3.35,3.35,0,0,1,0,1c0,0.2-.2.4-0.2,0.6v0.6l-0.1.5a12.75,12.75,0,0,1-.4,1.4,4.88,4.88,0,0,1-.3.7c0,0.1-.1.4-0.1,0.5s0,0.3-.1.3a7.76,7.76,0,0,1-.4.7l-0.1.3v0.4l-0.1.2a2.62,2.62,0,0,1-.5.9,1.2,1.2,0,0,0,0,.6,0.22,0.22,0,0,1-.2.2,1.47,1.47,0,0,0-.2.4,0.34,0.34,0,0,0,.3.2c0.1,0,.1.1,0,0.2s-0.3,0-.3,0a0.92,0.92,0,0,0-.4.6,6.12,6.12,0,0,0-.4.6c-0.1.1-.1,0.9-0.2,1.1l-0.3.6a0.85,0.85,0,0,0-.3.3,7.26,7.26,0,0,1-.6,1.4c-0.1.3-.3,0.7-0.3,0.8l-0.1.1s-0.3.8-.4,1.1a7.59,7.59,0,0,0-.4,1.1,0.37,0.37,0,0,1-.2.3,4,4,0,0,1-.3.4,1.06,1.06,0,0,0-.2.5,0.34,0.34,0,0,1-.2.3,4,4,0,0,1-.3.4,4.33,4.33,0,0,1-.1.5c0,0.1-.3.8-0.4,1.1s-0.5,1.3-.6,1.6-0.8,1.7-.9,2.2a5.13,5.13,0,0,0-.1,1,1.44,1.44,0,0,1-.2.3,6.89,6.89,0,0,0-.3.8,4.18,4.18,0,0,1-.4,1,6.47,6.47,0,0,1-.4,1.3c-0.1.3-.4,0.6-0.4,0.7v0.4a24,24,0,0,0-.9,3.2,6.2,6.2,0,0,1-.4,2,3.1,3.1,0,0,0-.3,1.2v1.4c0,0.1-.1.2-0.1,0.3v3.4a25.07,25.07,0,0,0,.4,4.4c0.1,0,0,.7.1,1s0,1.1.1,1.3a10.56,10.56,0,0,1,.6,1.9,1.72,1.72,0,0,0,.2.9c0-.1.1,0.1,0.2,0.1a0.37,0.37,0,0,1-.1.3,4.5,4.5,0,0,0,.2,1.4c0,0.4-.1,1-0.1,1.2a2,2,0,0,0,.2.6c0.1,0.1.1,0.4,0,.4a2.22,2.22,0,0,0-.1.9,2.25,2.25,0,0,1,.1.7,0.35,0.35,0,0,1-.1.2,5.1,5.1,0,0,1-.1.9v0.3a17,17,0,0,0-.1,2.1v0.2a0.37,0.37,0,0,1,.1.3v2.5a13.42,13.42,0,0,0,.1,2.1v0.1a7.75,7.75,0,0,1,.1.9v0.3c0,0.2.1,0.5,0.1,0.7v1.2c0,0.3.1,0.7,0.1,1v0.4a2,2,0,0,1,0,.8v1.1c0,0.2.1,0.4,0.1,0.6s-0.1.2-.1,0.3a2.27,2.27,0,0,1,.1.4l0.1,1c0,1.1-.1,2.1-0.1,2.1s-0.1.9-.1,1.8v1.1a7.63,7.63,0,0,1,.1,1.7v0.6c0,0.1-.1.2-0.1,0.3,0,0.3.1,0.5,0.1,0.8v0.2a5.07,5.07,0,0,0-.2,1.3v1.6l-0.1.6a4.1,4.1,0,0,1-.1,1.1,8.55,8.55,0,0,0,0,1.6l-0.1.6c-0.1.5-.2,1.8-0.4,2.7v0.9a1.91,1.91,0,0,1-.3.8c-0.1.2,0,.5-0.1,0.7a2.61,2.61,0,0,1-.3.8v0.5l-0.1.3c-0.1.3-.3,0.6-0.3,0.7s-0.1.4-.2,0.9l-0.1.4a5.94,5.94,0,0,1-.4.8l-0.1.2c0,0.3-.8,1.2-0.9,1.6s-1,1.6-1.2,2.1a8.79,8.79,0,0,0-.5,1,2.71,2.71,0,0,1-.3.8l-0.1.5-0.1.7a11.89,11.89,0,0,0-.4,1.4v0.2a1,1,0,0,0,.1.3,0.1,0.1,0,0,0-.1.1L217,518c0.1,0.3,0,.8.1,1l0.2,0.5c0.2,0.4.6,1.1,0.8,1.5l0.5,0.4,0.4,0.3c0.4,0.2,1.2.5,1.7,0.8l0.4,0.1c0.2,0.1.5,0,.7,0.1s0.2,0.1.3,0.1a3.4,3.4,0,0,0,1,.1c0.1,0,0,.1,0,0.1h0.2a3.33,3.33,0,0,0,1,0c0.2,0,.3.1,0.5,0.1h0.3c0.3,0,.7.1,1,0.1h1.2l2.6-.2h1.3c0.1,0,.3-0.1.3,0a5.39,5.39,0,0,1,.8-0.1c0.3,0,1.5.4,2,.4a8.71,8.71,0,0,1,1.9.5c0.3,0.1,1,.4,1.3.5s1.1,0.6,1.4.7a13.39,13.39,0,0,1,1.2.6,7.34,7.34,0,0,0,1.3,1,18.6,18.6,0,0,1,2,1.4c0.4,0.2,1.3.7,1.5,0.8s0.8,0.9,1,1a2.74,2.74,0,0,0,.7.4,13.89,13.89,0,0,0,2,1.7c0.7,0.3,1.8.9,2,1s1.2,0.3,2.1.6l0.9,0.1c0.3,0,.6.2,0.9,0.2a2.15,2.15,0,0,0,.8,0,2.27,2.27,0,0,0,.4-0.1,4.49,4.49,0,0,1,1.1-.1h0.4c0.4,0.1.7,0.3,0.8,0.3s1.8,0,2.4.1,1.9-.3,2.4-0.2a8.63,8.63,0,0,0,2.8-.2,4.91,4.91,0,0,1,1-.4,2.33,2.33,0,0,0,.7-0.9,6,6,0,0,1,.8-0.8,2.51,2.51,0,0,0,.4-0.7,8.25,8.25,0,0,0,1.1-1.8,2.7,2.7,0,0,0,.3-1.2v-1.3l-0.2-.3c-0.1-.2-0.3-0.2-0.4-0.4a0.52,0.52,0,0,1-.2-0.4l-0.3-.4a5.16,5.16,0,0,0-1.3-1.7l-0.4-.5c-0.1-.2-0.3-0.3-0.4-0.5v-0.2c-0.1-.2-0.4-0.4-0.6-0.7a12.66,12.66,0,0,0-1.3-1.1,3.39,3.39,0,0,0-.6-0.6,1.48,1.48,0,0,0-.7-0.1,10.36,10.36,0,0,1-1-.4H262a2.27,2.27,0,0,1-.4-0.1c-0.3-.1-0.7,0-0.9-0.1s0-.1-0.1-0.1c-0.5-.1-1-0.2-1.4-0.3s-0.5-.2-0.8-0.3H258l-0.5-.1c-0.6-.2-1.2-0.5-1.3-0.5a6.58,6.58,0,0,1-1.2-.6,11,11,0,0,1-1.1-1,5.54,5.54,0,0,0-.8-0.6l-0.2-.2a2.57,2.57,0,0,0-.5-0.2,3.39,3.39,0,0,0-.6-0.6,0.37,0.37,0,0,0-.3-0.1,7.25,7.25,0,0,1-.5-0.9,2.51,2.51,0,0,0-.7-0.8,9.38,9.38,0,0,1-.9-1.2c-0.3-.4-0.6-1.1-0.9-1.4l-0.2-.2c0-.1,0-0.2-0.1-0.2a2.09,2.09,0,0,0-.6-0.4v-0.1l-0.1-.1c-0.1-.1-0.5-0.2-0.6-0.3a8.79,8.79,0,0,1-.6-1c-0.2-.2-0.5-0.7-0.6-0.8s-0.6-.4-0.8-0.6-0.5-.4-0.8-0.6l-0.3-.3c-0.2-.2-0.4-0.3-0.6-0.5a2.09,2.09,0,0,0-.4-0.6c-0.3-.3-0.8-0.5-1-0.7a4.17,4.17,0,0,1-.2-0.6,1.85,1.85,0,0,1-.2-0.7v-0.3a5.94,5.94,0,0,0-.4-0.8l-0.1-.5v-2.4a8.08,8.08,0,0,0-.1-1.6,2.22,2.22,0,0,1,.1-0.9c0-.1-0.1-0.1-0.1-0.2a0.35,0.35,0,0,1,.1-0.2v-0.6l0.1-.5c0-.3.1-1.1,0.1-1.3s0.1-.7.1-1l0.1-.3c0.1-.4.3-0.7,0.4-1.1s0.1-.6.2-0.9a3.09,3.09,0,0,0,.2-0.8v-0.6l0.1-.6a12.55,12.55,0,0,0,.7-2.6l0.1-.6c0.1-.3.3-0.6,0.4-0.9s0.1-.9.2-1.4a1.47,1.47,0,0,0,.2-0.4,3.08,3.08,0,0,0,.1-1,4216422.64,4216422.64,0,0,1,.4-1.2c0.1-.3,0-0.6.1-0.9a1.69,1.69,0,0,1,.2-0.5,1.27,1.27,0,0,1,.1-0.6,1.42,1.42,0,0,1,.2-0.4l0.1-.4a8.45,8.45,0,0,1,.5-1.7c0.1-.3.2-0.7,0.2-0.7s0.6-1.4.8-2,0.2-1.9.3-2.2a3,3,0,0,1,.3-0.6,8.2,8.2,0,0,1,.4-1.1l0.1-.5c0.1-.3,0-0.6.1-0.9a1.38,1.38,0,0,1,.3-0.4l0.2-.4a4,4,0,0,1,.4-1.2c0-.1.1-0.4,0.1-0.5a1.69,1.69,0,0,1,.3-0.6,9.68,9.68,0,0,1,.3-1.1l0.1-.3a1.44,1.44,0,0,0,.2-0.3V462c0.1-.2.2-0.3,0.3-0.5l0.1-.3c0-.3.7-1.7,0.8-2.2s0.5-1.4.5-1.6a20.53,20.53,0,0,1,.8-1.9,16.66,16.66,0,0,1,.5-1.9,15.78,15.78,0,0,1,.7-1.6l0.1-.6c0.1-.5.1-0.9,0.2-1.4a0.75,0.75,0,0,1,.1-0.5,1.38,1.38,0,0,1,.3-0.4,1.27,1.27,0,0,0,.1-0.6,1.42,1.42,0,0,0,.2-0.6l0.1-.5a16.46,16.46,0,0,0,.2-2.1v-0.4a2.54,2.54,0,0,1,.2-0.7c0-.1-0.1-0.1-0.1-0.2s0.1-.1.1-0.2a3.09,3.09,0,0,0,.2-0.8c0.1-.5.1-1.1,0.2-1.4s0-.7.1-1c0-.1.1-0.2,0.1-0.3,0.1-.3.1-0.6,0.2-0.8a0.53,0.53,0,0,0,.2-0.3,1.27,1.27,0,0,0,.1-0.6l0.1-.5c0.1-.6.5-1.7,0.5-2s0.1-1.7.2-2.1a4.79,4.79,0,0,0,.5-1.1c0-.1.2-0.6,0.3-1.1v-1l0.1-.4a3,3,0,0,1,.3-0.9l0.4-1.6a4.41,4.41,0,0,0,.3-1.4,14.67,14.67,0,0,1,.6-1.4c0.1-.4.2-1.2,0.3-1.4a10.52,10.52,0,0,0,.8-1.8,4.93,4.93,0,0,0,.4-0.9l0.4-.8,0.1-.4a4.33,4.33,0,0,0,.1-0.5l0.1-.5a7.72,7.72,0,0,0,.6-1.5l0.1-.2,0.1-.3a12.13,12.13,0,0,0,.5-1.4,11.31,11.31,0,0,1,.4-1.5,6.15,6.15,0,0,0,.3-1.1c0-.2.2-0.6,0.2-0.8a20.68,20.68,0,0,1,.6-2.4,12.76,12.76,0,0,0,.4-1.3c0-.1.3-0.8,0.6-1.6l0.2-.7c0.1-.2,0-0.4.1-0.6l0.3-.6,0.1-.2c0.1-.2.7-2,0.9-2.6a15.86,15.86,0,0,1,.8-1.8l0.2-.4,0.3-.7c0.3-.9.7-1.6,0.7-1.7a7.23,7.23,0,0,0,.4-0.7l0.1-.3a8,8,0,0,0,.3-1.5l0.2-.8a10.45,10.45,0,0,0,.7-1.6,2.79,2.79,0,0,1,.5-0.9l0.1-.4a4.33,4.33,0,0,1,.1-0.5,4.17,4.17,0,0,1,.6-0.8l0.2-.4c0.2-.5.5-1.6,0.6-1.8s0.3-.5.3-0.5a8.56,8.56,0,0,1,.5-1.5,4.88,4.88,0,0,0,.6-1.3c0.1-.2.7-1.7,0.9-2.3a4.2,4.2,0,0,1,.8-1.5l0.2-.5,0.1-.4a21.85,21.85,0,0,1,.9-2.3c0.2-.5.6-1.6,1-2.6l0.2-.7a0.75,0.75,0,0,0,.1-0.5,1.38,1.38,0,0,1,.3-0.4,9.43,9.43,0,0,0,.3-0.9,7.84,7.84,0,0,1,.5-1.4c0.1-.4.2-0.7,0.3-1l0.2-.7a2.1,2.1,0,0,1,.4-1.2,5.92,5.92,0,0,0,.4-0.6v-1.9a2.91,2.91,0,0,1,.2-0.8,0.7,0.7,0,0,0,.2-0.4l0.1-.2a1.42,1.42,0,0,0,.2-0.4,1.49,1.49,0,0,1,.1-0.6,2.27,2.27,0,0,0,.1-0.4v-0.4c0.1-.7.5-1.3,0.6-2,0-.3.1-0.5,0.1-0.7l0.1-.5,0.2-1.2s0.3-2.2.4-3,0.5-2.3.5-2.7a2.44,2.44,0,0,1,.1-0.7,9.26,9.26,0,0,1,.3-1,3.29,3.29,0,0,0,.3-0.6v-0.4c0-.1.2-1.2,0.4-2.5l0.2-1.2c0-.4.3-0.8,0.3-1.2v-0.4c0-.3.2-0.5,0.2-0.8a4,4,0,0,1,0-1.1,0.1,0.1,0,0,1,.1-0.1c0.1-.5,0-0.7.1-1.2,0-.1.1-0.2,0.1-0.3l0.2-1.2a17.18,17.18,0,0,1,.3-2.9,5.88,5.88,0,0,0,0-1.4v-1.5c0.1-3.4,0-6.7-.2-9.5l-0.1-.7c-0.1-.8-0.2-2.4-0.3-3.4l0.1-.9a2.27,2.27,0,0,0,.1-0.4V318c0-.8-0.1-2-0.1-2.6v-1c-0.1-.6-0.1-1.3-0.2-1.6V312a5.74,5.74,0,0,0,.1-1.2c0-.2.1-1.1,0.1-1.5a17.63,17.63,0,0,1,.2-1.9v-0.7c0-.4-0.1-0.9-0.1-1.3,0-.2.1-0.4,0.1-0.7a20.92,20.92,0,0,0-.1-2.6,1.63,1.63,0,0,0,0-.7c0-.3-0.2-0.6-0.2-0.8v-3.9c0-.3-0.1-0.5-0.1-0.8s0.1-.4.1-0.6a2.27,2.27,0,0,1-.1-0.4c-0.1-.5,0-1-0.1-1.5s-0.3-1.1-.3-1.5c0-.2.1-0.3,0.1-0.5s-0.1-.4-0.1-0.7-0.3-.8-0.4-1.2,0-.8-0.1-1.2c0-.1-0.1-0.3-0.1-0.4v-0.7a2.12,2.12,0,0,0-.3-0.7v-0.4a1.06,1.06,0,0,0-.2-0.5l-0.2-.7c-0.2-.7-0.5-1.8-0.6-2.4l-0.1-.6v-0.4c0-.1-0.1-0.1-0.1-0.2l-0.2-.4a15.43,15.43,0,0,0-.5-1.7l-0.1-.4a1.27,1.27,0,0,0-.1-0.6l-0.2-.8c-0.3-.8-0.6-1.6-0.6-1.7a3,3,0,0,1-.3-1l-0.1-.3a10.37,10.37,0,0,0-.4-1,4.33,4.33,0,0,0-.1-0.5c-0.1-.2-0.3-0.3-0.4-0.5s-0.1-.5-0.2-0.7a0.52,0.52,0,0,1-.2-0.4c-0.1-.4-0.2-0.8-0.3-1.1a12.9,12.9,0,0,1-.9-1.6,0.6,0.6,0,0,1-.1-0.4,5.36,5.36,0,0,0-.5-1.1l-0.1-.3a12.13,12.13,0,0,0-.5-1.4l-0.3-.4-0.3-.3a1.48,1.48,0,0,1-.1-0.7l-0.1-.2a3,3,0,0,1-.5-0.7v-0.2a9.85,9.85,0,0,1,.2-1.7c0-.6-0.1-1.1-0.1-1.7s0.1-1.3.1-2V257a0.1,0.1,0,0,1,.1-0.1,1.65,1.65,0,0,0,0-.7c0-.2.1-0.3,0.1-0.5l0.1-.8c0.1-.8.2-0.9,0.3-0.2l0.1,0.6a1.06,1.06,0,0,0,.2.5v0.4c0.1,0.7.5,1.4,0.6,2,0.1,0.2,0,.5.1,0.7a0.76,0.76,0,0,1,.2.5c0.1,0.3,0,.7.1,1.1,0.1,0.2.2,0.5,0.3,0.7s0.1,0.6.2,0.8a1.47,1.47,0,0,1,.2.4c0.1,0.2.1,0.4,0.2,0.6s0.1,0.4.2,0.6v0.6c0,0.2.2,0.3,0.2,0.5,0.3,0.8.5,1.9,0.7,2.6a4.88,4.88,0,0,0,.3.7c0.1,0.2.1,0.5,0.2,0.7a4.87,4.87,0,0,1,.3.7l0.1,0.3a5.07,5.07,0,0,1,.2.9,0.76,0.76,0,0,1,.2.4l0.4,1.6,0.3,0.7c0.2,0.5.6,1.1,0.7,1.5a4.25,4.25,0,0,1,.2,1.1,1.06,1.06,0,0,1,.2.5V277a1.47,1.47,0,0,1,.2.4,2.77,2.77,0,0,1,.1.9c0,0.1.1,0.3,0.1,0.4v0.6l0.1,0.5a6.56,6.56,0,0,1,.7,1.5,5.58,5.58,0,0,0,.5.8,0.76,0.76,0,0,1,.1.4,1.69,1.69,0,0,0,.2.5l0.1,0.1c0.2,0.3.2,0.5,0.4,0.8s0.3,0.4.4,0.6,0.2,0.5.3,0.7a1.38,1.38,0,0,1,.3.4,2.57,2.57,0,0,1,.2.5,2.19,2.19,0,0,0,.3.5v0.5c0.1,0.3.3,0.5,0.4,0.8l0.3,0.9,0.9,1.8a4.87,4.87,0,0,1,.3.7l0.3,0.7a15.53,15.53,0,0,1,.8,1.4,12.61,12.61,0,0,1,.9,1.3,4.87,4.87,0,0,0,.8,1,7.91,7.91,0,0,1,.8,1.1l0.2,0.3a2.57,2.57,0,0,1,.2.5l0.1,0.2a2,2,0,0,1,.8,1l0.3,0.3a2.18,2.18,0,0,0,.5.3l0.4,0.4a5.3,5.3,0,0,1,.6,1l0.3,0.4a9.24,9.24,0,0,0,1.4,1.4l0.2,0.2c0.1,0.1,0,.2.1,0.2a1.27,1.27,0,0,0,.6.4l0.3,0.2a8.7,8.7,0,0,0,1.1.9c0.2,0.2.8,0.4,1,.6a17.1,17.1,0,0,0,1.4,1.1l0.5,0.3a2.19,2.19,0,0,1,.5.3c0.2,0.1.2,0.4,0.4,0.5a0.75,0.75,0,0,0,.5.1l0.3,0.3c0.1,0.1.3,0.1,0.4,0.2l0.1,0.1a2.36,2.36,0,0,1,.5.5c0.1,0.1,1.2.7,1.6,0.9s2,0.9,2.4,1.2a8.84,8.84,0,0,0,1.1.8,0.32,0.32,0,0,1,.3.3c0.1,0,.3.1,0.4,0.1s0.7,0.6,1,.8,2.1,1.4,2.8,1.9,1.9,1.5,2.3,1.7a6.72,6.72,0,0,0,1.1.7l0.2,0.2c0.2,0.2.5,0.3,0.7,0.5a0.53,0.53,0,0,0,.3.2,3.4,3.4,0,0,1,.6.6l0.2,0.2a2.18,2.18,0,0,0,.8.5l0.2,0.1c0.1,0.1.2,0.3,0.3,0.4l0.1,0.1a1.69,1.69,0,0,0,.5.2,0.34,0.34,0,0,1,.2.3,0.52,0.52,0,0,0,.4.2c0.1,0.1.3,0.4,0.4,0.5a8,8,0,0,1,1.4.9,8.12,8.12,0,0,0,1,.9l0.2,0.2c0.1,0.1.1,0.2,0.2,0.3l0.1,0.1,0.5,0.5a4.17,4.17,0,0,1,.6.8l0.1,0.2c0.1,0.2.4,0.5,0.7,0.9l0.1,0.3,0.4,0.7c-0.4.5-1.2,1.9-1.4,2.2s-0.5.8-.6,0.9a0.6,0.6,0,0,0-.1.4,2.07,2.07,0,0,1-.2.6c0,0.1-.2.8-0.4,1.6l-0.1.7v0.5c0,0.5-.3.9-0.3,1.4v0.5c-0.1.5-.2,1.1-0.3,1.6s-0.1.6-.1,0.8v0.5c-0.1.5-.2,1.5-0.3,2.1l-0.1.7-0.1,1.1c-0.3,1.1-.6,2.4-0.7,2.8l-0.2.5c-0.1.4-.4,0.7-0.5,1.2v0.4a5.28,5.28,0,0,1-.3,1.2v0.5l-0.1.1a5.28,5.28,0,0,0-.1,1.2,2.26,2.26,0,0,0,.7,2.1c0.6,0.6,1.4,1.4,2.5.9a2.41,2.41,0,0,0,1-1l0.2-.3a3.33,3.33,0,0,0,.9-1.1l0.1-.3c0.1-.3.2-0.5,0.3-0.8l0.4-.9c0.3-1.1.5-2.3,0.6-2.7l0.1-.4,0.1-.5a5.39,5.39,0,0,1,.6-1.3,13.32,13.32,0,0,0,.6-1.4l0.4-.5,0.4-.5a7,7,0,0,1,1.5-1.3,1.93,1.93,0,0,1,1,.3c0.2,0.1,1.8.6,2.3,0.9a13.47,13.47,0,0,1,1.2,1.2,1.49,1.49,0,0,1,.1.6c0,0.1.2,0.3,0.2,0.4a0.56,0.56,0,0,1,0,.6,0.59,0.59,0,0,0,.2.5,5.2,5.2,0,0,1-.3.5v0.4c0,0.1-.1.2-0.1,0.3v0.4c-0.1.4-.2,0.7-0.3,1s-0.1.7-.2,1l-0.1.1a1.85,1.85,0,0,0-.2.7c0,0.1-.4,1-0.5,1.3a1.4,1.4,0,0,1-1.2.8l-0.5.1a3.58,3.58,0,0,0-1.1.4l-0.6.3c-0.6.4-1.4,0.9-1.6,1.1l-0.1.2a2.64,2.64,0,0,0,0,.9,2.18,2.18,0,0,0,.4.5,1.94,1.94,0,0,0,1.3.3,2.27,2.27,0,0,1,.4-0.1,2.72,2.72,0,0,1,.9,0c0.2,0,.4.1,0.6,0.1H335c0.3,0,0,.3-0.2.4a4.23,4.23,0,0,0-.7.5c-0.1.1-.9,0.4-1.1,0.6s-0.8.8-1.3,1.4l0.2,0.8a1.53,1.53,0,0,0,.5.7l0.2,0.2a1.38,1.38,0,0,0,1,0c0-.1.2-0.2,0.2-0.1a1.81,1.81,0,0,0,1.2-.3l0.4-.2a1.27,1.27,0,0,1,.6-0.1,3.33,3.33,0,0,1,.6-0.3,2,2,0,0,0,.7-0.1l0.4-.1c0.4,0,.5.4,0.3,0.5a4.43,4.43,0,0,0-.9.7l-0.3.4a3.75,3.75,0,0,0-.7,1.2,1.91,1.91,0,0,0,.5,1,0.68,0.68,0,0,0,.3.4,2.27,2.27,0,0,0,.4.1,1.66,1.66,0,0,0,1.2,0,2.77,2.77,0,0,0,.8-0.5l0.2-.2a9.37,9.37,0,0,0,1.6-.4c0.2-.1.8-0.5,1.2-0.7l0.4-.2,0.9-.6a0.75,0.75,0,0,1,.5-0.1,2.36,2.36,0,0,0,.5-0.5l0.4-.4a12.76,12.76,0,0,0,.4-1.3,1.06,1.06,0,0,0,.2-0.5c0.1-.1.3,0,0.4,0.3l0.1,0.2a22.11,22.11,0,0,1,.5,2.5v1.3a4.35,4.35,0,0,0,.4.7c0.1,0.2,0,.5.1,0.7l0.1,0.2a2.93,2.93,0,0,0,.4.8l0.2,0.2,0.7,0.7a7.73,7.73,0,0,0,1.9-1.1,0.86,0.86,0,0,1,.3-0.4l0.1-.3a1.69,1.69,0,0,0,.2-0.5c0-.2-0.2-0.5-0.2-0.7s0.1-.2.1-0.3c0.1-.3,0-0.7.1-0.9s0.2-.4.2-0.6a1.63,1.63,0,0,1,0-.7C351.4,359.8,351.5,359.7,351.5,359.6Z" transform="translate(-33.8 -21.3)"/><path class="cls-2" d="M185.7,61.8l-1.6-33.9a19.36,19.36,0,0,0-1-5.6l4.3-1a25.39,25.39,0,0,1,1,6.5L190,61.7Zm17.2-.8L189.5,46l9.9-12.4,5.4-.3L194.5,45.8l14.1,15Z" transform="translate(-33.8 -21.3)"/><path class="cls-2" d="M216.6,48.2v0.7a11.1,11.1,0,0,0,.9,6.1,7.81,7.81,0,0,0,6.6,3.8,9,9,0,0,0,6.9-2.2l1.5,2.9a13.81,13.81,0,0,1-9.5,2.9c-7.6-.5-11.9-6.3-11.3-15.4,0.3-4.6,1.5-7.6,3.9-10.2a10.17,10.17,0,0,1,8.5-3.3,10.5,10.5,0,0,1,7.3,3.4c2.2,2.6,2.8,5.2,2.4,11.8v0.6Zm11.9-8.7a5.77,5.77,0,0,0-4.8-2.7c-3.9-.2-6.3,2.5-6.9,8.2l12.6,0.8C229.6,42.7,229.3,40.9,228.5,39.5Z" transform="translate(-33.8 -21.3)"/><path class="cls-2" d="M256.4,66.1l3.3-18.4c0.5-2.9.4-3.6-.2-4.7a4,4,0,0,0-2.8-1.7c-2.2-.4-5.9.7-8.2,2.4L244.9,64l-4.1-.8,3.8-20.9c0.7-3.9,0-5.9,0-5.9l4.3-.4a11.29,11.29,0,0,1,.2,4.4c3.3-2.3,6.4-3.2,9.3-2.6a7.23,7.23,0,0,1,5.9,5.2,7.36,7.36,0,0,1,.1,3.3l-3.7,20.6Z" transform="translate(-33.8 -21.3)"/><path class="cls-2" d="M285.5,74l5.6-17.8c0.9-2.8.9-3.6,0.4-4.7a3.94,3.94,0,0,0-2.6-2c-2.1-.7-5.9,0-8.4,1.4l-6.1,19.6-4-1.3,6.3-20.3c1.2-3.8.7-5.9,0.7-5.9l4.4,0.1a12.46,12.46,0,0,1-.3,4.4c3.6-1.9,6.8-2.3,9.6-1.5a7.15,7.15,0,0,1,5.2,5.9,9.26,9.26,0,0,1-.3,3.3l-6.3,20Z" transform="translate(-33.8 -21.3)"/><path class="cls-2" d="M298.9,79.1l10.6-25.3,4.4,1.1-10.8,26Zm14.7-29.3a3.38,3.38,0,0,1-1.8-4.4,3.43,3.43,0,0,1,4.4-1.9,3.38,3.38,0,0,1,1.8,4.4A3.32,3.32,0,0,1,313.6,49.8Z" transform="translate(-33.8 -21.3)"/><path class="cls-2" d="M318.3,88.9a20.31,20.31,0,0,1-7.7-7.1l2.9-2.1a16.61,16.61,0,0,0,6.6,6.3c3,1.5,5.8.9,7.1-1.7,1.1-2.2.5-4.1-2-6.1L322.5,76c-3.6-2.9-4.5-6.5-2.7-9.9,2.3-4.4,7.5-5.7,12.6-3.1a18.28,18.28,0,0,1,6.5,5.8L336,71a16.08,16.08,0,0,0-5.2-4.9c-2.8-1.4-5.5-.8-6.7,1.7-1,1.9-.6,3.5,1.7,5.4l2.9,2.4q5.85,4.8,3,10.2C329.3,90.4,323.9,91.7,318.3,88.9Z" transform="translate(-33.8 -21.3)"/><path class="cls-2" d="M347.7,105.5L358,90c1.6-2.4,1.8-3.2,1.7-4.4a4.27,4.27,0,0,0-1.9-2.7c-1.8-1.2-5.7-1.7-8.5-1L337.9,99l-3.5-2.3L346.2,79c2.2-3.3,2.3-5.4,2.3-5.4l4.1,1.4a10.18,10.18,0,0,1-1.6,4.1c4-.8,7.2-0.4,9.6,1.3a7.43,7.43,0,0,1,3.4,7.1,7.89,7.89,0,0,1-1.2,3L351.3,108Z" transform="translate(-33.8 -21.3)"/><path class="cls-2" d="M370.2,106.2l-0.4.5c-1.7,2-2.7,3.7-2.9,5.4a7.69,7.69,0,0,0,3,7,9.49,9.49,0,0,0,6.8,2.4l-0.5,3.2a13.74,13.74,0,0,1-9.3-3.4c-5.8-5-5.7-12.1.2-19.1,3-3.5,5.7-5.2,9.3-5.8a10.71,10.71,0,0,1,8.8,2.4,10.11,10.11,0,0,1,3.8,7.1c0.2,3.4-.9,5.9-5.1,10.9l-0.4.5Zm14.8,0.2a5.85,5.85,0,0,0-2.2-5.1c-3-2.5-6.5-1.8-10.4,2.4l9.6,8.2C383.8,109.6,384.7,108,385,106.4Z" transform="translate(-33.8 -21.3)"/><path class="cls-2" d="M404.7,123.1l-4-4.1L388,131.4c-2.2,2.1-2.4,3.5-.5,5.4a5.36,5.36,0,0,0,2.3,1.6l-1.6,2.4a10.36,10.36,0,0,1-4.2-2.7,8.21,8.21,0,0,1-2-3.1c-0.7-2,.1-3.8,2.1-5.7l13.5-13.2-2.5-2.6,2.3-2.3,2.5,2.6c1.9-1.9,5.3-4.6,5.3-4.6l3.9,2.6A64.8,64.8,0,0,0,403,117l4.8,5Z" transform="translate(-33.8 -21.3)"/><path class="cls-2" d="M407.1,164.5l-2.6-3.4,11.9-16.2c1.1-1.5,1.9-2.5,1.9-2.5l-0.1-.1s-1.7.9-2.6,1.3l-18.9,7.7-2.5-3.2,17-23,3.4,2.8L403,142.6c-1.6,2-3,3.6-3,3.6l0.1,0.1s1.8-.9,3.7-1.7l17.3-7.2,2.9,3.7-11.5,15.1c-0.9,1.2-2.5,3.4-2.5,3.4l0.1,0.1s2.5-1.2,3.5-1.7l17.3-8,2.8,3.6Z" transform="translate(-33.8 -21.3)"/><path class="cls-2" d="M427.6,171.7l-0.6.3c-2.2,1.3-3.8,2.6-4.6,4.1-1.3,2.5-.8,5.2.5,7.6a9.24,9.24,0,0,0,5.7,4.5L427,191a13.93,13.93,0,0,1-7.7-6.3c-3.9-6.6-1.4-13.4,6.5-18,4-2.3,7.1-3,10.7-2.4a10.25,10.25,0,0,1,7.5,5.2,10.43,10.43,0,0,1,1.2,8c-0.9,3.3-2.8,5.3-8.4,8.6l-0.5.3Zm13.9,5.1a5.73,5.73,0,0,0-.4-5.5c-2-3.4-5.6-3.9-10.6-1.2l6.4,10.9C439.4,179.4,440.7,178.2,441.5,176.8Z" transform="translate(-33.8 -21.3)"/><path class="cls-2" d="M454.5,201a3,3,0,0,0-.3-1.2,6.69,6.69,0,0,0-3.7-3.3c-1.7-.6-2.6-0.6-4.6.4l-15.7,7.3-1.8-3.9,19.3-9c3.7-1.7,4.9-3.3,4.9-3.3l2.9,3.4a9.45,9.45,0,0,1-3.7,2.7,9.82,9.82,0,0,1,7.4,5.1,6.39,6.39,0,0,1,.4,1.5Z" transform="translate(-33.8 -21.3)"/><path class="cls-2" d="M435.4,216.1l32-11.4a18.09,18.09,0,0,0,5.1-2.6l2.2,3.8a22,22,0,0,1-5.9,2.9l-32,11.4Zm5.8,16.1L451.6,215l14.8,5.9,1.8,5.1-14.9-6.2-10.2,17.8Z" transform="translate(-33.8 -21.3)"/><path class="cls-1" d="M470.5,267.1l-0.7-3.7c3.1-1.2,4.3-2.5,3.7-5.4-0.8-4.1-4-6.4-12.1-4.9-8.7,1.7-11.2,4.7-10.2,9.8,0.6,3.3,2,4.6,4.4,6.7l-1.3,1.7a12.52,12.52,0,0,1-6.3-8.6c-1.3-6.7,2.1-13,11.2-14.8,9.4-1.8,15.4,2.6,16.8,9.7a14.42,14.42,0,0,1-.6,8.6Z" transform="translate(-33.8 -21.3)"/><path class="cls-1" d="M451.5,285.2l20.9-10c2.8-1.4,3.4-2.2,3.5-4.4l1.9-.2,1.1,12.2-1.9.2c-0.3-2.6-.9-3.5-1.9-3.4a4.66,4.66,0,0,0-1.6.5l-11.9,5.5a40.55,40.55,0,0,1-4.7,1.7v0.2c0.7,0.1,3.2.5,4.9,0.9l12.7,3.3a3.4,3.4,0,0,0,1.6.2c1.1-.1,1.5-1,1.3-3.7l1.9-.2,0.9,10.4-1.9.2c-0.5-2.2-1.1-2.8-4.2-3.7l-22.3-6.1Z" transform="translate(-33.8 -21.3)"/><path class="cls-1" d="M454.5,327.8l-1.8-.1a13,13,0,0,1-.5-3.8c0.1-3.9,1.7-4.7,4.1-4.9a9,9,0,0,1-4.2-7.7c0.1-5.3,3.1-8.8,8.2-8.7,6.6,0.2,8.8,6.1,8.5,14.7a12.1,12.1,0,0,1-.1,1.9l2.4,0.1c4.8,0.1,6.9-.9,7-4.8,0.1-4.6-2.3-6-4.8-6.6l0.1-3.5,4.9,0.1a24.51,24.51,0,0,1,2.5,10.4c-0.2,6.2-3.1,9.5-9.6,9.4-1.7,0-6.4-.4-11.4-0.5C455.6,323.7,454.8,324.2,454.5,327.8Zm11.6-10.7c0.2-6.3-1.5-9.1-5.7-9.2-3.9-.1-5.2,1.4-5.3,4.6-0.1,2.6,1.7,4.8,3.9,6.1l6.9,0.4C466,318.3,466,317.8,466.1,317.1Z" transform="translate(-33.8 -21.3)"/><path class="cls-1" d="M446.8,371.7l-1.8-.4,2.5-12.3,1.8,0.4c-0.5,3.5,0,4,2.6,4.5l13.8,2.8c3.2,0.7,4.7-.4,5.3-3.1,0.7-3.3-.2-5.6-1.9-8.2l-14.8-3c-2.7-.5-3.3-0.3-4.2,3.1l-1.8-.4,2.6-12.5,1.8,0.4c-0.4,3.1-.1,3.9,3,4.6l13.3,2.7c4,0.8,4.7.2,5.4-3l1.6,0.3,0.8,7.4-0.2.8a15.73,15.73,0,0,1-4.9,0c2.1,3,3.6,6.1,2.8,10.2-0.9,4.3-4,6.8-8.8,5.8l-14.4-2.9C448.2,368.3,447.6,368.9,446.8,371.7Z" transform="translate(-33.8 -21.3)"/><path class="cls-1" d="M441.9,396.5l-2.2.5a16.29,16.29,0,0,1-.5-10.5c2.5-7.5,9.1-10.3,17.7-7.5s11.9,9.3,9.8,15.8-8.1,9-16.1,6.3l-1.4-.5,5.6-16.7c-7.6-2.4-11-.6-12.8,4.9A14.37,14.37,0,0,0,441.9,396.5Zm15.5-11.7-3.9,11.7c6.4,2.1,9.4,1.3,10.7-2.7C465.4,390.3,464,387.4,457.4,384.8Z" transform="translate(-33.8 -21.3)"/><path class="cls-1" d="M447.3,405.7c7.8,3.7,11.3,10,8.3,16.4a10.13,10.13,0,0,1-6.2,5.4l7.1,3.3c3.7,1.7,4.6,1.1,6-1.8l1.6,0.8-2,8-0.5,1.1-29.6-14c-3.7-1.7-4.5-1.2-6.1,2l-1.5-.7,1.2-7.2,0.4-.8a15.65,15.65,0,0,1,4.9,1,11.44,11.44,0,0,1-.7-9.5C432.5,404.5,438.2,401.4,447.3,405.7Zm-14.7,6c-1.1,2.3-.7,5.1.6,8.1l13.6,6.4a9.06,9.06,0,0,0,5.7-4.7c1.8-3.8,1-7-6.8-10.7S434.4,407.8,432.6,411.7Z" transform="translate(-33.8 -21.3)"/><path class="cls-1" d="M414.5,449h-2.2c-0.3-3.3-.1-7,2-10.3,4.2-6.7,11.2-7.9,18.9-3.1s9.4,11.9,5.8,17.7-9.9,6.8-17.1,2.4l-1.3-.8,9.4-15c-6.9-4.2-10.5-3.2-13.6,1.7A16,16,0,0,0,414.5,449Zm17.8-7.7-6.5,10.5c5.7,3.6,8.8,3.5,11.1-.1C438.9,448.5,438.1,445.4,432.3,441.3Z" transform="translate(-33.8 -21.3)"/><path class="cls-1" d="M419.8,480.3a6.79,6.79,0,0,1-1.2,1.2l-3.6-4.3a3.44,3.44,0,0,0,1.3-1.2c2.8-3.6,2.3-5.9-2-9.1l-7.7-5.9c-2.5-1.9-3.3-1.8-5.9,1.4l-1.5-1.1,8.3-10.8,1.5,1.1c-1.7,2.6-1.8,3.5.7,5.4l10.8,8.2c3.2,2.5,4.1,2.2,6.2-.4l1.3,1-2.5,7-0.5.7a18,18,0,0,1-5.6-3.1C420.9,474.4,421.6,477.9,419.8,480.3Z" transform="translate(-33.8 -21.3)"/><path class="cls-1" d="M393.3,477.1c-2.4-2.2-3.2-2.2-5.7.4l-1.4-1.2,8.8-9.9,1.4,1.2c-2.1,2.7-2.2,3.5.2,5.6l19.9,17.6c3,2.7,4.1,2.3,6.5-.2l1.3,1.2-4.1,7-0.6.6a21.5,21.5,0,0,1-4.5-3.1Z" transform="translate(-33.8 -21.3)"/><path class="cls-1" d="M366.9,497.7l-1.3-1.3a11.82,11.82,0,0,1,2.4-3.1c2.9-2.7,4.6-2.1,6.4-.6a8.66,8.66,0,0,1,2.5-8.4c3.9-3.6,8.4-4,11.9-.3,4.5,4.8,1.9,10.5-4.5,16.4-0.5.5-.9,0.8-1.4,1.3l1.7,1.8c3.3,3.5,5.5,4.2,8.4,1.6,3.4-3.2,2.7-5.9,1.3-8l2.5-2.4,3.4,3.6a23.71,23.71,0,0,1-5.6,9.1c-4.5,4.2-9,4.5-13.4-.2-1.1-1.2-4.2-4.8-7.7-8.5C370.6,495.6,369.7,495.5,366.9,497.7Zm15.7,0.7c4.6-4.3,5.4-7.4,2.5-10.5-2.7-2.9-4.7-2.7-7-.5-1.9,1.8-2.2,4.6-1.6,7.1l4.6,5.2A10,10,0,0,0,382.6,498.4Z" transform="translate(-33.8 -21.3)"/><path class="cls-1" d="M341,516.7l-1.1-1.5,10.1-7.4,1.1,1.5c-2.7,2.2-2.7,2.9-1.1,5.1l8.3,11.3c1.9,2.6,3.8,2.8,5.9,1.3,2.7-2,3.6-4.3,4.1-7.3l-8.9-12.2c-1.6-2.2-2.3-2.5-5.2-.5l-1.1-1.5,10.3-7.6,1.1,1.5c-2.4,2-2.7,2.9-.8,5.4l8,10.9c2.4,3.3,3.3,3.2,6,1.4l1,1.3-4.4,6-0.7.5a16.74,16.74,0,0,1-3.6-3.3c-0.5,3.6-1.4,6.9-4.8,9.4-3.6,2.6-7.6,2.3-10.4-1.6l-8.7-11.8C344.4,515.2,343.5,515.2,341,516.7Z" transform="translate(-33.8 -21.3)"/><path class="cls-1" d="M343.4,528.7c4.2,7.6,3.2,14.8-3,18.2a10.1,10.1,0,0,1-8.2.7l3.8,6.8c1.9,3.5,3,3.6,6,2.1l0.9,1.6-6.3,5.3-1,.6-15.8-28.7c-1.9-3.5-2.9-3.6-6.1-2l-0.8-1.5,5.2-5.1,0.7-.4a17.14,17.14,0,0,1,3.4,3.6c0.5-3.4,2.5-6.7,5-8.1C332.1,519.1,338.5,519.9,343.4,528.7Zm-15.5-3.8c-2.2,1.2-3.5,3.7-4.3,6.9l7.2,13.1a8.64,8.64,0,0,0,7.4-.5c3.7-2,4.9-5,.8-12.6C334.8,524.4,331.7,522.8,327.9,524.9Z" transform="translate(-33.8 -21.3)"/><line class="cls-3" x1="9.6" y1="276.7" x2="205.9" y2="109.1"/><path class="cls-3" d="M239.7,130.4" transform="translate(-33.8 -21.3)"/><path class="cls-3" d="M152.9,204.6" transform="translate(-33.8 -21.3)"/><line class="cls-3" x1="175.4" y1="276.9" x2="47.5" y2="126.4"/><path class="cls-3" d="M81.1,147.9" transform="translate(-33.8 -21.3)"/><path class="cls-3" d="M128.4,203.2" transform="translate(-33.8 -21.3)"/><path class="cls-3" d="M129.9,336" transform="translate(-33.8 -21.3)"/><line class="cls-3" x1="96" y1="315.1" x2="114" y2="88.2"/><path class="cls-3" d="M34.8,207.9" transform="translate(-33.8 -21.3)"/><path class="cls-3" d="M122.9,214.8" transform="translate(-33.8 -21.3)"/><line class="cls-3" x1="205.2" y1="202.4" x2="1" y2="186.6"/><line class="cls-3" x1="9.6" y1="276.7" x2="1" y2="186.6"/><line class="cls-3" x1="96" y1="315.2" x2="9.6" y2="276.7"/><line class="cls-3" x1="1.1" y1="186.6" x2="47.5" y2="126.4"/><line class="cls-3" x1="96" y1="315.2" x2="1" y2="186.6"/><line class="cls-3" x1="9.6" y1="276.7" x2="47.5" y2="126.4"/><line class="cls-3" x1="175.4" y1="276.9" x2="9.6" y2="276.7"/><line class="cls-3" x1="96" y1="315.2" x2="175.4" y2="276.9"/><line class="cls-3" x1="175.4" y1="276.9" x2="205.2" y2="202.4"/><line class="cls-3" x1="205.9" y1="109.1" x2="205.2" y2="202.4"/><line class="cls-3" x1="114" y1="88.2" x2="205.9" y2="109.1"/><line class="cls-3" x1="47.5" y1="126.4" x2="114" y2="88.2"/><line class="cls-3" x1="205.2" y1="202.4" x2="114" y2="88.2"/><line class="cls-3" x1="175.4" y1="276.9" x2="114" y2="88.2"/><line class="cls-3" x1="205.9" y1="109.1" x2="175.4" y2="276.9"/><line class="cls-3" x1="205.2" y1="202.4" x2="96" y2="315.2"/><line class="cls-3" x1="205.2" y1="202.4" x2="9.6" y2="276.7"/><line class="cls-3" x1="205.2" y1="202.4" x2="47.5" y2="126.4"/><line class="cls-3" x1="205.9" y1="109.1" x2="47.5" y2="126.4"/><line class="cls-3" x1="205.9" y1="109.1" x2="1" y2="186.6"/><line class="cls-3" x1="175.4" y1="276.9" x2="1" y2="186.6"/><line class="cls-3" x1="9.6" y1="276.7" x2="114" y2="88.2"/><line class="cls-3" x1="96" y1="315.2" x2="47.5" y2="126.4"/><line class="cls-3" x1="1" y1="186.6" x2="114" y2="88.3"/><line class="cls-3" x1="205.9" y1="109.1" x2="96" y2="315.1"/></svg>