<svg id="header-illustratie" xmlns="http://www.w3.org/2000/svg" width="581.136" height="392.481" viewBox="0 0 581.136 392.481">
  <g id="freepik--Shadows--inject-143" transform="translate(137.647 338.066)">
    <ellipse id="Ellipse_636" data-name="Ellipse 636" cx="221.744" cy="27.207" rx="221.744" ry="27.207" transform="translate(0)" fill="#ebebeb"/>
  </g>
  <g id="freepik--Floor--inject-143" transform="translate(0 290.324)">
    <path id="Path_2143" data-name="Path 2143" d="M46.67,338.949l71.7-.259,71.713-.1L333.5,338.41l143.409.183,71.713.1,71.7.259-71.7.259-71.713.1-143.409.183L190.088,339.3l-71.713-.1Z" transform="translate(-46.67 -338.41)" fill="#263238"/>
  </g>
  <g id="freepik--Plant--inject-143" transform="translate(31.522 141.007)">
    <ellipse id="Ellipse_638" data-name="Ellipse 638" cx="39.647" cy="7.74" rx="39.647" ry="7.74" transform="translate(4.792 171.15)" fill="#ebebeb"/>
    <path id="Path_2144" data-name="Path 2144" d="M78.854,287.352a68.438,68.438,0,0,1,2.21,12.558c-.108.2-.086.981,0,.765,0,.69,1.078.571,1.078-.108v-1.326c2.415-3.007,6-4.969,8.882-7.61A16.686,16.686,0,0,0,95.9,283.87c2.393-8.225.151-16.945,3.018-25.149,2.479-7.082,6.92-13.226,10.682-19.64,3.956-6.78,6.888-13.906,7.179-21.85.237-6.08-.5-14.175-5.12-18.735-4.915-4.829-11-1.207-14.757,3.094C86,214.1,80.956,229.908,78.919,246.066c-1.078,8.947-2.285,17.948-2.016,26.949a71.844,71.844,0,0,0,1.951,14.337Z" transform="translate(-40.882 -196.196)" fill="#61bb8d"/>
    <path id="Path_2145" data-name="Path 2145" d="M80.748,301.6a154.223,154.223,0,0,1,.3-25.343.108.108,0,0,1,0-.086c-.14-6.856-.679-13.668-.41-20.535a122.2,122.2,0,0,1,3.007-22.012c0-.086.151-.065.14,0a143.12,143.12,0,0,0-2.382,21.559c-.14,3.87-.119,7.75.086,11.609.065,1.261.183,2.533.269,3.794h0a135.379,135.379,0,0,1,20.384-53.9c.14-.216.528,0,.4.248a140.738,140.738,0,0,0-16.633,39.981c5.239-9.7,13.151-17.689,19.026-27.024,0,0,.119,0,.086.054-5.271,10.391-14.013,18.584-19.543,28.814q-1.455,6.252-2.339,12.623a140.19,140.19,0,0,0-1.261,17.527,198.076,198.076,0,0,0,9.109-17.991c.075-.162.313-.054.259.119-2.221,6.554-5.206,13.614-9.389,19.209,0,4.139.1,8.3.345,12.44.647,11.06,2.544,21.979,3.417,33.007a.259.259,0,0,1-.507.054A253.575,253.575,0,0,1,80.748,301.6Z" transform="translate(-40.609 -194.606)" fill="#263238"/>
    <path id="Path_2146" data-name="Path 2146" d="M91.976,216.3c0-.075.151,0,.119,0-2.016,5.595-3.158,11.254-4.624,16.978a.207.207,0,1,1-.41-.065C87.653,227.459,89.723,221.66,91.976,216.3Z" transform="translate(-40.088 -194.631)" fill="#263238"/>
    <path id="Path_2147" data-name="Path 2147" d="M44.04,238.452A83.922,83.922,0,0,0,48.686,248c3.633,6.608,7.427,12.655,8.117,20.352.313,3.439.42,6.888,1.466,10.2a30.678,30.678,0,0,0,4.1,8.02c3.945,5.745,8.871,10.693,12.526,16.654A69.99,69.99,0,0,1,83.213,323.3c.1.388.7.28.614-.108a.129.129,0,0,1,0-.086.161.161,0,0,0,0-.086c.582-16.493-.733-33.125-5.767-48.928a170.669,170.669,0,0,0-8-20.352c-2.695-5.724-6.058-11.243-10.779-15.522-3.072-2.76-9.7-8.009-14.1-5.228C43.07,234.313,43.232,236.426,44.04,238.452Z" transform="translate(-43.484 -193.39)" fill="#61bb8d"/>
    <path id="Path_2148" data-name="Path 2148" d="M59.649,274.873a134.347,134.347,0,0,0,9.583,13.776c1.6,2.091,3.234,4.15,4.818,6.241.744.992,1.6,1.973,2.285,3.029q-.647-2.609-1.3-5.206c-2.156-8.333-4.172-16.741-7.341-24.793a167.3,167.3,0,0,0-11.459-22.454c-.108-.194.194-.334.313-.14,3.482,5.724,7.017,11.459,9.949,17.5a92.008,92.008,0,0,1,4.226,10.391,160.133,160.133,0,0,0-5.627-22.195.054.054,0,0,1,.108,0,75.726,75.726,0,0,1,5.875,23.068h0q1.067,3.234,1.983,6.468c2.6,9.227,4.883,18.562,7,27.919a99.883,99.883,0,0,0-1.585-18.325c0-.14.183-.173.216,0a58.123,58.123,0,0,1,1.585,19.338q1.218,5.336,2.339,10.682c1.628,7.61,3.622,15.35,4.57,23.068a.162.162,0,0,1-.313.054c-1.078-4.161-1.811-8.483-2.738-12.7s-1.886-8.44-2.867-12.655q-2.156-9.216-4.463-18.379c-1.078-2.242-3-4.236-4.473-6.112q-2.442-3.088-4.829-6.22a93.384,93.384,0,0,1-7.944-12.289A.086.086,0,0,1,59.649,274.873Z" transform="translate(-42.492 -192.374)" fill="#263238"/>
    <path id="Path_2149" data-name="Path 2149" d="M58.751,266.182a86.061,86.061,0,0,1,9.389,14.9c0,.065-.075.14-.119.076-3.158-4.948-6.263-9.939-9.41-14.886C58.557,266.193,58.7,266.107,58.751,266.182Z" transform="translate(-42.306 -190.743)" fill="#263238"/>
    <path id="Path_2150" data-name="Path 2150" d="M126.912,253.882c-2.156,3.687-4.581,8.106-3.665,12.526.582,2.8,2.63,5.066,3,7.923.83,6.306-5.39,10.467-9.993,13.442-11.329,7.438-26.862,14.013-28.921,29.245-.086.539-1.013.4-.938-.129a.312.312,0,0,1,0-.1s-.065,0-.065-.086a58.112,58.112,0,0,1,.216-23.187c1.692-7.826,5.109-14.854,9.141-21.731,6.813-11.62,14.013-23.532,24.34-32.446,2.857-2.458,8.7-6.9,10.973-1.337S129.531,249.4,126.912,253.882Z" transform="translate(-40.228 -193.146)" fill="#61bb8d"/>
    <path id="Path_2151" data-name="Path 2151" d="M116.581,276.586c-7.546,8.128-19.4,12.687-25.871,21.8a91.27,91.27,0,0,1,19.92-37.416.293.293,0,1,0-.41-.42,73.883,73.883,0,0,0-16.277,23.575,105.985,105.985,0,0,1,7.007-17.926.194.194,0,0,0-.334-.194,68.6,68.6,0,0,0-7.546,20.158c-8.516,20.621-9.3,44.81-7.546,66.542a.243.243,0,0,0,.485,0c-.485-17.129-.216-34.559,3.891-51.289.086-.345.183-.69.269-1.078,7.039-9.8,18.929-14.347,26.571-23.65C116.786,276.618,116.656,276.489,116.581,276.586Z" transform="translate(-40.267 -191.186)" fill="#263238"/>
    <path id="Path_2152" data-name="Path 2152" d="M116.741,268.944c-3.935,3.611-7.826,7.319-11.771,10.93v.076a57.692,57.692,0,0,0,11.954-10.78C117.108,269.008,116.86,268.793,116.741,268.944Z" transform="translate(-38.691 -190.529)" fill="#263238"/>
    <path id="Path_2153" data-name="Path 2153" d="M117.324,254.4a123.333,123.333,0,0,1-11.793,16.169.069.069,0,1,0,.1.1A57.023,57.023,0,0,0,117.486,254.5a.119.119,0,0,0-.162-.1Z" transform="translate(-38.649 -191.66)" fill="#263238"/>
    <path id="Path_2154" data-name="Path 2154" d="M102.5,363.609H67.96l4.657-46.46H97.183Z" transform="translate(-41.576 -186.768)" fill="#455a64"/>
    <path id="Path_2155" data-name="Path 2155" d="M97.763,324.7H71.58l.755-7.546H96.9Z" transform="translate(-41.294 -186.768)" fill="#263238"/>
    <rect id="Rectangle_197" data-name="Rectangle 197" width="32.371" height="7.416" transform="translate(27.472 125.23)" fill="#455a64"/>
  </g>
  <g id="freepik--Lamp--inject-143" transform="translate(113.738)">
    <rect id="Rectangle_198" data-name="Rectangle 198" width="55.601" height="6.317" transform="translate(7.082 284.05)" fill="#455a64"/>
    <rect id="Rectangle_199" data-name="Rectangle 199" width="6.586" height="237.655" transform="translate(31.584 46.384)" fill="#455a64"/>
    <rect id="Rectangle_200" data-name="Rectangle 200" width="6.586" height="33.373" transform="translate(31.584 46.384)" fill="#263238"/>
    <path id="Path_2156" data-name="Path 2156" d="M324.013,134.792H254.27l5.066-16.654.183-.582L274.266,69.08h29.751l14.757,48.486h0l.162.561Z" transform="translate(-254.27 -69.08)" fill="#317ff6"/>
    <path id="Path_2157" data-name="Path 2157" d="M275.183,79.5a.464.464,0,0,1-.463.474.474.474,0,1,1,0-.938.463.463,0,0,1,.464.464Z" transform="translate(-252.719 -68.304)" fill="#fff"/>
    <path id="Path_2158" data-name="Path 2158" d="M283.153,79.5a.463.463,0,0,1-.463.474.474.474,0,1,1,0-.938A.463.463,0,0,1,283.153,79.5Z" transform="translate(-252.097 -68.304)" fill="#fff"/>
    <path id="Path_2159" data-name="Path 2159" d="M291.113,79.5a.44.44,0,1,1-.474-.464.474.474,0,0,1,.474.464Z" transform="translate(-251.467 -68.304)" fill="#fff"/>
    <path id="Path_2160" data-name="Path 2160" d="M299.073,79.5a.464.464,0,0,1-.464.474.474.474,0,1,1,0-.938.463.463,0,0,1,.464.464Z" transform="translate(-250.856 -68.304)" fill="#fff"/>
    <path id="Path_2161" data-name="Path 2161" d="M279.168,73.934a.474.474,0,0,1-.474.464.464.464,0,0,1-.464-.463.469.469,0,1,1,.938,0Z" transform="translate(-252.402 -68.739)" fill="#fff"/>
    <path id="Path_2162" data-name="Path 2162" d="M287.128,73.934a.464.464,0,0,1-.464.464.469.469,0,1,1,.464-.464Z" transform="translate(-251.782 -68.739)" fill="#fff"/>
    <path id="Path_2163" data-name="Path 2163" d="M295.068,73.934a.463.463,0,0,1-.463.464.469.469,0,1,1,.464-.464Z" transform="translate(-251.163 -68.739)" fill="#fff"/>
    <path id="Path_2164" data-name="Path 2164" d="M267.218,91.094a.474.474,0,0,1-.474.464.464.464,0,0,1-.464-.463.469.469,0,1,1,.938,0Z" transform="translate(-253.334 -67.401)" fill="#fff"/>
    <path id="Path_2165" data-name="Path 2165" d="M275.178,91.094a.463.463,0,0,1-.463.464.469.469,0,1,1,.464-.464Z" transform="translate(-252.713 -67.401)" fill="#fff"/>
    <path id="Path_2166" data-name="Path 2166" d="M283.148,91.094a.463.463,0,0,1-.463.464.469.469,0,1,1,.464-.464Z" transform="translate(-252.092 -67.401)" fill="#fff"/>
    <path id="Path_2167" data-name="Path 2167" d="M291.118,91.094a.474.474,0,0,1-.474.464.464.464,0,0,1-.464-.463.469.469,0,1,1,.938,0Z" transform="translate(-251.471 -67.401)" fill="#fff"/>
    <path id="Path_2168" data-name="Path 2168" d="M299.068,91.094a.464.464,0,0,1-.464.464.469.469,0,1,1,.464-.464Z" transform="translate(-250.851 -67.401)" fill="#fff"/>
    <path id="Path_2169" data-name="Path 2169" d="M307.068,91.094a.464.464,0,0,1-.464.464.469.469,0,1,1,.464-.464Z" transform="translate(-250.228 -67.401)" fill="#fff"/>
    <path id="Path_2170" data-name="Path 2170" d="M271.2,85.509a.474.474,0,1,1-.469-.4A.474.474,0,0,1,271.2,85.509Z" transform="translate(-253.024 -67.831)" fill="#fff"/>
    <path id="Path_2171" data-name="Path 2171" d="M279.168,85.514a.469.469,0,1,1-.938,0,.464.464,0,0,1,.464-.464.474.474,0,0,1,.474.464Z" transform="translate(-252.402 -67.835)" fill="#fff"/>
    <path id="Path_2172" data-name="Path 2172" d="M287.128,85.514a.469.469,0,1,1-.463-.464.463.463,0,0,1,.463.464Z" transform="translate(-251.782 -67.835)" fill="#fff"/>
    <path id="Path_2173" data-name="Path 2173" d="M295.068,85.514a.469.469,0,1,1-.463-.464.463.463,0,0,1,.463.464Z" transform="translate(-251.163 -67.835)" fill="#fff"/>
    <path id="Path_2174" data-name="Path 2174" d="M303.068,85.514a.469.469,0,1,1-.938,0,.464.464,0,0,1,.464-.464.474.474,0,0,1,.474.464Z" transform="translate(-250.539 -67.835)" fill="#fff"/>
    <path id="Path_2175" data-name="Path 2175" d="M267.213,102.674a.44.44,0,1,1-.474-.464.474.474,0,0,1,.474.464Z" transform="translate(-253.329 -66.498)" fill="#fff"/>
    <path id="Path_2176" data-name="Path 2176" d="M275.183,102.674a.464.464,0,0,1-.463.474.474.474,0,1,1,0-.938A.463.463,0,0,1,275.183,102.674Z" transform="translate(-252.719 -66.498)" fill="#fff"/>
    <path id="Path_2177" data-name="Path 2177" d="M283.153,102.674a.463.463,0,0,1-.463.474.474.474,0,1,1,0-.938A.463.463,0,0,1,283.153,102.674Z" transform="translate(-252.097 -66.498)" fill="#fff"/>
    <path id="Path_2178" data-name="Path 2178" d="M291.113,102.674a.44.44,0,1,1-.474-.464.474.474,0,0,1,.474.464Z" transform="translate(-251.467 -66.498)" fill="#fff"/>
    <path id="Path_2179" data-name="Path 2179" d="M299.073,102.674a.464.464,0,0,1-.464.474.474.474,0,1,1,0-.938.463.463,0,0,1,.464.464Z" transform="translate(-250.856 -66.498)" fill="#fff"/>
    <path id="Path_2180" data-name="Path 2180" d="M307.073,102.674a.464.464,0,0,1-.463.474.474.474,0,1,1,0-.938.463.463,0,0,1,.464.464Z" transform="translate(-250.233 -66.498)" fill="#fff"/>
    <path id="Path_2181" data-name="Path 2181" d="M271.2,97.109a.474.474,0,1,1-.211-.47A.474.474,0,0,1,271.2,97.109Z" transform="translate(-253.024 -66.938)" fill="#fff"/>
    <path id="Path_2182" data-name="Path 2182" d="M279.163,97.1a.44.44,0,1,1-.474-.474.474.474,0,0,1,.474.474Z" transform="translate(-252.398 -66.933)" fill="#fff"/>
    <path id="Path_2183" data-name="Path 2183" d="M287.133,97.1a.464.464,0,0,1-.464.464.474.474,0,1,1,0-.938.463.463,0,0,1,.463.474Z" transform="translate(-251.787 -66.933)" fill="#fff"/>
    <path id="Path_2184" data-name="Path 2184" d="M295.073,97.1a.463.463,0,0,1-.464.464.474.474,0,1,1,0-.938.463.463,0,0,1,.463.474Z" transform="translate(-251.168 -66.933)" fill="#fff"/>
    <path id="Path_2185" data-name="Path 2185" d="M303.063,97.1a.44.44,0,1,1-.474-.474.474.474,0,0,1,.474.474Z" transform="translate(-250.535 -66.933)" fill="#fff"/>
    <path id="Path_2186" data-name="Path 2186" d="M259.2,114.234a.442.442,0,0,1-.226.4l.183-.593a.42.42,0,0,1,.043.194Z" transform="translate(-253.904 -65.576)" fill="#fff"/>
    <path id="Path_2187" data-name="Path 2187" d="M267.218,114.264a.474.474,0,0,1-.474.464.463.463,0,0,1-.464-.463.469.469,0,1,1,.938,0Z" transform="translate(-253.334 -65.595)" fill="#fff"/>
    <path id="Path_2188" data-name="Path 2188" d="M275.178,114.264a.463.463,0,0,1-.463.464.469.469,0,1,1,.464-.464Z" transform="translate(-252.713 -65.595)" fill="#fff"/>
    <path id="Path_2189" data-name="Path 2189" d="M283.148,114.264a.463.463,0,0,1-.463.464.469.469,0,1,1,.464-.464Z" transform="translate(-252.092 -65.595)" fill="#fff"/>
    <path id="Path_2190" data-name="Path 2190" d="M291.118,114.264a.474.474,0,0,1-.474.464.463.463,0,0,1-.464-.464.469.469,0,1,1,.938,0Z" transform="translate(-251.471 -65.595)" fill="#fff"/>
    <path id="Path_2191" data-name="Path 2191" d="M299.068,114.264a.464.464,0,0,1-.464.464.469.469,0,1,1,.464-.464Z" transform="translate(-250.851 -65.595)" fill="#fff"/>
    <path id="Path_2192" data-name="Path 2192" d="M307.068,114.264a.464.464,0,0,1-.464.464.469.469,0,1,1,.464-.464Z" transform="translate(-250.228 -65.595)" fill="#fff"/>
    <path id="Path_2193" data-name="Path 2193" d="M314.275,114.61a.637.637,0,0,1-.194-.55Z" transform="translate(-249.608 -65.574)" fill="#fff"/>
    <path id="Path_2194" data-name="Path 2194" d="M263.228,108.684a.469.469,0,1,1-.464-.464A.464.464,0,0,1,263.228,108.684Z" transform="translate(-253.645 -66.029)" fill="#fff"/>
    <ellipse id="Ellipse_639" data-name="Ellipse 639" cx="0.464" cy="0.464" rx="0.464" ry="0.464" transform="translate(17.247 42.191)" fill="#fff"/>
    <path id="Path_2195" data-name="Path 2195" d="M279.168,108.684a.469.469,0,1,1-.938,0,.464.464,0,0,1,.464-.464.474.474,0,0,1,.474.464Z" transform="translate(-252.402 -66.029)" fill="#fff"/>
    <path id="Path_2196" data-name="Path 2196" d="M287.128,108.684a.469.469,0,1,1-.463-.464.463.463,0,0,1,.463.464Z" transform="translate(-251.782 -66.029)" fill="#fff"/>
    <path id="Path_2197" data-name="Path 2197" d="M295.068,108.684a.469.469,0,1,1-.463-.464.463.463,0,0,1,.463.464Z" transform="translate(-251.163 -66.029)" fill="#fff"/>
    <path id="Path_2198" data-name="Path 2198" d="M303.068,108.684a.469.469,0,1,1-.938,0,.464.464,0,0,1,.464-.464.474.474,0,0,1,.474.464Z" transform="translate(-250.539 -66.029)" fill="#fff"/>
    <ellipse id="Ellipse_640" data-name="Ellipse 640" cx="0.464" cy="0.464" rx="0.464" ry="0.464" transform="translate(60.182 42.191)" fill="#fff"/>
    <path id="Path_2199" data-name="Path 2199" d="M259.248,125.844a.469.469,0,1,1-.938,0,.464.464,0,0,1,.464-.464.474.474,0,0,1,.474.464Z" transform="translate(-253.955 -64.692)" fill="#fff"/>
    <path id="Path_2200" data-name="Path 2200" d="M267.218,125.844a.469.469,0,1,1-.938,0,.463.463,0,0,1,.464-.464.474.474,0,0,1,.474.464Z" transform="translate(-253.334 -64.692)" fill="#fff"/>
    <path id="Path_2201" data-name="Path 2201" d="M275.178,125.844a.469.469,0,1,1-.463-.464A.463.463,0,0,1,275.178,125.844Z" transform="translate(-252.713 -64.692)" fill="#fff"/>
    <path id="Path_2202" data-name="Path 2202" d="M283.148,125.844a.469.469,0,1,1-.463-.464A.463.463,0,0,1,283.148,125.844Z" transform="translate(-252.092 -64.692)" fill="#fff"/>
    <path id="Path_2203" data-name="Path 2203" d="M291.118,125.844a.469.469,0,1,1-.938,0,.464.464,0,0,1,.464-.464.474.474,0,0,1,.474.464Z" transform="translate(-251.471 -64.692)" fill="#fff"/>
    <path id="Path_2204" data-name="Path 2204" d="M299.068,125.844a.469.469,0,1,1-.464-.464A.464.464,0,0,1,299.068,125.844Z" transform="translate(-250.851 -64.692)" fill="#fff"/>
    <path id="Path_2205" data-name="Path 2205" d="M307.068,125.844a.469.469,0,1,1-.464-.464A.464.464,0,0,1,307.068,125.844Z" transform="translate(-250.228 -64.692)" fill="#fff"/>
    <path id="Path_2206" data-name="Path 2206" d="M315.068,125.844a.469.469,0,1,1-.938,0,.463.463,0,0,1,.464-.464.474.474,0,0,1,.474.464Z" transform="translate(-249.604 -64.692)" fill="#fff"/>
    <path id="Path_2207" data-name="Path 2207" d="M263.233,120.264a.464.464,0,0,1-.464.474.474.474,0,1,1,0-.938.464.464,0,0,1,.464.464Z" transform="translate(-253.65 -65.127)" fill="#fff"/>
    <ellipse id="Ellipse_641" data-name="Ellipse 641" cx="0.464" cy="0.464" rx="0.464" ry="0.464" transform="translate(17.247 54.673)" fill="#fff"/>
    <path id="Path_2208" data-name="Path 2208" d="M279.163,120.264a.44.44,0,1,1-.474-.464.474.474,0,0,1,.474.464Z" transform="translate(-252.398 -65.127)" fill="#fff"/>
    <path id="Path_2209" data-name="Path 2209" d="M287.133,120.264a.464.464,0,0,1-.464.474.474.474,0,1,1,0-.938.463.463,0,0,1,.464.464Z" transform="translate(-251.787 -65.127)" fill="#fff"/>
    <path id="Path_2210" data-name="Path 2210" d="M295.073,120.264a.464.464,0,0,1-.464.474.474.474,0,1,1,0-.938.463.463,0,0,1,.464.464Z" transform="translate(-251.168 -65.127)" fill="#fff"/>
    <path id="Path_2211" data-name="Path 2211" d="M303.063,120.264a.44.44,0,1,1-.474-.464.474.474,0,0,1,.474.464Z" transform="translate(-250.535 -65.127)" fill="#fff"/>
    <ellipse id="Ellipse_642" data-name="Ellipse 642" cx="0.464" cy="0.464" rx="0.464" ry="0.464" transform="translate(60.182 54.673)" fill="#fff"/>
  </g>
  <g id="freepik--character-2--inject-143" transform="translate(157.797 98.379)">
    <path id="Path_2212" data-name="Path 2212" d="M509.167,416.912c-2.231.668-65.388-1.423-67.738-3.029-.905-.593-1.143-9.82-1.078-20.966v-.345c0-2.3,5.228-40.822,5.228-40.822l44.2,1.326-8.624,40.391v.69s23.823,11.609,26.226,13.647S511.4,416.244,509.167,416.912Z" transform="translate(-283.826 -145.426)" fill="#f7a9a0"/>
    <path id="Path_2213" data-name="Path 2213" d="M509.167,414.574c-2.231.668-65.388-1.423-67.738-3.029-.905-.6-1.143-9.82-1.078-20.966v-.356c0-.625.4-3.967.959-8.483l41.469,1.617-1.66,7.761v.69s23.823,11.62,26.226,13.658S511.4,413.906,509.167,414.574Z" transform="translate(-283.825 -143.088)" fill="#ebebeb"/>
    <path id="Path_2214" data-name="Path 2214" d="M509.666,414.2c-2.253.679-66.035-1.444-68.417-3.072-.905-.6-1.132-9.906-1.078-21.16l41.124,1.25s24.06,11.728,26.474,13.787S511.919,413.534,509.666,414.2Z" transform="translate(-283.839 -142.447)" fill="#c7c7c7"/>
    <path id="Path_2215" data-name="Path 2215" d="M508.534,410.2c-10.682-.625-53.833-2.1-64.44-1.908-.086,0-.086.065,0,.065,10.575.852,53.725,1.983,64.429,2.016C508.75,410.372,508.761,410.21,508.534,410.2Z" transform="translate(-283.538 -141.02)" fill="#263238"/>
    <path id="Path_2216" data-name="Path 2216" d="M499.784,401.661a8.624,8.624,0,0,0-6.468,2.4,8.343,8.343,0,0,0-2.576,5.627c0,.065.119.065.129,0a9.928,9.928,0,0,1,8.925-7.891.075.075,0,0,0-.011-.14Z" transform="translate(-279.897 -141.537)" fill="#263238"/>
    <path id="Path_2217" data-name="Path 2217" d="M482.984,392.241c-4.312-.2-9.281,1.143-12.062,4.56-.108.129.086.28.216.216a59.6,59.6,0,0,1,11.911-4.247.27.27,0,0,0-.065-.528Z" transform="translate(-281.444 -142.271)" fill="#263238"/>
    <path id="Path_2218" data-name="Path 2218" d="M486.015,393.541c-4.312-.2-9.292,1.143-12.062,4.549-.108.14.075.291.2.226a58.933,58.933,0,0,1,11.911-4.279.269.269,0,0,0-.054-.5Z" transform="translate(-281.208 -142.17)" fill="#263238"/>
    <path id="Path_2219" data-name="Path 2219" d="M489.035,394.831c-4.312-.194-9.281,1.153-12.062,4.56-.108.129.086.28.216.226A58.933,58.933,0,0,1,489.1,395.37a.28.28,0,0,0-.065-.539Z" transform="translate(-280.973 -142.069)" fill="#263238"/>
    <path id="Path_2220" data-name="Path 2220" d="M492.065,396.131c-4.312-.2-9.292,1.143-12.062,4.56-.108.129.075.28.2.216a59.6,59.6,0,0,1,11.911-4.247.27.27,0,0,0-.054-.528Z" transform="translate(-280.737 -141.968)" fill="#263238"/>
    <path id="Path_2221" data-name="Path 2221" d="M447.2,399c-4.8-.151-5.034,7.308-.226,7.459S452.017,399.1,447.2,399Z" transform="translate(-283.581 -141.743)" fill="#263238"/>
    <path id="Path_2222" data-name="Path 2222" d="M487.522,381.849c-2.156-1.865-4.894-.2-6.3,1.617a22.431,22.431,0,0,0-4.247,10.779c0,.1,0,.129.129.129a.507.507,0,0,0,.755.366c3.115-2,6.694-3.762,9.109-6.662C488.374,386.387,489.517,383.617,487.522,381.849Zm-5.551,8.925c-1.509,1.024-3.061,1.962-4.538,3.04.841-2.1,1.585-4.236,2.63-6.252a21.912,21.912,0,0,1,1.66-2.835c.97-1.391,5.293-4.818,5.562-.151C487.436,387.153,483.76,389.546,481.971,390.775Z" transform="translate(-280.97 -143.144)" fill="#263238"/>
    <path id="Path_2223" data-name="Path 2223" d="M467.394,395.006c3.7.69,7.546-.237,11.265-.69a.517.517,0,0,0,.345-.765.119.119,0,0,0,0-.183,22.366,22.366,0,0,0-10.176-5.605c-2.231-.507-5.444,0-5.875,2.77S465.228,394.6,467.394,395.006Zm-2.512-2.522c-2.77-3.773,2.749-3.881,4.387-3.439a22.937,22.937,0,0,1,3.083,1.078,66.325,66.325,0,0,1,6.015,3.137c-1.822.108-3.611.377-5.39.55-2.21.259-6.565.744-8.1-1.326Z" transform="translate(-282.066 -142.632)" fill="#263238"/>
    <path id="Path_2224" data-name="Path 2224" d="M494.583,400.029l-53.973-4.506s16.342-65.065,13.41-69.463c-1.283-1.93-50.75,7.211-69.538-13.129-17.172-18.605,0-56.161,0-56.161h46.352s-.5,16.309,2.339,22.281c1.218,2.566,57.045-2.328,66.261,14.5C511.755,316.025,494.583,400.029,494.583,400.029Z" transform="translate(-288.774 -152.829)" fill="#d53668"/>
    <path id="Path_2225" data-name="Path 2225" d="M442.013,375.86c5.95.28,11.922.507,17.862.959s11.911,1.013,17.851,1.682l5.023.582c.8.1,1.6.194,2.393.313a18.156,18.156,0,0,1,2.415.377c.086,0,.054.14,0,.14a32.217,32.217,0,0,1-4.56-.14l-4.312-.237q-4.441-.269-8.872-.582c-5.929-.431-11.857-1.078-17.732-1.682-3.352-.356-6.7-.733-10.057-1.078C441.765,376.14,441.765,375.849,442.013,375.86Z" transform="translate(-283.71 -143.547)" fill="#263238"/>
    <path id="Path_2226" data-name="Path 2226" d="M388.966,265.894c.162-1.563.291-3.126.356-4.689a.1.1,0,0,1,.183,0c0,11.857-4.129,23.876-.895,35.669a22.853,22.853,0,0,0,8.871,12.763,34.968,34.968,0,0,0,15.3,5.67c6.22.895,12.537.722,18.8.69l19.522-.1h4.818a37.853,37.853,0,0,1,4.56,0,2.447,2.447,0,0,1,2.307,1.908,16.871,16.871,0,0,1,.065,4.172q-.291,9.41-1.347,18.756a229.075,229.075,0,0,1-7.222,36.747c-.431,1.488-.873,2.975-1.326,4.452a.151.151,0,0,1-.28-.086,258.476,258.476,0,0,0,7.546-36.974c.8-6.22,1.337-12.472,1.671-18.735.086-1.552.151-3.094.2-4.646,0-.755.065-1.509.065-2.264a3.385,3.385,0,0,0-.334-1.876,2.221,2.221,0,0,0-1.951-.776H452.5l-19.511.129c-6.252,0-12.547.248-18.767-.485a38.687,38.687,0,0,1-15.436-4.808,23.715,23.715,0,0,1-9.96-11.189C384.213,289.188,387.77,277.255,388.966,265.894Z" transform="translate(-288.02 -152.489)" fill="#263238"/>
    <path id="Path_2227" data-name="Path 2227" d="M384.554,312.931c11.642,12.6,35.044,13.884,51.472,13.5l-18.8-69.657H384.554S367.307,294.326,384.554,312.931Z" transform="translate(-288.771 -152.829)" fill="#263238"/>
    <path id="Path_2228" data-name="Path 2228" d="M295.361,414.129c.248-2.318,26.852-59.632,29.245-61.173.905-.6,9.486,2.792,19.737,7.179l.313.14c2.156.905,41.113,11.383,41.113,11.383L368.521,409.17l-40.574-11.717-.625-.313s-20,17.387-22.809,18.8S295.091,416.435,295.361,414.129Z" transform="translate(-295.127 -145.337)" fill="#f7a9a0"/>
    <path id="Path_2229" data-name="Path 2229" d="M352.1,362.452l-17.775,36.833-6.381-1.843-.625-.3s-20,17.387-22.809,18.8-9.389.5-9.119-1.811,26.852-59.643,29.245-61.173c.905-.6,9.486,2.781,19.737,7.179l.313.14C345.181,360.555,348.059,361.331,352.1,362.452Z" transform="translate(-295.124 -145.337)" fill="#ebebeb"/>
    <path id="Path_2230" data-name="Path 2230" d="M295.151,414.48c.248-2.339,26.949-60.365,29.32-61.885.916-.6,9.583,2.792,19.942,7.19l-17.085,37.448s-20.136,17.624-22.971,19.069S294.892,416.776,295.151,414.48Z" transform="translate(-295.143 -145.365)" fill="#c7c7c7"/>
    <path id="Path_2231" data-name="Path 2231" d="M297.663,414.427c4.711-9.6,22.788-48.8,26.712-58.662,0-.075,0-.1-.054,0-4.883,9.421-22.637,48.766-26.809,58.619C297.415,414.567,297.566,414.631,297.663,414.427Z" transform="translate(-294.961 -145.118)" fill="#263238"/>
    <path id="Path_2232" data-name="Path 2232" d="M307.517,409.9a8.624,8.624,0,0,0,.3-6.91,8.354,8.354,0,0,0-4.193-4.56c-.065,0-.108.086-.054.119a9.928,9.928,0,0,1,3.816,11.275C307.366,409.921,307.474,409.975,307.517,409.9Z" transform="translate(-294.488 -141.787)" fill="#263238"/>
    <path id="Path_2233" data-name="Path 2233" d="M322.537,397.936c1.843-3.859,2.544-9,.474-12.881-.076-.151-.291,0-.28.108a58.987,58.987,0,0,1-.7,12.623.27.27,0,0,0,.507.151Z" transform="translate(-293.047 -142.835)" fill="#263238"/>
    <path id="Path_2234" data-name="Path 2234" d="M320.179,400.26c1.843-3.87,2.544-9.012.474-12.935-.086-.151-.3,0-.291.108a59.034,59.034,0,0,1-.7,12.634.276.276,0,1,0,.517.194Z" transform="translate(-293.233 -142.658)" fill="#263238"/>
    <path id="Path_2235" data-name="Path 2235" d="M317.808,402.54c1.843-3.859,2.544-9,.474-12.935-.075-.151-.291,0-.291.108a58.93,58.93,0,0,1-.69,12.623.273.273,0,1,0,.507.2Z" transform="translate(-293.418 -142.48)" fill="#263238"/>
    <path id="Path_2236" data-name="Path 2236" d="M315.437,404.826c1.843-3.87,2.544-9,.474-12.882-.075-.151-.291,0-.28.108a58.984,58.984,0,0,1-.7,12.623.269.269,0,0,0,.507.151Z" transform="translate(-293.601 -142.298)" fill="#263238"/>
    <path id="Path_2237" data-name="Path 2237" d="M330.457,362.377c1.994-4.376-4.8-7.481-6.791-3.1S328.463,366.754,330.457,362.377Z" transform="translate(-292.948 -145.004)" fill="#263238"/>
    <path id="Path_2238" data-name="Path 2238" d="M330.932,406.415c2.533-1.218,2.08-4.43.949-6.468a22.4,22.4,0,0,0-8.322-8.106.119.119,0,0,0-.172.065.528.528,0,0,0-.636.561c.647,3.643.884,7.632,2.619,10.973C326.394,405.434,328.528,407.568,330.932,406.415Zm-6.069-8.624c-.366-1.779-.636-3.579-1.078-5.39a67.134,67.134,0,0,1,4.754,4.84,23.564,23.564,0,0,1,1.973,2.63c.895,1.434,2.393,6.748-2.016,5.185-2.415-.776-3.212-5.088-3.633-7.222Z" transform="translate(-292.991 -142.302)" fill="#263238"/>
    <path id="Path_2239" data-name="Path 2239" d="M326.551,382.494c-2.07,3.148-2.716,7.093-3.73,10.65-.108.377.259.636.571.625a.119.119,0,0,0,.162.086,22.572,22.572,0,0,0,9.109-7.211c1.337-1.865,2.156-5.012-.28-6.468S327.769,380.662,326.551,382.494Zm3.3-1.326c4.549-1.078,2.512,4.032,1.477,5.39a23.711,23.711,0,0,1-2.231,2.415c-1.638,1.585-3.46,2.91-5.228,4.312.6-1.714,1.078-3.471,1.6-5.217C326.109,385.987,327.327,381.772,329.85,381.169Z" transform="translate(-292.987 -143.25)" fill="#263238"/>
    <path id="Path_2240" data-name="Path 2240" d="M434.121,256.77s-.722,22.464-4.085,33.535c0,0-3.676,1.93-4.775,2.619,0,0,27.908,66.833,26.323,92.553-.517,8.44-10.068,22.292-19.716,28.3-17.064,10.618-100.368,1.3-100.368,1.3l12.084-50.092s52.668,2.932,54.005.086c1.682-3.622-8.807-31.724-17.182-54.576-.841-2.307-9.27-10.779-8.289-26.216a79.833,79.833,0,0,1,7.255-27.509Z" transform="translate(-292.309 -152.829)" fill="#d53668"/>
    <path id="Path_2241" data-name="Path 2241" d="M418.579,284.141c.108-1.6.226-3.18.366-4.775.313-3.622.69-7.265,1.326-10.844.054-.28.453-.172.42.1-.237,2.813-.561,5.627-.83,8.44s-.593,5.616-.647,8.419c0,.841,0,2.274,1.078,2.5,1.391.313,2.048-1.509,2.382-2.512a45.484,45.484,0,0,0,1.746-7.675c.464-2.954.7-5.939.992-8.915a.1.1,0,0,1,.183,0c0,5.907-.065,12.084-2.264,17.657a3.234,3.234,0,0,1-2.447,2.339h-.065a.324.324,0,0,1,0,.108,3.873,3.873,0,0,1-.1.485,4.122,4.122,0,0,1-.086.42c-.032.14-.1.571-.172.852a.216.216,0,0,1-.431,0,.194.194,0,0,1-.119-.172,4.71,4.71,0,0,1,.377-1.671,2.156,2.156,0,0,1-1.52-1.283,7.417,7.417,0,0,1-.194-3.471Z" transform="translate(-285.531 -151.926)" fill="#263238"/>
    <path id="Path_2242" data-name="Path 2242" d="M423.467,287.9a84.408,84.408,0,0,0-13.011,6.813.152.152,0,0,0,.14.269c4.387-2.156,8.871-4.182,13.129-6.554a.294.294,0,0,0-.259-.528Z" transform="translate(-286.161 -150.405)" fill="#263238"/>
    <path id="Path_2243" data-name="Path 2243" d="M388.011,279.463a21.1,21.1,0,0,0,3.4-.259,28.424,28.424,0,0,0,2.964-.755c1.822-.539,4.042-1.175,5.39-2.619a19.286,19.286,0,0,0,3.051-5.26,21.322,21.322,0,0,0,1.8-6.284.075.075,0,1,1,.151,0,32.154,32.154,0,0,1-1.078,6.64,20.8,20.8,0,0,1-1.25,3.148,8.753,8.753,0,0,1-7.707,5.595,18.44,18.44,0,0,1-6.7,0C387.784,279.689,387.838,279.474,388.011,279.463Z" transform="translate(-287.916 -152.249)" fill="#263238"/>
    <path id="Path_2244" data-name="Path 2244" d="M351.627,370.274c11.491-.216,20.858.765,32.338.765h13.022a12.721,12.721,0,0,0,3-.269,3.784,3.784,0,0,0,2.318-1.38c.755-1.078.345-2.587.086-3.816q-.873-4.053-1.94-8.063c-2.9-10.844-6.673-21.451-10.23-32.1l-5.5-16.449c-.453-1.337-.895-2.673-1.455-3.967a34.752,34.752,0,0,0-1.8-3.439,32.2,32.2,0,0,1-3.126-6.78c-3.1-10.219-.119-20.794,3.514-30.43.485-1.294.992-2.576,1.52-3.859a.076.076,0,0,1,.151,0c-3.32,10.176-7.265,20.761-5.045,31.627a26.217,26.217,0,0,0,2.652,7.3c.636,1.175,1.337,2.3,1.962,3.471a28.88,28.88,0,0,1,1.6,3.708c1.951,5.39,3.676,10.876,5.5,16.309,3.633,10.78,7.449,21.559,10.478,32.6q1.078,4.107,2.07,8.268c.453,2.037,1.477,4.818-.3,6.468-1.315,1.24-3.363,1.4-5.066,1.412H388.74c-11.653,0-35.712-1.013-37.168-1.078a.2.2,0,0,1,.054-.291Z" transform="translate(-290.748 -152.546)" fill="#263238"/>
    <path id="Path_2245" data-name="Path 2245" d="M339.7,404.692c1.132-5.853,2.21-11.728,3.5-17.549s2.706-11.642,4.215-17.42c.42-1.638.862-3.234,1.3-4.894.2-.776.41-1.552.636-2.328a19.4,19.4,0,0,1,.722-2.328c0-.086.14,0,.14,0a31.766,31.766,0,0,1-.8,4.484c-.291,1.412-.56,2.835-.852,4.236q-.884,4.366-1.843,8.7c-1.272,5.8-2.706,11.556-4.182,17.312q-1.261,4.894-2.544,9.788C339.959,404.918,339.668,404.886,339.7,404.692Z" transform="translate(-291.67 -144.772)" fill="#263238"/>
    <path id="Path_2246" data-name="Path 2246" d="M443.371,368.938a38.276,38.276,0,0,0-1.412-6.974c0-.075-.151-.065-.14,0,.226,2.339.69,4.624.895,6.974a41.075,41.075,0,0,1,.086,6.716,30.041,30.041,0,0,1-1.078,6.1,45.439,45.439,0,0,1-2.372,5.983c0,.076.065.173.129.1,2.813-3.083,3.837-7.7,4.129-11.728A36.424,36.424,0,0,0,443.371,368.938Z" transform="translate(-283.903 -144.634)" fill="#263238"/>
    <path id="Path_2247" data-name="Path 2247" d="M432.88,276.43l-3.234.259h-.356l-.765.065-4.754.388h-.7l-23.348,1.9-5.983.485-4.581.366-.744.065-10.251.819-1.38.108-.776.065-6.6.507a80.4,80.4,0,0,1,7.017-24.793H431.4S431.069,269.3,432.88,276.43Z" transform="translate(-289.354 -152.838)" fill="#263238"/>
    <path id="Path_2248" data-name="Path 2248" d="M415.116,162.765c-14.218,9.54-20.578,29.342-10.542,49.65,9.141,18.476,31.929,27.488,44.681,22.055,13.528-5.767,16.881-21.257,10.1-30.042-6.543-8.483-16.654-10.553-19.8-18.465-1.5-3.784-.507-10.6-2.49-16.288C434.821,163.325,424.224,156.642,415.116,162.765Z" transform="translate(-286.994 -160.345)" fill="#263238"/>
    <path id="Path_2249" data-name="Path 2249" d="M435.422,235.736a41.5,41.5,0,0,1-19.144-8.052A45.986,45.986,0,0,1,403,211.515a39.528,39.528,0,0,1-4.312-20.481,39.032,39.032,0,0,1,7.007-19.554,41.048,41.048,0,0,0-6.371,19.6,38.461,38.461,0,0,0,.916,10.294,41.814,41.814,0,0,0,3.547,9.7,49.92,49.92,0,0,0,5.562,8.731,44.907,44.907,0,0,0,16.234,12.677,39.885,39.885,0,0,0,9.842,3.255Z" transform="translate(-287.078 -159.477)" fill="#263238"/>
    <path id="Path_2250" data-name="Path 2250" d="M459.114,205.992a20.481,20.481,0,0,0-3.73-5.239,27.519,27.519,0,0,0-4.948-4.064c-1.833-1.164-3.622-2.382-5.39-3.665a28.1,28.1,0,0,1-4.872-4.4,18.826,18.826,0,0,1-1.94-2.695,12.461,12.461,0,0,1-1.164-3.126,56.281,56.281,0,0,1-.927-6.468,25.288,25.288,0,0,0-1.412-6.252,17.785,17.785,0,0,0-3.331-5.476,16.9,16.9,0,0,1,3.708,5.325,25.654,25.654,0,0,1,1.671,6.317,57.536,57.536,0,0,0,1.078,6.36,11.86,11.86,0,0,0,1.078,2.921,16.793,16.793,0,0,0,1.876,2.544c2.738,3.234,6.468,5.573,9.971,8.063a28.027,28.027,0,0,1,4.9,4.312,19.286,19.286,0,0,1,3.428,5.541Z" transform="translate(-284.522 -160.013)" fill="#263238"/>
    <path id="Path_2251" data-name="Path 2251" d="M415.058,210.423c11.75,10.682,32.985,26.065,45.867,28.49,10.294,1.93,37.545-7.222,49.262-14.789,4.139-2.673-9.022-17.6-14.186-19.09-3.1-.895-30.183,12.342-34.8,11.7-7.007-.981-25.008-9.863-39.593-14.973C413.926,199.061,407.706,203.772,415.058,210.423Z" transform="translate(-286.052 -157.178)" fill="#f7a9a0"/>
    <path id="Path_2252" data-name="Path 2252" d="M481.66,208.71s4.312-6.155,6.77-8.44,14.865-7.416,16.169-4.8c1.628,3.374-4.937,7.74-8.44,9.454,0,0,3.773,7.8-.27,11.954S481.66,208.71,481.66,208.71Z" transform="translate(-280.605 -157.664)" fill="#f7a9a0"/>
    <path id="Path_2253" data-name="Path 2253" d="M500.2,227.136c2.63-1.186,14.2-7.632,17.01-10.154s10.391-10.338,8.624-12.687-4.107-.237-4.107-.237,2.684-3.816.744-6.026-5.562,1.2-5.562,1.2,2.469-4.107.377-6.177-5.163,1.973-5.163,1.973,2.425-3.654,0-4.635c-2.932-1.175-6.64,6.069-9.96,8.624-.755.582-16.094,10.629-16.094,10.629Z" transform="translate(-280.261 -158.013)" fill="#f7a9a0"/>
    <path id="Path_2254" data-name="Path 2254" d="M511.262,194.371c-2.738,5.325-4.894,7.158-9.939,10.176-.108,0,0,.216.065.162,5.25-2.468,8.246-4.42,10.143-10.208C511.618,194.209,511.391,194.123,511.262,194.371Z" transform="translate(-279.076 -157.705)" fill="#263238"/>
    <path id="Path_2255" data-name="Path 2255" d="M515.707,198.2c-3.342,5.282-5.616,7.308-10.715,10.833-.065,0,0,.172.086.129,5.282-3.04,8.225-5.045,10.866-10.779C516.062,198.143,515.858,197.992,515.707,198.2Z" transform="translate(-278.788 -157.402)" fill="#263238"/>
    <path id="Path_2256" data-name="Path 2256" d="M519.828,203.234c-3.6,4.872-6,7.211-11.383,9.993a.111.111,0,0,0,.086.2,20.082,20.082,0,0,0,11.426-10.079C520.1,203,520.011,202.922,519.828,203.234Z" transform="translate(-278.522 -157.018)" fill="#263238"/>
    <path id="Path_2257" data-name="Path 2257" d="M503.645,196.411c-.733,4.15-5.465,6.112-8.731,8.031a.334.334,0,0,0-.075.561c1.358,3.374,2.3,8.537.194,11.75a.088.088,0,0,0,.14.108c2.727-3.148,2.221-8.289.485-11.857,3.385-1.908,8.052-4.085,8.031-8.548C503.721,196.389,503.645,196.389,503.645,196.411Z" transform="translate(-279.587 -157.535)" fill="#263238"/>
    <path id="Path_2258" data-name="Path 2258" d="M448.588,209.924l-12.935,19.3s-14.013-10.779-20.481-17.4-6.791-14.143,7.05-11.049C433.917,203.391,448.588,209.924,448.588,209.924Z" transform="translate(-286.123 -157.25)" fill="#d53668"/>
    <path id="Path_2259" data-name="Path 2259" d="M441.962,207.882a47.1,47.1,0,0,0-2.857,3.988q-1.391,2.027-2.749,4.075c-1.811,2.76-3.546,5.53-5.206,8.376,0,.1.065.194.129.108,1.973-2.684,3.837-5.39,5.659-8.2.895-1.369,1.779-2.76,2.652-4.15a45.572,45.572,0,0,0,2.469-4.139C442.091,207.871,442,207.828,441.962,207.882Z" transform="translate(-284.542 -156.642)" fill="#263238"/>
    <path id="Path_2260" data-name="Path 2260" d="M442.014,219.713l-6.371,9.5s-14.013-10.779-20.481-17.4c-4.991-5.109-6.328-10.726-.366-11.642C421.393,204.859,433.757,213.612,442.014,219.713Z" transform="translate(-286.124 -157.241)" fill="#263238"/>
    <path id="Path_2261" data-name="Path 2261" d="M436.384,252.226l-.614,26.571s-52.237-1.908-64.989-5c0,0,20.6-57.832,37.017-70.552,8.214-6.36,16.266-4.43,20.567,1.725,1.078,1.552,13.259,24.911,13.582,33.115C442.162,245.327,436.384,252.226,436.384,252.226Z" transform="translate(-289.248 -157.308)" fill="#d53668"/>
    <path id="Path_2262" data-name="Path 2262" d="M411,225.514l11.836-1.024,1,9.292-4.775,3.881-7.147-2.4Z" transform="translate(-286.112 -155.345)" opacity="0.1"/>
    <path id="Path_2263" data-name="Path 2263" d="M412.52,201.843c.119,1.078,6.241,11.254,10.974,11.254,1.078,0,.485-10.844.485-10.844l.216-.6,2.986-8.43-9.389-7.761-1.369-1.078s-.668,2.361-1.466,5.314a2.194,2.194,0,0,1-.108.42c-.032.151-.1.323-.14.474-.119.442-.248.884-.366,1.337s-.173.679-.259,1.078l-.259,1.078a58.513,58.513,0,0,0-1.3,7.761Z" transform="translate(-285.994 -158.472)" fill="#f7a9a0"/>
    <path id="Path_2264" data-name="Path 2264" d="M414.78,189.727a17.98,17.98,0,0,0,9.238,11.922l2.986-8.43-9.389-7.761-1.369-1.078S415.578,186.773,414.78,189.727Z" transform="translate(-285.818 -158.472)" fill="#263238"/>
    <path id="Path_2265" data-name="Path 2265" d="M441.066,181.261c2.156,15.544-6.856,18.616-10.208,19.09-3.04.42-13.453,1.5-17.247-13.733s2.727-21.16,9.637-22.508S438.91,165.674,441.066,181.261Z" transform="translate(-285.996 -160.075)" fill="#f7a9a0"/>
    <path id="Path_2266" data-name="Path 2266" d="M435.968,177.113a6.034,6.034,0,0,1-1.078-.065,1.736,1.736,0,0,1-1.078-.291.55.55,0,0,1-.1-.668,1.412,1.412,0,0,1,1.3-.517,2.026,2.026,0,0,1,1.369.539.593.593,0,0,1-.42,1Z" transform="translate(-284.348 -159.16)" fill="#263238"/>
    <path id="Path_2267" data-name="Path 2267" d="M426.384,178.506a10.462,10.462,0,0,0,1.024-.367,1.735,1.735,0,0,0,.959-.582.539.539,0,0,0-.1-.668,1.348,1.348,0,0,0-1.391-.129,2.048,2.048,0,0,0-1.164.884.593.593,0,0,0,.668.862Z" transform="translate(-284.971 -159.076)" fill="#263238"/>
    <path id="Path_2268" data-name="Path 2268" d="M429.05,181.73s-.075.065-.065.108c.216,1.078.27,2.285-.625,2.792v.065C429.524,184.339,429.416,182.689,429.05,181.73Z" transform="translate(-284.759 -158.678)" fill="#263238"/>
    <path id="Path_2269" data-name="Path 2269" d="M428.08,180.86c-1.714.151-1.283,3.568.3,3.428S429.47,180.731,428.08,180.86Z" transform="translate(-284.867 -158.747)" fill="#263238"/>
    <path id="Path_2270" data-name="Path 2270" d="M427.5,181.1c-.28.237-.528.614-.884.7s-.765-.226-1.078-.539h0c.075.658.41,1.3,1.078,1.3a1.183,1.183,0,0,0,1.078-1.3C427.739,181.178,427.61,180.995,427.5,181.1Z" transform="translate(-284.979 -158.73)" fill="#263238"/>
    <path id="Path_2271" data-name="Path 2271" d="M434.411,180.84s.1,0,.1.086c.086,1.078.377,2.264,1.38,2.5v.065C434.691,183.459,434.335,181.864,434.411,180.84Z" transform="translate(-284.288 -158.748)" fill="#263238"/>
    <path id="Path_2272" data-name="Path 2272" d="M435.23,179.712c1.692-.334,2.231,3.072.668,3.374S433.807,180.024,435.23,179.712Z" transform="translate(-284.289 -158.838)" fill="#263238"/>
    <path id="Path_2273" data-name="Path 2273" d="M435.871,179.842c.3.14.614.42.949.388s.593-.442.776-.83h.054c.119.658,0,1.369-.593,1.585s-1.078-.28-1.315-.905C435.687,179.982,435.752,179.788,435.871,179.842Z" transform="translate(-284.185 -158.86)" fill="#263238"/>
    <path id="Path_2274" data-name="Path 2274" d="M430.09,189.631c.269.226.56.55.949.55a2.846,2.846,0,0,0,1.078-.356s.065,0,.054.054a1.434,1.434,0,0,1-1.315.679,1.078,1.078,0,0,1-.905-.873C430,189.631,430,189.6,430.09,189.631Z" transform="translate(-284.635 -158.064)" fill="#263238"/>
    <path id="Path_2275" data-name="Path 2275" d="M433.944,186.251a23.2,23.2,0,0,1,.539,2.3c0,.075-.162.129-.41.183h0a3.579,3.579,0,0,1-3.622-.841c-.065-.065,0-.162.1-.119a5.39,5.39,0,0,0,3.363.474c0-.216-.841-2.63-.722-2.652a6.318,6.318,0,0,1,1.746.151c-.819-3.234-2.156-6.36-2.921-9.615a.108.108,0,0,1,.194-.075,54,54,0,0,1,3.579,10.219C435.874,186.682,434.279,186.337,433.944,186.251Z" transform="translate(-284.598 -159.124)" fill="#263238"/>
    <path id="Path_2276" data-name="Path 2276" d="M415.089,188.074c1.7-.453,5.228-6.09,3.687-14.423,0,0,.862,7.546.528,8.785s1.962-3.169.819-9.906a27.736,27.736,0,0,0,7.6,2.156c3.342.248,5.271-.172,5.454-.442s-4.775-.808-6.328-2c0,0,9.206,2.221,13.151,1.735.453-.065-.873-9.4-7.653-12.105s-15.447,3.428-17.506,6.414c0,0-2.91,1.078-5.282,6.134S413.31,188.559,415.089,188.074Z" transform="translate(-286.267 -160.279)" fill="#263238"/>
    <path id="Path_2277" data-name="Path 2277" d="M417.631,185.278s-3.46-4.883-5.681-3.643.41,8.322,3.029,9.27a2.652,2.652,0,0,0,3.557-1.423Z" transform="translate(-286.103 -158.702)" fill="#f7a9a0"/>
    <path id="Path_2278" data-name="Path 2278" d="M412.642,183.5s-.054.054,0,.075a6.726,6.726,0,0,1,3.493,4.172,1.477,1.477,0,0,0-2.156-.388s0,.108.054.1a1.649,1.649,0,0,1,1.8.561,8.128,8.128,0,0,1,.862,1.444c.086.172.388.075.323-.108h0C416.975,186.971,415.186,183.726,412.642,183.5Z" transform="translate(-285.986 -158.541)" fill="#263238"/>
    <path id="Path_2279" data-name="Path 2279" d="M401.315,212.576c-6.468,14.434-17.668,44.918-14.013,56.053,4.829,14.6,27.035,32.015,36.769,32.78,3.449.27,7.546-31.066,3.978-29.988-2.371.722-15.091-6.629-16.557-8.99s1.207-32.737,2.231-46.115C415.059,199.414,406.8,200.373,401.315,212.576Z" transform="translate(-288.016 -156.981)" fill="#f7a9a0"/>
    <path id="Path_2280" data-name="Path 2280" d="M390.58,235.271l23.014,3.234s1.369-17.624.776-26.895-5.983-14.5-12.935-2.156C395.528,220,390.58,235.271,390.58,235.271Z" transform="translate(-287.704 -157.083)" fill="#d53668"/>
    <path id="Path_2281" data-name="Path 2281" d="M412.474,231.683a48.114,48.114,0,0,0-4.818-.927c-1.617-.28-3.234-.539-4.851-.787-3.234-.485-6.468-.905-9.788-1.229-.108,0-.151.151,0,.172,3.234.668,6.468,1.218,9.82,1.7,1.617.237,3.234.464,4.872.668a47.949,47.949,0,0,0,4.8.517C412.539,231.8,412.539,231.7,412.474,231.683Z" transform="translate(-287.522 -155.014)" fill="#263238"/>
    <path id="Path_2282" data-name="Path 2282" d="M413.647,220.6c-.216,1.078-.366,2.156-.517,3.234.054-2.576,0-5.174-.151-7.75-.259,3.568-.366,7.147-.539,10.715s-.4,7.05-.453,10.585c-.14,0-1.52-.151-1.671-.172a.086.086,0,0,0,0,.172c.14,0,1.9.334,1.908.28s.722-7.2.862-10.779v-1.4a46.927,46.927,0,0,0,.7-4.872.07.07,0,1,0-.14-.011Z" transform="translate(-286.173 -156.001)" fill="#263238"/>
    <path id="Path_2283" data-name="Path 2283" d="M396.57,217.844c0-.054-.075-.1-.108,0-.528,1.207-1.078,2.425-1.541,3.654v-.269c.14-.614.28-1.229.431-1.843,0-.086-.108-.119-.14,0a13.529,13.529,0,0,0-.5,1.833c-.086.4-.14.808-.2,1.218-.442,1.078-.873,2.221-1.283,3.331-.992,2.727-2.781,8.3-2.738,8.365s1.6.226,1.628.237,0-.054,0-.075-1.218-.259-1.315-.259c1.132-2.566,1.908-5.25,2.846-7.9S395.6,220.593,396.57,217.844Z" transform="translate(-287.711 -155.868)" fill="#263238"/>
    <path id="Path_2284" data-name="Path 2284" d="M420.719,268.4s10.682-3.428,17.765-5.336c3.956-1.078,10.9-2.285,14.164-1.746,4.883.819,24.793,7.362,23.294,12.213-1.337,4.4-17.721-3.385-17.721-3.385s17.247,6.392,14.639,11.394-19.92-6.263-19.92-6.263,17.549,6.964,14.013,11.7c-2.63,3.579-18.907-5.735-18.907-5.735s15.091,6.1,12.493,9.9c-2.813,4.182-18.379-3.46-18.379-3.46-8.1,8.548-15.458,9.3-20.751,9.227C420.169,296.881,420.719,268.4,420.719,268.4Z" transform="translate(-285.364 -152.485)" fill="#f7a9a0"/>
    <path id="Path_2285" data-name="Path 2285" d="M450.115,267.09c2.048.679,4.129,1.358,6.112,2.21s3.935,1.789,5.832,2.824a36.739,36.739,0,0,1,6.985,4.743c-4.042-2.986-11.092-6.177-13.076-7.028s-3.913-1.811-5.886-2.673C450,267.144,450.062,267.079,450.115,267.09Z" transform="translate(-283.069 -152.025)" fill="#263238"/>
    <path id="Path_2286" data-name="Path 2286" d="M447.126,273.68c2.576.981,5.174,1.854,7.707,2.954s4.829,2.339,7.276,3.6c.183.1.075.162-.119.075-2.49-1.164-4.894-2.037-7.395-3.169s-4.969-2.361-7.546-3.4C447.05,273.723,447.082,273.669,447.126,273.68Z" transform="translate(-283.303 -151.511)" fill="#263238"/>
    <path id="Path_2287" data-name="Path 2287" d="M443.536,278.88a61.054,61.054,0,0,1,11.448,5.39c.183.1,0,.172-.162.075-3.773-1.865-6.726-3.363-11.329-5.39C443.418,279.01,443.45,278.848,443.536,278.88Z" transform="translate(-283.583 -151.106)" fill="#263238"/>
  </g>
  <g id="freepik--character-3--inject-143" transform="translate(316.693 70.864)">
    <path id="Path_2288" data-name="Path 2288" d="M553.957,434.891c-33.761,0-61.227-34.279-61.227-76.416S520.2,282.06,553.957,282.06s61.227,34.279,61.227,76.416S587.719,434.891,553.957,434.891Zm0-146.709c-30.387,0-55.094,31.53-55.094,70.293s24.707,70.282,55.094,70.282,55.094-31.53,55.094-70.282S584.334,288.183,553.957,288.183Z" transform="translate(-438.638 -123.343)" fill="#263238"/>
    <path id="Path_2289" data-name="Path 2289" d="M557.917,425.587c-29.87,0-54.167-30.387-54.167-67.738S528.058,290.1,557.917,290.1s54.167,30.4,54.167,67.749S587.8,425.587,557.917,425.587Zm0-131.111c-27.455,0-49.79,28.425-49.79,63.373s22.335,63.362,49.79,63.362,49.8-28.425,49.8-63.308S585.383,294.476,557.917,294.476Z" transform="translate(-437.779 -122.716)" fill="#c7c7c7"/>
    <rect id="Rectangle_201" data-name="Rectangle 201" width="90.472" height="34.925" transform="translate(30.41 144.316)" fill="#a6a6a6"/>
    <path id="Path_2290" data-name="Path 2290" d="M546.561,393.734h-75.8v-4.366h75.8A12.461,12.461,0,0,0,559,376.928V207.486a16.838,16.838,0,0,1,16.816-16.816h10.208v4.376H575.817a12.439,12.439,0,0,0-12.439,12.439V376.918a16.838,16.838,0,0,1-16.816,16.816Z" transform="translate(-440.35 -130.467)" fill="#c7c7c7"/>
    <path id="Path_2291" data-name="Path 2291" d="M473.106,412.536H468.73V268.091A15.156,15.156,0,0,1,483.821,253H561.3v4.312h-77.44a10.779,10.779,0,0,0-10.779,10.779Z" transform="translate(-440.508 -125.608)" fill="#c7c7c7"/>
    <ellipse id="Ellipse_643" data-name="Ellipse 643" cx="8.785" cy="11.071" rx="8.785" ry="11.071" transform="translate(109.283 224.062)" fill="#c7c7c7"/>
    <path id="Path_2292" data-name="Path 2292" d="M564.1,353.8c0,6.112-3.924,11.071-8.774,11.071s-8.785-4.959-8.785-11.071,3.935-11.081,8.785-11.081S564.1,347.625,564.1,353.8Z" transform="translate(-434.443 -118.615)" fill="#dbdbdb"/>
    <rect id="Rectangle_202" data-name="Rectangle 202" width="79.52" height="4.376" transform="translate(120.882 232.944)" fill="#c7c7c7"/>
    <ellipse id="Ellipse_644" data-name="Ellipse 644" cx="11.426" cy="14.412" rx="11.426" ry="14.412" transform="translate(17.345 284.826)" fill="#c7c7c7"/>
    <ellipse id="Ellipse_645" data-name="Ellipse 645" cx="11.426" cy="14.412" rx="11.426" ry="14.412" transform="translate(21.01 284.826)" fill="#dbdbdb"/>
    <rect id="Rectangle_203" data-name="Rectangle 203" width="27.11" height="8.699" transform="translate(132.125 57.886)" fill="#263238"/>
    <rect id="Rectangle_204" data-name="Rectangle 204" width="77.3" height="83.821" transform="translate(123.103 77.957)" fill="#455a64"/>
    <rect id="Rectangle_205" data-name="Rectangle 205" width="101.532" height="13.097" transform="translate(10.565 291.595)" fill="#263238"/>
    <path id="Path_2293" data-name="Path 2293" d="M512.9,375.42v8.548c0,7.966-.076,14.94-.464,18.551a.118.118,0,0,1,0,.054,11.165,11.165,0,0,1-.571,2.458v.054c-2.361,1.617-65.97,3.794-68.212,3.126s-.507-7.125,1.9-9.173,26.388-13.776,26.388-13.776l-.119-8.677Z" transform="translate(-442.544 -116.066)" fill="#c7c7c7"/>
    <path id="Path_2294" data-name="Path 2294" d="M443.607,407.62c2.242.668,65.841-1.509,68.212-3.126.905-.6,1.132-9.885,1.078-21.117V383l-41.048.938v.7s-23.974,11.717-26.388,13.776S441.354,406.952,443.607,407.62Z" transform="translate(-442.549 -115.475)" fill="#455a64"/>
    <path id="Path_2295" data-name="Path 2295" d="M444.132,403.674c10.715-.636,53.973-2.156,64.612-1.973.086,0,.086.065,0,.065-10.607.862-53.9,2.037-64.612,2.08C443.906,403.846,443.906,403.685,444.132,403.674Z" transform="translate(-442.439 -114.019)" fill="#263238"/>
    <path id="Path_2296" data-name="Path 2296" d="M466.588,384.8c4.193-.927,9.378-.453,12.7,2.436.129.119,0,.291-.172.259a58.984,58.984,0,0,0-12.493-2.156.27.27,0,1,1-.032-.539Z" transform="translate(-440.695 -115.368)" fill="#263238"/>
    <path id="Path_2297" data-name="Path 2297" d="M463.818,386.6c4.193-.927,9.378-.453,12.709,2.436.129.119,0,.291-.172.259a59.229,59.229,0,0,0-12.493-2.156.27.27,0,0,1-.043-.539Z" transform="translate(-440.911 -115.228)" fill="#263238"/>
    <path id="Path_2298" data-name="Path 2298" d="M461.018,388.4c4.193-.927,9.367-.464,12.7,2.436.129.108,0,.291-.172.259a58.306,58.306,0,0,0-12.493-2.156.27.27,0,1,1-.032-.539Z" transform="translate(-441.129 -115.088)" fill="#263238"/>
    <path id="Path_2299" data-name="Path 2299" d="M604.048,231.43H579.622l-6.716,8.839s-70.8,11.642-85.848,31.045C469.811,293.6,465.09,395.666,465.09,395.666h49.586s5.95-91.981,11.017-98.611,75.122-7.88,88.64-17.98,3.115-47.645,3.115-47.645Z" transform="translate(-440.792 -127.29)" fill="#263238"/>
    <path id="Path_2300" data-name="Path 2300" d="M512.53,375.439a43.027,43.027,0,0,0-4.409-.27c-1.444,0-2.9-.086-4.312-.129-2.986-.086-5.961-.086-8.947-.108-5.95,0-11.911-.075-17.872,0-1.671,0-3.342,0-5.012.065s-3.363.054-5.012.259a.065.065,0,1,0,0,.129,78.862,78.862,0,0,0,8.742.41c2.975.075,5.961.129,8.936.162q8.936.119,17.883.086c1.671,0,3.342,0,5.012-.086a45.751,45.751,0,0,0,5.013-.226C512.638,375.709,512.7,375.461,512.53,375.439Z" transform="translate(-440.651 -116.107)" fill="#455a64"/>
    <path id="Path_2301" data-name="Path 2301" d="M607.606,269.67c-10.273,4.215-21.182,6.683-32.1,8.527s-22.076,3.04-33.125,4.484a114.712,114.712,0,0,0-16.579,2.9,18.606,18.606,0,0,0-6.716,3.04,10.844,10.844,0,0,0-3.374,6.349c-1.272,5.7-2.21,11.5-3.234,17.247s-1.93,11.739-2.8,17.624c-1.768,11.857-3.967,33.5-5.5,45.382-.183,1.434-.345,2.867-.507,4.312,0,.14.2.2.226,0,1.746-11.685,4-33.179,5.756-44.864s3.654-23.37,5.853-34.979c.485-2.576.776-5.39,1.876-7.783a9.55,9.55,0,0,1,5.584-4.721c5.217-2.048,10.877-2.749,16.385-3.514,10.887-1.52,21.828-2.684,32.683-4.463a173.986,173.986,0,0,0,31.821-8.031c1.261-.463,2.512-.938,3.751-1.444C607.724,269.767,607.692,269.638,607.606,269.67Z" transform="translate(-437.785 -124.309)" fill="#455a64"/>
    <path id="Path_2302" data-name="Path 2302" d="M547.533,377.4v8.548c0,7.966-.065,14.94-.464,18.551h0a10.293,10.293,0,0,1-.582,2.458.107.107,0,0,1,0,.054c-2.361,1.617-65.97,3.794-68.212,3.126s-.507-7.125,1.9-9.173,26.388-13.776,26.388-13.776l-.119-8.624Z" transform="translate(-439.845 -115.912)" fill="#c7c7c7"/>
    <path id="Path_2303" data-name="Path 2303" d="M478.236,409.6c2.253.668,65.852-1.509,68.212-3.126.916-.6,1.078-9.885,1.078-21.117v-.345l-41.048.938v.7S482.5,398.366,480.09,400.425,475.994,408.93,478.236,409.6Z" transform="translate(-439.85 -115.318)" fill="#455a64"/>
    <path id="Path_2304" data-name="Path 2304" d="M478.762,405.654c10.715-.636,53.973-2.156,64.612-1.973.086,0,.086.065,0,.065-10.6.862-53.9,2.037-64.6,2.08C478.546,405.826,478.536,405.665,478.762,405.654Z" transform="translate(-439.739 -113.864)" fill="#263238"/>
    <path id="Path_2305" data-name="Path 2305" d="M501.218,386.781c4.193-.927,9.378-.453,12.709,2.436.129.119,0,.291-.172.259a59.105,59.105,0,0,0-12.493-2.156.27.27,0,0,1-.043-.539Z" transform="translate(-437.995 -115.214)" fill="#263238"/>
    <path id="Path_2306" data-name="Path 2306" d="M498.458,388.581c4.193-.927,9.367-.453,12.7,2.436.129.119,0,.291-.172.259a58.987,58.987,0,0,0-12.493-2.156.27.27,0,0,1-.032-.539Z" transform="translate(-438.211 -115.073)" fill="#263238"/>
    <path id="Path_2307" data-name="Path 2307" d="M495.688,390.381c4.193-.927,9.378-.464,12.7,2.436.129.119,0,.291-.172.259a58.3,58.3,0,0,0-12.493-2.156.27.27,0,1,1-.032-.539Z" transform="translate(-438.427 -114.933)" fill="#263238"/>
    <path id="Path_2308" data-name="Path 2308" d="M499.948,397.847H550.4s-5.7-91.625,3.115-98.19c11.265-8.365,46.05-6.985,65.809-20.7,16.04-11.124,4.786-47.57,4.786-47.57H579.479s-5.605,6.823-6.64,10.833c0,0-50.329,14.714-63.179,31.013C492.435,295.107,499.948,397.847,499.948,397.847Z" transform="translate(-438.202 -127.293)" fill="#263238"/>
    <path id="Path_2309" data-name="Path 2309" d="M570.97,242.46a278.672,278.672,0,0,0-32.532,11.1,115.723,115.723,0,0,0-15.091,7.686c-4.754,2.9-9.529,6.134-13.086,10.467a37.2,37.2,0,0,0-6.791,14.11,126.632,126.632,0,0,0-2.975,16.924,335.725,335.725,0,0,0-2.372,37.523c-.075,6.285,0,12.569.108,18.853s1.078,32.737,1.186,34.29a.07.07,0,0,0,.14,0c.119-12.44-.377-35.508-.356-47.947a365.285,365.285,0,0,1,1.746-37.146c.625-5.939,1.369-11.857,2.533-17.754a45.36,45.36,0,0,1,5.293-14.9c2.889-4.775,7.211-8.311,11.857-11.372a116.887,116.887,0,0,1,14.746-8.257,251.709,251.709,0,0,1,31.659-11.922c1.347-.431,2.695-.895,4.042-1.337a.172.172,0,0,0-.108-.323Z" transform="translate(-438.22 -126.43)" fill="#455a64"/>
    <path id="Path_2310" data-name="Path 2310" d="M573.417,242.6c-.69-.183-1.358-.442-2.07-.571s-1.423-.237-2.156-.334c-1.391-.183-2.792-.334-4.193-.464-2.857-.269-5.724-.291-8.624-.474-.086,0-.086.129,0,.14,2.889.183,5.756.7,8.624,1.078,1.38.2,2.77.42,4.15.647.711.108,1.423.226,2.156.313s1.358.065,2.037.119C573.654,243.175,573.686,242.668,573.417,242.6Z" transform="translate(-433.682 -126.562)" fill="#263238"/>
    <path id="Path_2311" data-name="Path 2311" d="M576.608,232.133c-.959,1.38-1.854,2.813-2.781,4.215l-1.358,2.07a13.817,13.817,0,0,1-1.272,1.789c-.841.959-2.695,1.574-3.158-.075a3.137,3.137,0,0,1,.291-2.048c.291-.69.614-1.369.959-2.027.8-1.563,1.735-3.04,2.641-4.549,0-.075-.065-.151-.129-.086a23.557,23.557,0,0,0-3.137,4.312c-.8,1.347-1.875,2.964-1.5,4.6a2.242,2.242,0,0,0,3.234,1.488c1.477-.679,2.231-2.468,3.008-3.784,1.132-1.93,2.318-3.837,3.406-5.789a.118.118,0,0,0-.2-.119Z" transform="translate(-432.842 -127.292)" fill="#263238"/>
    <path id="Path_2312" data-name="Path 2312" d="M609.13,253.515c-1-.259-2.08-.313-3.1-.507s-2.07-.377-3.094-.636a38.285,38.285,0,0,1-5.735-1.865,13.441,13.441,0,0,1-4.409-2.813,9.582,9.582,0,0,1-2.425-4.991c-.226-1.078-.377-2.156-.507-3.234a6.575,6.575,0,0,1,.2-3.3h0l.065-.2c0-.086-.108-.129-.151,0a4.808,4.808,0,0,0-.755,2.663,30.94,30.94,0,0,0,.108,3.158,11.859,11.859,0,0,0,1.725,5.864c2.328,3.374,6.651,4.829,10.478,5.681a31.638,31.638,0,0,0,3.773.625c.636.065,1.283.075,1.919.1a11.155,11.155,0,0,0,1.9,0C609.367,253.914,609.324,253.569,609.13,253.515Z" transform="translate(-431.117 -126.942)" fill="#263238"/>
    <path id="Path_2313" data-name="Path 2313" d="M618.511,239.421c-.356-1.649-.722-3.3-1.078-4.948,0-.086-.14,0-.129,0,2.393,11.954,4.937,26.14-2.813,36.65-3.579,4.862-8.936,7.276-14.477,8.882-6.112,1.779-12.343,3.072-18.53,4.517s-12.612,3.018-18.778,5.045c-5.3,1.746-11,3.654-15.393,7.33a17.117,17.117,0,0,0-4.786,6.349,28.29,28.29,0,0,0-1.951,8.225c-.334,3.094-.431,6.209-.571,9.313q-.226,5.325-.366,10.65-.582,21.16.226,42.331c.065,1.735.356,9.529.453,11.254a.226.226,0,0,0,.442,0c-.453-14.164-.949-34.376-.668-48.508.129-6.985.345-14.013.711-20.955.313-5.929,1.078-12.235,5.228-16.7,3.988-4.312,9.777-6.306,15.091-8.138a191.131,191.131,0,0,1,18.724-5.2c6.284-1.477,12.612-2.8,18.864-4.484,5.39-1.434,10.844-3.406,14.779-7.643C621.863,264.4,620.893,250.7,618.511,239.421Z" transform="translate(-435 -127.055)" fill="#455a64"/>
    <path id="Path_2314" data-name="Path 2314" d="M546.668,377.013a42.731,42.731,0,0,0-4.4-.183h-4.312c-2.975,0-5.961,0-8.936.086-5.961.086-11.922.194-17.883.4-1.671.054-3.342.086-5.013.183s-3.352.129-5,.367a.065.065,0,0,0,0,.129,78.784,78.784,0,0,0,8.742.216h8.947q8.925-.1,17.872-.323c1.671,0,3.342-.119,5.012-.194a45.656,45.656,0,0,0,5-.334C546.786,377.218,546.851,377.013,546.668,377.013Z" transform="translate(-437.988 -115.956)" fill="#455a64"/>
    <path id="Path_2315" data-name="Path 2315" d="M577.5,179.161c-4.312,20.578-13.054,42.245-15.749,46.61-7.255,11.728-31.26,25-38.806,27.153-3.234.938-13.377-19.651-11.61-22.809s31.746-18.2,33.071-19.974c.949-1.218,14.337-19.144,21.828-30.517C575.979,164.91,578.642,173.76,577.5,179.161Z" transform="translate(-437.204 -131.957)" fill="#eb9481"/>
    <path id="Path_2316" data-name="Path 2316" d="M527.973,247.931c-2.835,1.973-16.751,10.036-21.074,11.362s-17.064,4.258-18.422,1.078,2.307-4.312,2.307-4.312-5.573.377-6.651-2.975,4.689-4.969,4.689-4.969-5.756,0-6.586-3.449,5.239-4.075,5.239-4.075-5.26.226-4.765-2.878c.614-3.74,10.359-3.061,15.027-4.883,1.078-.42,20.891-9.939,20.891-9.939Z" transform="translate(-439.462 -127.955)" fill="#eb9481"/>
    <path id="Path_2317" data-name="Path 2317" d="M486.62,239.573c7.168.5,10.391-.539,16.611-3.9.129-.065.248.108.129.183-5.789,3.848-9.648,5.724-16.773,4.075C486.232,239.843,486.286,239.552,486.62,239.573Z" transform="translate(-439.135 -126.96)" fill="#263238"/>
    <path id="Path_2318" data-name="Path 2318" d="M487.826,246.482c7.492-.151,11-1.229,17.765-4.312.1,0,.183.119.086.172-6.392,3.536-10.284,5.314-17.786,4.484C487.557,246.816,487.481,246.482,487.826,246.482Z" transform="translate(-439.037 -126.452)" fill="#263238"/>
    <path id="Path_2319" data-name="Path 2319" d="M490.493,253.818c7.244-.658,11.135-1.682,17.333-5.476a.132.132,0,1,1,.151.216c-5.94,4.484-10.78,5.8-17.441,5.487C490.083,254.022,490.04,253.861,490.493,253.818Z" transform="translate(-438.837 -125.973)" fill="#263238"/>
    <path id="Path_2320" data-name="Path 2320" d="M521.9,220.924s-8.71-2.264-12.752-2.4-19.338,4.851-18.444,8.214c1.153,4.312,10.542,3.234,15.091,2.027,0,0,2.663,10.046,9.572,10.682S521.9,220.924,521.9,220.924Z" transform="translate(-438.799 -128.296)" fill="#eb9481"/>
    <path id="Path_2321" data-name="Path 2321" d="M491.362,227.151c3.9,3.234,9.7,1.283,14.218.485a.41.41,0,0,1,.507.464c1.391,4.129,4.57,9.561,8.99,10.844a.108.108,0,1,1,0,.216c-4.926-.744-8.483-5.821-9.7-10.445-4.581.895-10.521,2.555-14.013-1.531C491.308,227.161,491.33,227.129,491.362,227.151Z" transform="translate(-438.747 -127.624)" fill="#263238"/>
    <path id="Path_2322" data-name="Path 2322" d="M519.69,223.37l14.261,25.235s24.06-12.828,27.445-21.171c1.078-2.544,12.483-28.911,14.919-43.948s-1.5-16.029-10.78-4.959-21.419,29.417-22.691,30.732S519.69,223.37,519.69,223.37Z" transform="translate(-436.536 -131.993)" fill="#ebebeb"/>
    <path id="Path_2323" data-name="Path 2323" d="M622.652,250.21l-62.144,4.064c-.28-.27-6.069-3.579-5.465-12.731,1.38-20.858,7.395-58.651,11.771-66.606a13.571,13.571,0,0,1,18.422-5.864c3.751,2.274,7.211,5.271,11.61,11.631,10.779,15.652,22.508,43.387,26.5,58.651C624.991,245.65,622.8,250.027,622.652,250.21Z" transform="translate(-433.784 -132.272)" fill="#ffc727"/>
    <path id="Path_2324" data-name="Path 2324" d="M573.08,183.308c1.078-.334,6.565-7.815,7.546-12.709.065-.334-1.326-3.234-2.846-6.8-.916-2.156-1.886-4.624-2.609-6.92-.14-.474-1.477.895-1.477.895l-2.738,1.66-9.076,5.476a38.116,38.116,0,0,1,4.161,8.376,5.523,5.523,0,0,1,.194.97v.162C566.526,176.3,571.355,183.869,573.08,183.308Z" transform="translate(-433.248 -133.108)" fill="#eb9481"/>
    <path id="Path_2325" data-name="Path 2325" d="M566.227,174.172v.162a10.287,10.287,0,0,0,1.509-.377c9.626-3.234,6.953-15.986,6.953-15.986l-3.773,1.38-9.076,5.476A38.116,38.116,0,0,1,566,173.2a5.515,5.515,0,0,1,.226.97Z" transform="translate(-433.251 -133.016)" fill="#263238"/>
    <path id="Path_2326" data-name="Path 2326" d="M569.6,171.16h0" transform="translate(-432.646 -131.987)" fill="none" stroke="#f4a69d" stroke-linecap="round" stroke-linejoin="round" stroke-width="0"/>
    <path id="Path_2327" data-name="Path 2327" d="M573.388,144.6c2.555,4.98,2.533,20.7-.6,24.793-4.538,5.9-13.345,7.977-18.7,2.156-5.174-5.53-4.8-26.011-1.175-29.891C558.242,136.007,569.6,137.257,573.388,144.6Z" transform="translate(-434.159 -134.562)" fill="#eb9481"/>
    <path id="Path_2328" data-name="Path 2328" d="M559.475,155.08a.078.078,0,0,1,.076.086c0,1.078.119,2.285,1.078,2.63v.054C559.443,157.689,559.271,156.072,559.475,155.08Z" transform="translate(-433.441 -133.241)" fill="#263238"/>
    <path id="Path_2329" data-name="Path 2329" d="M560.413,154.05c1.7-.14,1.843,3.234.27,3.406S558.968,154.158,560.413,154.05Z" transform="translate(-433.44 -133.321)" fill="#263238"/>
    <path id="Path_2330" data-name="Path 2330" d="M553.864,155.48s-.076.054-.076.1c.076,1.078,0,2.274-.949,2.673h0C554.015,158.089,554.09,156.461,553.864,155.48Z" transform="translate(-433.952 -133.21)" fill="#263238"/>
    <path id="Path_2331" data-name="Path 2331" d="M552.963,154.49c-1.7-.054-1.692,3.363-.108,3.417S554.4,154.533,552.963,154.49Z" transform="translate(-434.043 -133.287)" fill="#263238"/>
    <path id="Path_2332" data-name="Path 2332" d="M561.729,152.721c-.474-.1-.884-.269-1.347-.41a2.3,2.3,0,0,1-1.283-.679.733.733,0,0,1,.075-.884,1.8,1.8,0,0,1,1.8-.259,2.63,2.63,0,0,1,1.563,1.078.776.776,0,0,1-.808,1.153Z" transform="translate(-433.473 -133.609)" fill="#c7c7c7"/>
    <path id="Path_2333" data-name="Path 2333" d="M551.646,153.171c.474-.1.884-.27,1.347-.41a2.3,2.3,0,0,0,1.283-.679.711.711,0,0,0-.075-.884,1.8,1.8,0,0,0-1.8-.259,2.587,2.587,0,0,0-1.563,1.078.776.776,0,0,0,.808,1.153Z" transform="translate(-434.117 -133.574)" fill="#c7c7c7"/>
    <path id="Path_2334" data-name="Path 2334" d="M560.908,164.152c-.248.259-.485.6-.862.658a3.04,3.04,0,0,1-1.153-.216s-.065,0,0,.054a1.444,1.444,0,0,0,1.369.517,1.143,1.143,0,0,0,.8-.97C561.026,164.13,560.94,164.108,560.908,164.152Z" transform="translate(-433.483 -132.535)" fill="#263238"/>
    <path id="Path_2335" data-name="Path 2335" d="M560.042,162.062a3.557,3.557,0,0,1-2.328,1.7,4.312,4.312,0,0,1-1.294.119.927.927,0,0,1-.248,0h-.237a.269.269,0,0,1-.226-.226h0a.336.336,0,0,1,0-.108h0v-.086a19.928,19.928,0,0,1,0-2.059c-.291.162-1.779.905-1.779.485a54.393,54.393,0,0,1,.938-10.963.1.1,0,0,1,.194,0c.075,3.4-.442,6.78-.42,10.187a6.316,6.316,0,0,1,1.671-.582c.119,0-.086,2.393,0,2.76a5.023,5.023,0,0,0,3.676-1.315C560.021,161.911,560.107,161.976,560.042,162.062Z" transform="translate(-433.868 -133.572)" fill="#263238"/>
    <path id="Path_2336" data-name="Path 2336" d="M556.67,162.644a4.236,4.236,0,0,0,1.768,1.25,1.865,1.865,0,0,0,1.164,0c.841-.259.83-1.078.647-1.692a4.306,4.306,0,0,0-.431-.992,5.487,5.487,0,0,1-3.148,1.434Z" transform="translate(-433.654 -132.763)" fill="#263238"/>
    <path id="Path_2337" data-name="Path 2337" d="M558.31,163.822a1.865,1.865,0,0,0,1.164,0c.841-.259.83-1.078.647-1.692A1.983,1.983,0,0,0,558.31,163.822Z" transform="translate(-433.526 -132.691)" fill="#ff99ba"/>
    <path id="Path_2338" data-name="Path 2338" d="M550.82,146.98c.528-1.369.906-4.01,2.264-4.517.97-.366,1.52,1.585,3.363,1.628,2.49.065,3.924-2.21,7.373-2.609,4.969-.561,6.586,4.969,7.007,12.041.388,6.317,4.226,6.737,4.226,6.737s1.7-14.013-2.425-18.465-13.216-6.08-19.08-1.423C551.413,142.076,550.82,146.98,550.82,146.98Z" transform="translate(-434.11 -134.605)" fill="#c7c7c7"/>
    <path id="Path_2339" data-name="Path 2339" d="M572.742,136.275a1.455,1.455,0,1,1-.43-1.033,1.466,1.466,0,0,1,.43,1.033Z" transform="translate(-432.63 -134.82)" fill="#37474f"/>
    <path id="Path_2340" data-name="Path 2340" d="M575.1,149.846c-.647-.593-9.583-6.608-11.857-7a70.064,70.064,0,0,0-10.715-.194c-1.4.162-3.881-2-3.234-3.471.8-1.7,5.39-2,8.279-2.576s11.275-2.07,15.9.485c3.546,1.962,7.794,6.08,7,9.249C579.814,149.275,575.1,149.846,575.1,149.846Z" transform="translate(-434.237 -134.755)" fill="#455a64"/>
    <g id="Group_80" data-name="Group 80" transform="translate(117.07 12.325)" opacity="0.2">
      <path id="Path_2341" data-name="Path 2341" d="M557.93,147.841a11.57,11.57,0,0,1-1.725.194c-.593,0-1.175-.108-1.757-.1a9.5,9.5,0,0,0-3.234.83c-.086,0-.076.1,0,.065a8.073,8.073,0,0,1,3.417-.6,10.638,10.638,0,0,0,2.867-.065,10.3,10.3,0,0,1,6.392.41h0a10.446,10.446,0,0,0-5.961-.733Z" transform="translate(-551.154 -146.141)"/>
      <path id="Path_2342" data-name="Path 2342" d="M557.884,146.4a10.581,10.581,0,0,1-1.639.183c-.56,0-1.078-.108-1.671-.086a8.785,8.785,0,0,0-3.04.776c-.086,0-.075.1,0,.065a7.621,7.621,0,0,1,3.234-.571,9.96,9.96,0,0,0,2.716-.065,9.82,9.82,0,0,1,6.069.388h0a9.852,9.852,0,0,0-5.67-.69Z" transform="translate(-551.129 -146.254)"/>
    </g>
    <path id="Path_2343" data-name="Path 2343" d="M551.684,162.328c-1.757,0-3.234-2.156-3.234-4.829s1.445-4.829,3.234-4.829,3.234,2.156,3.234,4.829S553.452,162.328,551.684,162.328Zm0-9.012c-1.4,0-2.544,1.876-2.555,4.182s1.143,4.182,2.555,4.182,2.544-1.876,2.544-4.182-1.121-4.182-2.533-4.182Z" transform="translate(-434.294 -133.429)" fill="#455a64"/>
    <path id="Path_2344" data-name="Path 2344" d="M561.873,162.339a4.84,4.84,0,1,1,4.517-4.829,4.678,4.678,0,0,1-4.517,4.829Zm0-9.012a4.193,4.193,0,1,0,3.859,4.182,4.031,4.031,0,0,0-3.848-4.182Z" transform="translate(-433.651 -133.429)" fill="#455a64"/>
    <path id="Path_2345" data-name="Path 2345" d="M557.8,156.825c-2.415-.852-3.514-.065-3.514-.054l-.4-.507s1.347-1.078,4.128,0Z" transform="translate(-433.87 -133.186)" fill="#455a64"/>
    <path id="Path_2346" data-name="Path 2346" d="M565.4,156.925l-.119-.636c.42-.075,7.47-1.444,8.548-1.509s3.762,1.423,4.064,1.585l-.323.561a12.408,12.408,0,0,0-3.654-1.5h0C573.041,155.47,568.934,156.278,565.4,156.925Z" transform="translate(-432.983 -133.264)" fill="#455a64"/>
    <path id="Path_2347" data-name="Path 2347" d="M570.874,156.6s2.641-5.5,5.077-4.635,1.013,8.451-1.455,9.852a2.706,2.706,0,0,1-3.816-.852Z" transform="translate(-432.562 -133.491)" fill="#eb9481"/>
    <path id="Path_2348" data-name="Path 2348" d="M575.387,154v.065a6.834,6.834,0,0,0-2.8,4.8,1.488,1.488,0,0,1,2.156-.755c.054,0,0,.108,0,.1a1.671,1.671,0,0,0-1.714.873,7.641,7.641,0,0,0-.625,1.606c-.065.183-.377.14-.345-.065h0C571.614,158.2,572.908,154.614,575.387,154Z" transform="translate(-432.461 -133.325)" fill="#263238"/>
    <path id="Path_2349" data-name="Path 2349" d="M566.062,173.779l5.918,7.643,7.61-13.852,4.01,2.641s-5.595,20.179-5.886,19.4l-5.605-6.414-3.665,6.586-3.234-13.043Z" transform="translate(-432.988 -132.267)" fill="#ebebeb"/>
    <path id="Path_2350" data-name="Path 2350" d="M566.457,183.188c-.464-2.156-.981-4.312-1.337-6.532a.077.077,0,0,1,.14-.065c1,1.94,2.706,10.251,3.234,12.2h0c.151-.291,3.471-5.864,3.536-5.81,1.078.959,5.206,5.627,5.519,6.069.873-3.234,4.409-14.951,5.627-18.088,0-.1.172-.065.151,0-.647,3.309-5.25,19.08-5.39,19.069a88.253,88.253,0,0,1-5.9-6.78c-.5,1.153-3.7,7.3-3.794,6.985a66.534,66.534,0,0,1-1.789-7.05Z" transform="translate(-432.996 -132.007)" fill="#263238"/>
    <path id="Path_2351" data-name="Path 2351" d="M574.767,224.76s-12.321,2.813-20.028,3.579c-4.312.431-11.609,1.822-14.628,3.579-4.506,2.63-21.688,16.514-18.411,20.75,2.964,3.837,16.169-9.96,16.169-9.96s-14.6,12.741-10.176,16.7S545,245.791,545,245.791s-14.7,13.431-9.5,16.794c3.935,2.544,16.5-12.72,16.5-12.72s-12.558,11.631-8.624,14.412C547.7,267.36,560.226,254,560.226,254c11.189,5.39,20.869.927,26.065-1.078C587.595,252.377,574.767,224.76,574.767,224.76Z" transform="translate(-436.412 -127.809)" fill="#eb9481"/>
    <path id="Path_2352" data-name="Path 2352" d="M541.354,237.711c-6.651,5.282-12.084,12.138-13.787,15.264-.216.388-.388.733-.367.7,2.986-3.46,12.58-14.326,14.218-15.91C541.451,237.732,541.4,237.678,541.354,237.711Z" transform="translate(-435.951 -126.801)" fill="#263238"/>
    <path id="Path_2353" data-name="Path 2353" d="M547.446,242.4c-5.605,3.234-10.391,9.906-12.332,12.062-.151.162,0,.183.14,0,2.027-2.08,10.122-10.079,12.245-12.051C547.533,242.411,547.479,242.379,547.446,242.4Z" transform="translate(-435.339 -126.435)" fill="#263238"/>
    <path id="Path_2354" data-name="Path 2354" d="M552.165,246.65a30.021,30.021,0,0,0-8.731,9.109c-.129.194,0,.183.194,0,3.018-3.234,4.829-5.325,8.624-9.012a.075.075,0,0,0-.086-.1Z" transform="translate(-434.69 -126.103)" fill="#263238"/>
    <path id="Path_2355" data-name="Path 2355" d="M585.776,182.347c.83,8.171,11.954,37.556,11.75,39.119s-29.46,7.772-35.411,10.284c-4.031,1.7,6.36,30.323,14.132,27.746,12.052-4,46.3-14.488,49.532-25.741S600.641,184,594.992,177.087,584.461,168.905,585.776,182.347Z" transform="translate(-433.299 -131.921)" fill="#eb9481"/>
    <path id="Path_2356" data-name="Path 2356" d="M562.35,229.393l19.823,32.112s39.2-14.423,44.3-26.226c4.7-10.855-26.949-54.21-32.069-59.815s-10.779-7.255-8.624,9.3,11.685,35.195,10.779,36.262S562.35,229.393,562.35,229.393Z" transform="translate(-433.211 -131.957)" fill="#ebebeb"/>
    <rect id="Rectangle_206" data-name="Rectangle 206" width="90.601" height="34.925" transform="translate(109.973 144.316)" fill="#a6a6a6"/>
    <path id="Path_2357" data-name="Path 2357" d="M620.371,393.734h-75.8v-4.366h75.8a12.461,12.461,0,0,0,12.439-12.44V207.486a16.827,16.827,0,0,1,16.784-16.816h10.219v4.376H649.594a12.439,12.439,0,0,0-12.429,12.439V376.918a16.838,16.838,0,0,1-16.794,16.816Z" transform="translate(-434.597 -130.467)" fill="#c7c7c7"/>
    <path id="Path_2358" data-name="Path 2358" d="M546.916,412.536H542.54V268.091A15.145,15.145,0,0,1,557.631,253h77.483v4.312h-77.44a10.779,10.779,0,0,0-10.779,10.779Z" transform="translate(-434.755 -125.608)" fill="#c7c7c7"/>
    <rect id="Rectangle_207" data-name="Rectangle 207" width="27.11" height="8.699" transform="translate(211.677 57.886)" fill="#263238"/>
    <path id="Path_2359" data-name="Path 2359" d="M628.567,434.891c-33.761,0-61.227-34.279-61.227-76.416s27.466-76.416,61.227-76.416,61.217,34.279,61.217,76.416S662.329,434.891,628.567,434.891Zm0-146.709c-30.333,0-55.126,31.541-55.126,70.347s24.717,70.282,55.1,70.282,55.094-31.53,55.094-70.282S658.944,288.183,628.567,288.183Z" transform="translate(-432.822 -123.343)" fill="#263238"/>
    <path id="Path_2360" data-name="Path 2360" d="M632.537,425.587c-29.87,0-54.167-30.387-54.167-67.738s24.3-67.749,54.167-67.749S686.7,320.5,686.7,357.849,662.407,425.587,632.537,425.587Zm0-131.111c-27.455,0-49.79,28.425-49.79,63.373s22.335,63.362,49.79,63.362,49.79-28.425,49.79-63.362S659.992,294.476,632.537,294.476Z" transform="translate(-431.962 -122.716)" fill="#c7c7c7"/>
    <ellipse id="Ellipse_646" data-name="Ellipse 646" cx="8.785" cy="11.071" rx="8.785" ry="11.071" transform="translate(189.72 224.062)" fill="#c7c7c7"/>
    <ellipse id="Ellipse_647" data-name="Ellipse 647" cx="8.785" cy="11.071" rx="8.785" ry="11.071" transform="translate(192.533 224.062)" fill="#dbdbdb"/>
    <ellipse id="Ellipse_648" data-name="Ellipse 648" cx="11.426" cy="14.412" rx="11.426" ry="14.412" transform="translate(99.776 284.826)" fill="#c7c7c7"/>
    <ellipse id="Ellipse_649" data-name="Ellipse 649" cx="11.426" cy="14.412" rx="11.426" ry="14.412" transform="translate(103.441 284.826)" fill="#dbdbdb"/>
  </g>
</svg>
