<svg xmlns="http://www.w3.org/2000/svg" width="36" height="36" viewBox="0 0 36 36">
  <g id="laesie" transform="translate(-1048.75 -3146)">
    <rect id="Rectangle_30" data-name="Rectangle 30" width="36" height="36" rx="5" transform="translate(1048.75 3146)" fill="#d53668" opacity="0.196"/>
    <g id="_003-band-aid" data-name="003-band-aid" transform="translate(1055.018 3152.268)">
      <path id="Path_1476" data-name="Path 1476" d="M5.916,24.3A5.88,5.88,0,0,1,1.63,14.4a.356.356,0,0,1,.518.488,5.17,5.17,0,0,0,7.425,7.193L22.113,9.534A5.17,5.17,0,0,0,14.8,2.227L3.469,13.56a.356.356,0,0,1-.5-.5L14.294,1.724a5.882,5.882,0,0,1,8.323,8.314L10.077,22.581A5.845,5.845,0,0,1,5.916,24.3Z" transform="translate(-0.033 0)" fill="#d53668"/>
      <path id="Path_1477" data-name="Path 1477" d="M136.975,143.97a1.836,1.836,0,0,1-1.307-.541l-3-3a1.849,1.849,0,0,1,0-2.611l5.075-5.076a1.865,1.865,0,0,1,2.614,0l3,3a1.849,1.849,0,0,1,0,2.611l-.351.351a.356.356,0,0,1-.5-.5l.351-.351a1.136,1.136,0,0,0,0-1.6l-3-3a1.152,1.152,0,0,0-1.607,0l-5.074,5.076a1.136,1.136,0,0,0,0,1.6l3,3a1.152,1.152,0,0,0,1.607,0l3.453-3.454a.356.356,0,0,1,.5.5l-3.453,3.454A1.836,1.836,0,0,1,136.975,143.97Z" transform="translate(-125.862 -125.934)" fill="#d53668"/>
      <g id="Group_38" data-name="Group 38" transform="translate(3.363 3.348)">
        <g id="Group_28" data-name="Group 28" transform="translate(12.323)">
          <g id="Group_23" data-name="Group 23" transform="translate(0 1.419)">
            <g id="Group_20" data-name="Group 20" transform="translate(3.15 3.152)">
              <path id="Path_1478" data-name="Path 1478" d="M397.17,167.512a.356.356,0,0,0,0-.712A.356.356,0,0,0,397.17,167.512Z" transform="translate(-396.826 -166.8)" fill="#d53668"/>
            </g>
            <g id="Group_21" data-name="Group 21" transform="translate(1.575 1.576)">
              <path id="Path_1479" data-name="Path 1479" d="M363.986,134.317a.356.356,0,0,0,0-.712A.356.356,0,0,0,363.986,134.317Z" transform="translate(-363.642 -133.605)" fill="#d53668"/>
            </g>
            <g id="Group_22" data-name="Group 22">
              <path id="Path_1480" data-name="Path 1480" d="M330.8,101.121a.356.356,0,0,0,0-.712A.356.356,0,0,0,330.8,101.121Z" transform="translate(-330.458 -100.409)" fill="#d53668"/>
            </g>
          </g>
          <g id="Group_27" data-name="Group 27" transform="translate(1.418)">
            <g id="Group_24" data-name="Group 24" transform="translate(3.15 3.152)">
              <path id="Path_1481" data-name="Path 1481" d="M427.045,137.627a.356.356,0,0,0,0-.712A.356.356,0,0,0,427.045,137.627Z" transform="translate(-426.701 -136.915)" fill="#d53668"/>
            </g>
            <g id="Group_25" data-name="Group 25" transform="translate(1.575 1.576)">
              <path id="Path_1482" data-name="Path 1482" d="M393.861,104.431a.356.356,0,0,0,0-.712A.356.356,0,0,0,393.861,104.431Z" transform="translate(-393.517 -103.719)" fill="#d53668"/>
            </g>
            <g id="Group_26" data-name="Group 26">
              <path id="Path_1483" data-name="Path 1483" d="M360.677,71.236a.356.356,0,0,0,0-.712A.356.356,0,0,0,360.677,71.236Z" transform="translate(-360.333 -70.524)" fill="#d53668"/>
            </g>
          </g>
        </g>
        <g id="Group_37" data-name="Group 37" transform="translate(0 12.327)">
          <g id="Group_32" data-name="Group 32" transform="translate(0 1.419)">
            <g id="Group_29" data-name="Group 29" transform="translate(3.15 3.152)">
              <path id="Path_1484" data-name="Path 1484" d="M137.585,427.188a.356.356,0,0,0,0-.712A.356.356,0,0,0,137.585,427.188Z" transform="translate(-137.241 -426.476)" fill="#d53668"/>
            </g>
            <g id="Group_30" data-name="Group 30" transform="translate(1.575 1.576)">
              <path id="Path_1485" data-name="Path 1485" d="M104.4,393.993a.356.356,0,0,0,0-.712A.356.356,0,0,0,104.4,393.993Z" transform="translate(-104.057 -393.281)" fill="#d53668"/>
            </g>
            <g id="Group_31" data-name="Group 31">
              <path id="Path_1486" data-name="Path 1486" d="M71.217,360.8a.356.356,0,0,0,0-.712A.356.356,0,0,0,71.217,360.8Z" transform="translate(-70.873 -360.085)" fill="#d53668"/>
            </g>
          </g>
          <g id="Group_36" data-name="Group 36" transform="translate(1.418)">
            <g id="Group_33" data-name="Group 33" transform="translate(3.15 3.152)">
              <path id="Path_1487" data-name="Path 1487" d="M167.459,397.3a.356.356,0,0,0,0-.712A.356.356,0,0,0,167.459,397.3Z" transform="translate(-167.115 -396.591)" fill="#d53668"/>
            </g>
            <g id="Group_34" data-name="Group 34" transform="translate(1.575 1.576)">
              <path id="Path_1488" data-name="Path 1488" d="M134.275,364.107a.356.356,0,0,0,0-.712A.356.356,0,0,0,134.275,364.107Z" transform="translate(-133.931 -363.395)" fill="#d53668"/>
            </g>
            <g id="Group_35" data-name="Group 35">
              <path id="Path_1489" data-name="Path 1489" d="M101.091,330.912a.356.356,0,0,0,0-.712A.356.356,0,0,0,101.091,330.912Z" transform="translate(-100.747 -330.2)" fill="#d53668"/>
            </g>
          </g>
        </g>
      </g>
    </g>
  </g>
</svg>
