<svg xmlns="http://www.w3.org/2000/svg" width="170.4" height="14.96" viewBox="0 0 170.4 14.96">
  <path id="nav-logo" d="M10.82,0h3.62L9.36-14.04H5.4L.32,0H3.9l.84-2.48H9.98ZM9.1-5.12H5.64l1.72-5.14Zm6.3-1.92A6.8,6.8,0,0,0,22.46.1a6.5,6.5,0,0,0,6.66-4.9H25.36A3.093,3.093,0,0,1,22.42-3c-2.1,0-3.54-1.56-3.54-4.04s1.44-4.04,3.54-4.04a3.093,3.093,0,0,1,2.94,1.8h3.76a6.519,6.519,0,0,0-6.66-4.92A6.821,6.821,0,0,0,15.4-7.04ZM30.46-11.3h3.72V0H37.6V-11.3h3.72v-2.74H30.46ZM43.04,0h3.42V-14.04H43.04Zm14.5-14.04h-8.6V0h8.6V-2.74H52.36V-5.82h4.58V-8.46H52.36V-11.3h5.18ZM74.92-5.58a5.505,5.505,0,0,0-5.8-5.74,5.516,5.516,0,0,0-5.8,5.74A5.474,5.474,0,0,0,69.08.16,5.537,5.537,0,0,0,74.92-5.58Zm-8.12,0c0-1.9,1.08-2.78,2.32-2.78,1.2,0,2.32.88,2.32,2.78,0,1.88-1.14,2.78-2.36,2.78C67.84-2.8,66.8-3.7,66.8-5.58ZM84.44,0h3.4V-6.52c0-3-1.72-4.76-4.3-4.76a4.092,4.092,0,0,0-3.38,1.6v-1.48H76.74V0h3.42V-6.06A2.073,2.073,0,0,1,82.3-8.42a2.073,2.073,0,0,1,2.14,2.36Zm5.1-5.6c0,3.52,2.18,5.76,4.92,5.76A3.86,3.86,0,0,0,97.9-1.6V0h3.42V-14.8H97.9v5.18a4.1,4.1,0,0,0-3.44-1.7C91.72-11.32,89.54-9.12,89.54-5.6Zm8.36.02a2.492,2.492,0,0,1-2.44,2.76A2.521,2.521,0,0,1,93.02-5.6a2.485,2.485,0,0,1,2.44-2.74A2.492,2.492,0,0,1,97.9-5.58Zm10.82-3a1.929,1.929,0,0,1,2.1,1.92h-4.28A2.115,2.115,0,0,1,108.72-8.58Zm5.34,4.88h-3.64a1.818,1.818,0,0,1-1.78,1.08,2.069,2.069,0,0,1-2.12-2.14h7.74a8.642,8.642,0,0,0,.06-1,5.259,5.259,0,0,0-5.56-5.56,5.36,5.36,0,0,0-5.64,5.74A5.38,5.38,0,0,0,108.76.16,5.216,5.216,0,0,0,114.06-3.7Zm5.48-1.48c0-1.92.94-2.48,2.56-2.48h.94v-3.62a4.16,4.16,0,0,0-3.5,1.98v-1.86h-3.42V0h3.42Zm13.08-5.98H124.1v2.82h4.6l-4.64,5.62V0h8.66V-2.82h-4.84l4.74-5.62Zm12.9,5.58a5.505,5.505,0,0,0-5.8-5.74,5.516,5.516,0,0,0-5.8,5.74A5.474,5.474,0,0,0,139.68.16,5.537,5.537,0,0,0,145.52-5.58Zm-8.12,0c0-1.9,1.08-2.78,2.32-2.78,1.2,0,2.32.88,2.32,2.78,0,1.88-1.14,2.78-2.36,2.78C138.44-2.8,137.4-3.7,137.4-5.58Zm14.86-3a1.929,1.929,0,0,1,2.1,1.92h-4.28A2.115,2.115,0,0,1,152.26-8.58ZM157.6-3.7h-3.64a1.818,1.818,0,0,1-1.78,1.08,2.069,2.069,0,0,1-2.12-2.14h7.74a8.64,8.64,0,0,0,.06-1,5.259,5.259,0,0,0-5.56-5.56,5.36,5.36,0,0,0-5.64,5.74A5.38,5.38,0,0,0,152.3.16,5.216,5.216,0,0,0,157.6-3.7ZM159.66,0h3.42V-4.68L166.48,0h4.24l-4.68-5.56,4.64-5.6h-4.22l-3.38,4.54V-14.8h-3.42Z" transform="translate(-0.32 14.8)" fill="#101010"/>
</svg>
