<svg id="sia_logo" xmlns="http://www.w3.org/2000/svg" width="142.473" height="74.947" viewBox="0 0 142.473 74.947">
  <g id="Homepage" transform="translate(0 0)">
    <g id="Logo-_-Logo-Blue" data-name="Logo-/-Logo-Blue" transform="translate(0 0)">
      <g id="Group-18" transform="translate(0 0)">
        <path id="Fill-1" d="M3.466,86.732c1.172,0,1.579-.683,1.579-1.757,0-1.105-.424-1.869-1.579-1.869h-1.3v3.626ZM0,81.284H3.646c2.57,0,3.676,1.35,3.676,3.529A3.309,3.309,0,0,1,5.484,88.1v.113c.52.634,2.034,3.774,2.473,3.986V92.5H5.581c-.5-.324-1.806-3.5-2.212-3.853H2.2V92.5H0Z" transform="translate(0 -29.995)" fill="#4159bc" fill-rule="evenodd"/>
        <path id="Fill-3" d="M18,89.271a1.556,1.556,0,0,0,.017-.277c0-.943-.439-1.431-1.27-1.431-.8,0-1.3.554-1.365,1.708Zm-1.269-3.09a2.878,2.878,0,0,1,3.173,3.057,9.869,9.869,0,0,1-.115,1.366H15.334c0,1.61.423,2.309,1.367,2.309a1.073,1.073,0,0,0,1.171-1.123v-.2l1.954.033a2.249,2.249,0,0,1,.031.309c0,.878-.471,2.537-3.156,2.537-2.327,0-3.416-1.512-3.416-4.147,0-2.341,1.025-4.147,3.448-4.147Z" transform="translate(-4.903 -31.803)" fill="#4159bc" fill-rule="evenodd"/>
        <path id="Fill-5" d="M30.128,91.645v-3.09a1.313,1.313,0,0,0-1.106-.749c-.7,0-1.416.473-1.416,2.342,0,1.805.715,2.261,1.4,2.261a1.321,1.321,0,0,0,1.122-.764Zm-2.279,3.22v.211A.939.939,0,0,0,28.875,96.1c.814,0,1.384-.65,1.384-1.984V93.108h-.1a2.413,2.413,0,0,1-1.919.926c-1.32,0-2.784-1.057-2.784-3.9s1.464-3.953,2.784-3.953a2.465,2.465,0,0,1,2.067,1.09h.081l.277-.927h1.593v7.515c0,2.569-1.4,3.87-3.336,3.87-2.066,0-3.107-1.139-3.107-2.5a4.189,4.189,0,0,1,.031-.423Z" transform="translate(-9.395 -31.802)" fill="#4159bc" fill-rule="evenodd"/>
        <path id="Fill-7" d="M38.769,92.5h2.114V84.537H38.769Zm0-9.269h2.114V81.283H38.769Z" transform="translate(-14.307 -29.995)" fill="#4159bc" fill-rule="evenodd"/>
        <path id="Fill-9" d="M49.084,89.271a1.658,1.658,0,0,0,.015-.277c0-.943-.439-1.431-1.269-1.431-.8,0-1.3.554-1.366,1.708Zm-1.27-3.09a2.878,2.878,0,0,1,3.173,3.057,9.711,9.711,0,0,1-.115,1.366H46.416c0,1.61.423,2.309,1.367,2.309a1.074,1.074,0,0,0,1.171-1.123v-.2l1.953.033a2.1,2.1,0,0,1,.032.309c0,.878-.471,2.537-3.156,2.537-2.327,0-3.417-1.512-3.417-4.147,0-2.341,1.025-4.147,3.448-4.147Z" transform="translate(-16.372 -31.803)" fill="#4159bc" fill-rule="evenodd"/>
        <path id="Fill-10" d="M61.3,90.344c0-1.886-.489-2.537-1.318-2.537s-1.318.651-1.318,2.537c0,1.854.488,2.52,1.318,2.52S61.3,92.2,61.3,90.344m-1.318-4.162c2.342,0,3.465,1.626,3.465,4.162,0,2.52-1.123,4.131-3.465,4.131-2.36,0-3.466-1.611-3.466-4.131,0-2.537,1.106-4.162,3.466-4.162" transform="translate(-20.855 -31.803)" fill="#4159bc" fill-rule="evenodd"/>
        <path id="Fill-11" d="M71.878,94.311H69.747V86.343h1.579l.243,1.09h.1a2.052,2.052,0,0,1,1.79-1.253c1.433,0,1.806,1.139,1.806,2.309a4.7,4.7,0,0,1-.145,1.2l-1.824-.115a5.02,5.02,0,0,0,.066-.666c0-.7-.212-1.09-.6-1.09-.471,0-.766.554-.879,1.024Z" transform="translate(-25.738 -31.802)" fill="#4159bc" fill-rule="evenodd"/>
        <path id="Fill-12" d="M84.372,91.645v-3.09a1.312,1.312,0,0,0-1.1-.749c-.7,0-1.416.473-1.416,2.342,0,1.805.714,2.261,1.4,2.261a1.32,1.32,0,0,0,1.122-.764ZM82.1,94.865v.211A.939.939,0,0,0,83.12,96.1c.813,0,1.383-.65,1.383-1.984V93.108h-.1a2.413,2.413,0,0,1-1.919.926c-1.319,0-2.783-1.057-2.783-3.9s1.464-3.953,2.783-3.953a2.461,2.461,0,0,1,2.067,1.09h.081l.278-.927H86.5v7.515c0,2.569-1.4,3.87-3.336,3.87-2.067,0-3.108-1.139-3.108-2.5a3.913,3.913,0,0,1,.032-.423Z" transform="translate(-29.412 -31.802)" fill="#4159bc" fill-rule="evenodd"/>
        <path id="Fill-13" d="M95.328,93.011a1.9,1.9,0,0,0,1.465-.927V90.832c-1.791.05-2.279.521-2.279,1.22,0,.6.291.959.813.959Zm-2.506-3.773a3.374,3.374,0,0,1-.05-.553c0-1.529.978-2.5,3.076-2.5,2.358,0,3.01,1.382,3.01,2.895v3.3c0,.309.1.454.277.454a1.047,1.047,0,0,0,.326-.064l.08,1.512a3.619,3.619,0,0,1-1.154.2,1.143,1.143,0,0,1-1.269-1.253h-.082A2.892,2.892,0,0,1,94.6,94.476a1.922,1.922,0,0,1-2.1-2.164c0-1.5,1.042-2.634,4.3-2.683v-.684c0-.7-.327-1.22-1.043-1.22-.748,0-1.09.326-1.09,1.025a3.536,3.536,0,0,0,.033.375Z" transform="translate(-34.133 -31.803)" fill="#4159bc" fill-rule="evenodd"/>
        <path id="Fill-14" d="M107.71,93.011a1.9,1.9,0,0,0,1.464-.927V90.832c-1.79.05-2.277.521-2.277,1.22,0,.6.292.959.813.959ZM105.2,89.238a3.487,3.487,0,0,1-.049-.553c0-1.529.977-2.5,3.076-2.5,2.358,0,3.01,1.382,3.01,2.895v3.3c0,.309.1.454.277.454a1.035,1.035,0,0,0,.324-.064l.081,1.512a3.619,3.619,0,0,1-1.154.2,1.144,1.144,0,0,1-1.27-1.253h-.082a2.89,2.89,0,0,1-2.44,1.253,1.922,1.922,0,0,1-2.1-2.164c0-1.5,1.041-2.634,4.3-2.683v-.684c0-.7-.326-1.22-1.042-1.22-.748,0-1.09.326-1.09,1.025,0,.083.017.244.033.375Z" transform="translate(-38.703 -31.803)" fill="#4159bc" fill-rule="evenodd"/>
        <path id="Fill-15" d="M117.8,86.343h1.579l.244,1.155h.082a2.259,2.259,0,0,1,2.016-1.318c1.416,0,2.409.894,2.409,3.2v4.926h-2.115V89.58c0-1.383-.324-1.773-.959-1.773a1.309,1.309,0,0,0-1.123.911v5.594H117.8Z" transform="translate(-43.471 -31.802)" fill="#4159bc" fill-rule="evenodd"/>
        <path id="Fill-16" d="M165.812,55.065H165.7c-.146.732-.227,1.284-.406,1.935l-.8,2.959h2.522L166.234,57c-.161-.6-.276-1.187-.423-1.935" transform="translate(-60.702 -20.32)" fill="#4159bc" fill-rule="evenodd"/>
        <path id="Fill-17" d="M141.515,43.982l-.7-2.537h-3.269l-.683,2.537h-2.276l3.237-11.221h2.716l3.238,11.221Zm-11.115,0h2.18V32.761H130.4Zm-6.1.163c-3.271,0-3.791-2.082-3.791-3.383a3.109,3.109,0,0,1,.049-.521l2.2-.049a2.812,2.812,0,0,0-.018.358,1.492,1.492,0,0,0,1.626,1.658c.961,0,1.53-.552,1.53-1.219a1.377,1.377,0,0,0-1.09-1.4l-1.822-.667a3.009,3.009,0,0,1-2.294-3.075c0-1.933,1.268-3.251,3.66-3.251,3.011,0,3.545,1.9,3.545,3.09a3.034,3.034,0,0,1-.031.537l-2.165.031a2.711,2.711,0,0,0,.017-.341,1.224,1.224,0,0,0-1.383-1.382c-.96,0-1.417.536-1.417,1.187a1.332,1.332,0,0,0,1.043,1.366l1.9.667a3.028,3.028,0,0,1,2.31,3.09c0,1.983-1.365,3.3-3.871,3.3Zm32.275-2.9c-6.523-.2-8-7.519-2.894-10.663l15.628-9.155-2.769-4.725-16.668,9.762c-10.976,5.7-21.612-.926-21.752-11.7V0h-5.48V17.834A23.158,23.158,0,0,1,99.211,41.249H92.479v5.477h21.494a8.462,8.462,0,0,1,8.665,8.661v19.56h5.48V67.763c.14-12.087,8.741-20.821,21.05-21.037H176.6V41.249Z" transform="translate(-34.127 0)" fill="#4159bc" fill-rule="evenodd"/>
      </g>
    </g>
  </g>
</svg>
