<svg xmlns="http://www.w3.org/2000/svg" width="36" height="36" viewBox="0 0 36 36">
  <g id="slaap" transform="translate(-756.75 -3384)">
    <rect id="Rectangle_30" data-name="Rectangle 30" width="36" height="36" rx="5" transform="translate(756.75 3384)" fill="#61bb8d" opacity="0.196"/>
    <g id="_002-moon" data-name="002-moon" transform="translate(749.596 3391.529)">
      <g id="Group_13" data-name="Group 13" transform="translate(11.467 4.199)">
        <g id="Group_12" data-name="Group 12">
          <path id="Path_1472" data-name="Path 1472" d="M171.453,75.458a1.107,1.107,0,0,0-.768-.239H166.5l3.94-4.4.369-.409.19-.239a1.324,1.324,0,0,0,.16-.3,1,1,0,0,0,.07-.359.748.748,0,0,0-.369-.718,2.224,2.224,0,0,0-1.047-.2h-4.9a1.077,1.077,0,0,0-.728.219.738.738,0,0,0-.259.588q0,.509.339.618a3.2,3.2,0,0,0,1,.12h3.192q-.2.279-.519.658l-.818.918-1.107,1.2-1.287,1.426q-.668.748-.878,1a.938.938,0,0,0,.09,1.287,1.357,1.357,0,0,0,.918.269h5.825a1.136,1.136,0,0,0,.778-.229.758.758,0,0,0,.259-.589A.8.8,0,0,0,171.453,75.458Z" transform="translate(-163.629 -68.592)" fill="#61bb8d"/>
        </g>
      </g>
      <g id="Group_15" data-name="Group 15" transform="translate(21.926 10.633)">
        <g id="Group_14" data-name="Group 14">
          <path id="Path_1473" data-name="Path 1473" d="M253.709,125.725a.878.878,0,0,0-.618-.19h-3.351l3.142-3.511.3-.329.19-.229a1.046,1.046,0,0,0,.13-.239.8.8,0,0,0,.06-.289.6.6,0,0,0-.289-.578,1.775,1.775,0,0,0-.838-.16h-3.95a.868.868,0,0,0-.579.18.589.589,0,0,0-.209.469q0,.4.269.5a2.546,2.546,0,0,0,.8.09h2.553a5.921,5.921,0,0,1-.419.529l-.658.738-.858,1-1,1.137q-.539.6-.708.818a.748.748,0,0,0,.07,1,1.077,1.077,0,0,0,.728.209H253.1a.908.908,0,0,0,.618-.18.608.608,0,0,0,.2-.469A.638.638,0,0,0,253.709,125.725Z" transform="translate(-247.516 -120.197)" fill="#61bb8d"/>
        </g>
      </g>
      <g id="Group_17" data-name="Group 17" transform="translate(30.747 3.641)">
        <g id="Group_16" data-name="Group 16">
          <path id="Path_1474" data-name="Path 1474" d="M326.1,71.028a1.107,1.107,0,0,0-.768-.239h-4.219l3.94-4.4.369-.409.239-.289a1.327,1.327,0,0,0,.16-.3,1,1,0,0,0,.07-.359.748.748,0,0,0-.369-.718,2.226,2.226,0,0,0-1.047-.2H319.53a1.077,1.077,0,0,0-.728.219.738.738,0,0,0-.259.588q0,.509.339.618a3.2,3.2,0,0,0,1,.12h3.192q-.2.279-.519.658l-.828.938-1.077,1.2-1.287,1.426q-.668.748-.878,1a.938.938,0,0,0,.09,1.287,1.356,1.356,0,0,0,.918.269h5.815a1.137,1.137,0,0,0,.8-.2.758.758,0,0,0,.259-.588A.8.8,0,0,0,326.1,71.028Z" transform="translate(-318.269 -64.112)" fill="#61bb8d"/>
        </g>
      </g>
    </g>
  </g>
</svg>
