<svg xmlns="http://www.w3.org/2000/svg" width="36" height="36" viewBox="0 0 36 36">
  <g id="voorkeuren" transform="translate(-464.75 -3384)">
    <rect id="Rectangle_30" data-name="Rectangle 30" width="36" height="36" rx="5" transform="translate(464.75 3384)" fill="#d53668" opacity="0.196"/>
    <g id="_005-heart" data-name="005-heart" transform="translate(470.635 3391.066)">
      <path id="Path_1502" data-name="Path 1502" d="M40.473,262.6a.473.473,0,1,0,.473.473A.473.473,0,0,0,40.473,262.6Zm0,0" transform="translate(-38.107 -250.194)" fill="#d53568"/>
      <path id="Path_1503" data-name="Path 1503" d="M21.751,226.132l-4.461,1.534a1.888,1.888,0,0,0-1.862-2.228H12.363a.473.473,0,0,1-.232-.061l-2.5-1.406a3.315,3.315,0,0,0-1.625-.426H4.651a1.422,1.422,0,0,0-1.338-.946H.473a.473.473,0,0,0-.473.473v8.518a.473.473,0,0,0,.473.473H3.313a1.423,1.423,0,0,0,1.325-.911,4.32,4.32,0,0,1,1.545.459L8.657,233.1a6.033,6.033,0,0,0,5.6.32l8.833-3.889a1.824,1.824,0,0,0-1.34-3.394ZM3.786,230.645a.474.474,0,0,1-.473.471H.946v-7.572H3.313a.474.474,0,0,1,.473.473Zm18.945-1.995-.015.006-8.847,3.9a5.086,5.086,0,0,1-4.724-.268L6.669,230.8a5.218,5.218,0,0,0-1.937-.589v-5.719H8.006a2.368,2.368,0,0,1,1.16.3l2.5,1.406a1.422,1.422,0,0,0,.7.183h3.065a.946.946,0,1,1,0,1.893H10.617a.473.473,0,1,0,0,.946h4.811a1.889,1.889,0,0,0,.887-.222l5.754-1.978a.878.878,0,1,1,.663,1.627Zm0,0" transform="translate(0 -212.087)" fill="#d53568"/>
      <path id="Path_1504" data-name="Path 1504" d="M166.162,11.979a.474.474,0,0,0,.62,0c3.861-3.346,6.249-5.04,6.249-7.671A3.624,3.624,0,0,0,169.487.5a3.5,3.5,0,0,0-3.072,1.96,3.441,3.441,0,0,0-6.447.657.473.473,0,1,0,.908.266,2.568,2.568,0,0,1,2.468-1.937,2.96,2.96,0,0,1,2.615,2.315.473.473,0,0,0,.912,0c.006-.023.664-2.315,2.616-2.315a2.678,2.678,0,0,1,2.6,2.861c0,2.105-2.058,3.623-5.613,6.689a37.959,37.959,0,0,1-4.865-4.451.473.473,0,1,0-.752.574C161.957,8.563,163.818,9.946,166.162,11.979Zm0,0" transform="translate(-152.379 -0.5)" fill="#d53568"/>
      <path id="Path_1505" data-name="Path 1505" d="M159.473,88.6a.473.473,0,1,0,.473.473A.473.473,0,0,0,159.473,88.6Zm0,0" transform="translate(-151.476 -84.429)" fill="#d53568"/>
    </g>
  </g>
</svg>
