<svg xmlns="http://www.w3.org/2000/svg" width="36" height="36" viewBox="0 0 36 36">
  <g id="voorstelling" transform="translate(-1048.75 -3384)">
    <rect id="Rectangle_30" data-name="Rectangle 30" width="36" height="36" rx="5" transform="translate(1048.75 3384)" fill="#317ff6" opacity="0.196"/>
    <g id="_001-lamp" data-name="001-lamp" transform="translate(1052.656 3387.906)">
      <g id="Group_2" data-name="Group 2" transform="translate(5.872 5.872)">
        <path id="Path_1462" data-name="Path 1462" d="M14.983,27.315H11.46A1.907,1.907,0,0,1,9.7,25.2V22.735a4.078,4.078,0,0,0-1.527-3.054A8.119,8.119,0,0,1,5,13.1,8.358,8.358,0,0,1,13.1,5a8.254,8.254,0,0,1,5.872,2.349,8.361,8.361,0,0,1,2.466,5.872,7.9,7.9,0,0,1-3.054,6.342,4.288,4.288,0,0,0-1.644,3.289v2.7A1.806,1.806,0,0,1,14.983,27.315ZM13.221,6.174A7.2,7.2,0,0,0,6.174,13.1a6.9,6.9,0,0,0,2.7,5.638,5.118,5.118,0,0,1,2,3.993V25.2c0,.235,0,.94.587.94h3.523a.555.555,0,0,0,.587-.587v-2.7a5.707,5.707,0,0,1,2.114-4.228,6.849,6.849,0,0,0,2.584-5.4,7.021,7.021,0,0,0-2.114-5.05A6.923,6.923,0,0,0,13.221,6.174Z" transform="translate(-5 -5)" fill="#307ff7"/>
      </g>
      <g id="Group_3" data-name="Group 3" transform="translate(10.57 23.49)">
        <path id="Path_1463" data-name="Path 1463" d="M15.46,21.174H9.587a.587.587,0,0,1,0-1.174H15.46a.587.587,0,0,1,0,1.174Z" transform="translate(-9 -20)" fill="#307ff7"/>
      </g>
      <g id="Group_4" data-name="Group 4" transform="translate(13.507)">
        <path id="Path_1464" data-name="Path 1464" d="M12.087,3.523a.555.555,0,0,1-.587-.587V.587a.587.587,0,1,1,1.174,0V2.936A.555.555,0,0,1,12.087,3.523Z" transform="translate(-11.5)" fill="#307ff7"/>
      </g>
      <g id="Group_5" data-name="Group 5" transform="translate(21.317 4.052)">
        <path id="Path_1465" data-name="Path 1465" d="M18.8,6.21a.706.706,0,0,1-.47-.117.568.568,0,0,1,0-.822L19.97,3.626a.581.581,0,0,1,.822.822L19.148,6.093A1.183,1.183,0,0,1,18.8,6.21Z" transform="translate(-18.15 -3.45)" fill="#307ff7"/>
      </g>
      <g id="Group_6" data-name="Group 6" transform="translate(24.664 13.507)">
        <path id="Path_1466" data-name="Path 1466" d="M23.936,12.674H21.587a.587.587,0,0,1,0-1.174h2.349a.587.587,0,1,1,0,1.174Z" transform="translate(-21 -11.5)" fill="#307ff7"/>
      </g>
      <g id="Group_7" data-name="Group 7" transform="translate(21.317 21.434)">
        <path id="Path_1467" data-name="Path 1467" d="M20.44,21.01a.706.706,0,0,1-.47-.117l-1.644-1.644a.581.581,0,0,1,.822-.822l1.644,1.644a.568.568,0,0,1,0,.822c0,.117-.117.117-.352.117Z" transform="translate(-18.15 -18.25)" fill="#307ff7"/>
      </g>
      <g id="Group_8" data-name="Group 8" transform="translate(3.935 21.434)">
        <path id="Path_1468" data-name="Path 1468" d="M4,21.01a.706.706,0,0,1-.47-.117.568.568,0,0,1,0-.822L5.17,18.426a.581.581,0,0,1,.822.822L4.348,20.893A.431.431,0,0,1,4,21.01Z" transform="translate(-3.35 -18.25)" fill="#307ff7"/>
      </g>
      <g id="Group_9" data-name="Group 9" transform="translate(0 13.507)">
        <path id="Path_1469" data-name="Path 1469" d="M2.936,12.674H.587a.587.587,0,1,1,0-1.174H2.936a.587.587,0,1,1,0,1.174Z" transform="translate(0 -11.5)" fill="#307ff7"/>
      </g>
      <g id="Group_10" data-name="Group 10" transform="translate(3.935 3.935)">
        <path id="Path_1470" data-name="Path 1470" d="M5.64,6.227a.706.706,0,0,1-.47-.117L3.526,4.348a.581.581,0,1,1,.822-.822L5.993,5.17a.568.568,0,0,1,0,.822C5.875,6.11,5.758,6.227,5.64,6.227Z" transform="translate(-3.35 -3.35)" fill="#307ff7"/>
      </g>
      <g id="Group_11" data-name="Group 11" transform="translate(13.507 8.809)">
        <path id="Path_1471" data-name="Path 1471" d="M16.785,13.372a.555.555,0,0,1-.587-.587,4.161,4.161,0,0,0-4.111-4.111.587.587,0,0,1,0-1.174,5.263,5.263,0,0,1,5.285,5.285A.555.555,0,0,1,16.785,13.372Z" transform="translate(-11.5 -7.5)" fill="#307ff7"/>
      </g>
    </g>
  </g>
</svg>
