<svg xmlns="http://www.w3.org/2000/svg" viewBox="0 0 476.57 476.52">
  <defs>
    <style>
      .cls-1 {
        fill: #bfbfbf;
      }

      .cls-2 {
        fill: #ff581a;
      }

      .cls-3 {
        fill: #61bb8d;
      }

      .cls-4 {
        fill: #317ff6;
      }

      .cls-5 {
        fill: #ffc727;
      }

      .cls-6 {
        fill: #d53668;
      }

      .cls-7 {
        fill: #fff;
      }
    </style>
  </defs>
  <g id="Layer_2" data-name="Layer 2">
    <g id="Layer_1-2" data-name="Layer 1">
      <g id="werkzaamBinnen">
        <g>
          <path d="M238.31,238.26,213.41,1.31C220.73.53,230.94,0,238.31,0Z"/>
          <path class="cls-1" d="M238.31,238.26,192.85,4.38c7.23-1.41,13.23-2.3,20.56-3.07Z"/>
          <path class="cls-2" d="M238.31,238.26,152.93,15.83A223.11,223.11,0,0,1,192.85,4.38Z"/>
          <path class="cls-3" d="M238.31,238.26,98.26,45.5a223,223,0,0,1,54.67-29.67Z"/>
          <path class="cls-4" d="M238.31,238.26,13,160.69C29.91,111.67,56.32,76,98.26,45.5Z"/>
          <path class="cls-5" d="M238.31,238.26,188.77,471.32C60.06,444-22.1,317.44,5.26,188.72a249.67,249.67,0,0,1,7.77-28Z"/>
          <path class="cls-6" d="M238.31,238.26V0C369.9,0,476.57,106.67,476.57,238.26S369.9,476.52,238.31,476.52a215.5,215.5,0,0,1-49.54-5.2Z"/>
        </g>
        <circle class="cls-7" cx="238.03" cy="237.17" r="167.42"/>
      </g>
    </g>
  </g>
</svg>
