<svg xmlns="http://www.w3.org/2000/svg" viewBox="0 0 476.57 476.56">
  <defs>
    <style>
      .cls-1 {
        fill: #61bb8d;
      }

      .cls-2 {
        fill: #317ff6;
      }

      .cls-3 {
        fill: #ffc727;
      }

      .cls-4 {
        fill: #d53668;
      }

      .cls-5 {
        fill: #fff;
      }
    </style>
  </defs>
  <g id="Layer_2" data-name="Layer 2">
    <g id="Layer_1-2" data-name="Layer 1">
      <g id="werkzaamFase">
        <g>
          <path class="cls-1" d="M238.31,238.26,168.64,10.41A228.91,228.91,0,0,1,238.31,0Z"/>
          <path class="cls-2" d="M238.31,238.26,29.92,353.77C-33.88,238.68,7.7,93.67,122.79,29.87a241.58,241.58,0,0,1,45.85-19.46Z"/>
          <path class="cls-3" d="M238.31,238.26,444.65,357.39c-65.8,114-211.52,153-325.48,87.21C80.09,422,51.8,393.25,29.92,353.77Z"/>
          <path class="cls-4" d="M238.31,238.26V0C369.89,0,476.57,106.67,476.57,238.26c0,45.14-9.36,80.05-31.92,119.13Z"/>
        </g>
        <circle class="cls-5" cx="238.02" cy="237.17" r="167.42"/>
      </g>
    </g>
  </g>
</svg>
