<svg xmlns="http://www.w3.org/2000/svg" viewBox="0 0 477.21 476.52">
  <defs>
    <style>
      .cls-1 {
        fill: #bfbfbf;
      }

      .cls-2 {
        fill: #ff581a;
      }

      .cls-3 {
        fill: #61bb8d;
      }

      .cls-4 {
        fill: #317ff6;
      }

      .cls-5 {
        fill: #ffc727;
      }

      .cls-6 {
        fill: #d53668;
      }

      .cls-7 {
        fill: #fff;
      }
    </style>
  </defs>
  <g id="Layer_2" data-name="Layer 2">
    <g id="Layer_1-2" data-name="Layer 1">
      <g id="werkzaamAls">
        <g>
          <path d="M239,238.26,214.05,1.31A246.44,246.44,0,0,1,239,0Z"/>
          <path class="cls-1" d="M239,238.26l-49.54-233a243.77,243.77,0,0,1,24.64-3.9Z"/>
          <path class="cls-2" d="M239,238.26,169.29,10.41a205.51,205.51,0,0,1,20.12-5.2Z"/>
          <path class="cls-3" d="M239,238.26,145.85,18.94a246.61,246.61,0,0,1,23.44-8.53Z"/>
          <path class="cls-4" d="M239,238.26,19.63,145.17C44.93,85.57,86.26,44.24,145.85,18.94Z"/>
          <path class="cls-5" d="M239,238.26,82.64,418.08C3.19,349-21.5,242.07,19.63,145.17Z"/>
          <path class="cls-6" d="M239,238.26V0C370.54,0,477.21,106.67,477.21,238.26S370.54,476.52,239,476.52c-60.66,0-110.53-18.64-156.31-58.44Z"/>
        </g>
        <circle class="cls-7" cx="238.67" cy="237.17" r="167.42"/>
      </g>
    </g>
  </g>
</svg>
