<svg xmlns="http://www.w3.org/2000/svg" width="200.862" height="75.448" viewBox="0 0 200.862 75.448">
  <g id="zuyd_logo" transform="translate(-57.505 -402.99)">
    <path id="Subtraction_8" data-name="Subtraction 8" d="M-7388.7-653.9c-1.09,0-2.188,0-3.251-.005h-.057c-1.047,0-2.13,0-3.194,0-.786,0-.793-.009-.793-.8q0-3.831,0-7.663v-22.837c.008-.807.008-.807.791-.807h.614l1.446,0h.032q.942,0,1.885,0c.808,0,1.479,0,2.111-.009.493,0,.97-.007,1.42-.007,2.071,0,3.9.05,5.589.152a18.522,18.522,0,0,1,7.972,2.06,12.461,12.461,0,0,1,6.063,7.794,20.987,20.987,0,0,1,.635,8.759,18.637,18.637,0,0,1-1.347,5.174,13.035,13.035,0,0,1-3.072,4.387,13.782,13.782,0,0,1-6.959,3.378,27.731,27.731,0,0,1-5.21.4C-7385.4-653.912-7386.883-653.9-7388.7-653.9Zm1.351-25.285c-.581,0-.581.072-.581.757q0,2.873,0,5.745v7.183q0,2.155,0,4.308c0,.085,0,.162,0,.23,0,.289,0,.434.07.51s.182.075.38.075l.209,0,.182,0c1-.015,2-.05,2.979-.084l.252-.009a14.387,14.387,0,0,0,3.035-.444,6.561,6.561,0,0,0,5-4.919,14.811,14.811,0,0,0,.082-7.824,6.729,6.729,0,0,0-5.678-5.344,17.207,17.207,0,0,0-2.892-.2c-.405,0-.814.007-1.209.013h-.029l-.182,0c-.362.005-.735.01-1.1.01l-.349,0Z" transform="translate(7625.112 1131.731)" fill="#e43238" stroke="rgba(0,0,0,0)" stroke-miterlimit="10" stroke-width="1"/>
    <path id="Path_2111" data-name="Path 2111" d="M440.941,413.939q0-5.081,0-10.164c0-.858-.069-.77.8-.771q3.275-.005,6.55,0c.684,0,.7.006.695.651-.008,6.571.007,13.141-.048,19.711a12.908,12.908,0,0,1-1.575,6.274,10.408,10.408,0,0,1-3.9,3.946,16.165,16.165,0,0,1-9.757,2.12,15.128,15.128,0,0,1-7.349-2.456,10.437,10.437,0,0,1-4.545-7.6,27.556,27.556,0,0,1-.208-3.914q0-8.855,0-17.71a2.678,2.678,0,0,0,0-.384c-.074-.505.135-.657.64-.651,1.952.026,3.9.011,5.857.011.385,0,.771.013,1.156,0,.319-.014.485.091.459.434-.015.2,0,.41,0,.616q0,9.664,0,19.327a15.164,15.164,0,0,0,.139,2.07c.253,1.84,1.17,2.815,3.122,3.375a8.712,8.712,0,0,0,4.494.1,4,4,0,0,0,3.2-3.147,11.466,11.466,0,0,0,.274-2.744Q440.944,418.481,440.941,413.939Z" transform="translate(-192.492 0)" fill="#e43238"/>
    <path id="Path_2112" data-name="Path 2112" d="M357.891,409.359a2.043,2.043,0,0,0-.748-.05q-7.247,0-14.494,0c-.792,0-.795,0-.8-.792,0-1.618.011-3.236-.011-4.853-.006-.46.062-.676.614-.674q12.373.027,24.746,0c.533,0,.638.181.631.663-.024,1.669-.019,3.338,0,5.007a1.409,1.409,0,0,1-.391,1.033q-4.79,5.314-9.567,10.641c-2.464,2.745-4.925,5.494-7.46,8.323a4.274,4.274,0,0,0,1.182.077q7.517,0,15.033,0c.206,0,.412.014.616,0,.323-.025.455.088.453.433-.012,1.823-.008,3.646,0,5.469,0,.286-.087.436-.392.42-.179-.009-.36,0-.539,0H341.331c-.18,0-.36-.009-.54,0-.292.015-.409-.109-.408-.406q.011-2.658,0-5.315a.965.965,0,0,1,.338-.663q4.986-5.552,9.97-11.105,3.366-3.75,6.724-7.507A1.4,1.4,0,0,0,357.891,409.359Z" transform="translate(-149.499)" fill="#e43238"/>
    <path id="Path_2113" data-name="Path 2113" d="M367.455,493.949c-.721,1-1.469,2.041-2.214,3.079q-4.728,6.583-9.463,13.162a1.82,1.82,0,0,0-.313,1.151q.008,6.816,0,13.631c0,.882,0,.885-.872.885q-3.16,0-6.32,0c-.761,0-.768,0-.768-.758,0-4.493-.008-8.985.007-13.477a2.193,2.193,0,0,0-.43-1.348q-5.607-7.938-11.187-15.894c-.112-.159-.287-.3-.258-.554.169-.145.383-.078.574-.079,2.595-.007,5.19.008,7.784-.016a1.179,1.179,0,0,1,1.158.668c1.535,2.513,3.117,5,4.685,7.493.559.888,1.123,1.772,1.706,2.692.337-.207.378-.591.546-.879,1.33-2.28,2.827-4.454,4.228-6.689.6-.955,1.224-1.893,1.819-2.851a.779.779,0,0,1,.742-.426c2.749.011,5.5.005,8.246.006C367.247,493.747,367.392,493.71,367.455,493.949Z" transform="translate(-146.987 -48.041)" fill="#e43238"/>
    <path id="Subtraction_13" data-name="Subtraction 13" d="M-7389.183-671.925h0a6.692,6.692,0,0,1-4.982-1.869,6.612,6.612,0,0,1-1.774-4.16,7.19,7.19,0,0,1,1.862-6.109,6.211,6.211,0,0,1,2.983-1.658,9.689,9.689,0,0,1,2.427-.316,9.448,9.448,0,0,1,1.995.216,5.639,5.639,0,0,1,4.252,3.313,8.343,8.343,0,0,1-.033,7.066,5.871,5.871,0,0,1-4.3,3.285A10.116,10.116,0,0,1-7389.183-671.925Zm.434-11.99a6.037,6.037,0,0,0-1.386.171,3.893,3.893,0,0,0-3.025,3.306,7.569,7.569,0,0,0,0,2.829,3.957,3.957,0,0,0,3.7,3.532c.241.024.46.035.672.035a3.979,3.979,0,0,0,3.97-2.521,6.162,6.162,0,0,0,.433-2.408c0-.09-.007-.181-.01-.27v-.025a5.072,5.072,0,0,0-.036-.55,4.3,4.3,0,0,0-2.11-3.553A4.574,4.574,0,0,0-7388.749-683.915Z" transform="translate(7454 1149.845)" fill="#181617" stroke="rgba(0,0,0,0)" stroke-miterlimit="10" stroke-width="1"/>
    <path id="Subtraction_14" data-name="Subtraction 14" d="M-7355.491-505.208a4.171,4.171,0,0,1-3.961-2.585,7.127,7.127,0,0,1,.076-5.619c.742-1.707,2.192-2.623,4.432-2.8.238-.019.448-.028.643-.028a4.911,4.911,0,0,1,1.494.216v-1.248c0-.676,0-1.324,0-1.975,0-.6,0-.711.44-.711.073,0,.159,0,.265.007h.071a4.377,4.377,0,0,0,.531-.044h.009a4.505,4.505,0,0,1,.516-.042.8.8,0,0,1,.637.226c.238.264.187.721.138,1.163v.009a5.038,5.038,0,0,0-.041.542c.005,3.028,0,6.092,0,9.056q0,1.439,0,2.878c0,.078,0,.148,0,.21,0,.275,0,.413-.064.482s-.207.069-.482.07h-1.338c-.628-.006-.628-.006-.75-.642a.326.326,0,0,0-.075-.009.523.523,0,0,0-.35.187,1,1,0,0,1-.159.129A3.942,3.942,0,0,1-7355.491-505.208Zm1.5-8.95-.367,0h-.016c-.125,0-.252.014-.375.027l-.085.008a2.474,2.474,0,0,0-2.253,1.794,5.2,5.2,0,0,0-.2,2.5c.25,1.636,1.039,2.431,2.414,2.431a4.011,4.011,0,0,0,.414-.022,2.612,2.612,0,0,0,.717-.214c.124-.05.248-.1.373-.14a.734.734,0,0,0,.576-.85c-.031-.537-.024-1.086-.018-1.616v-.094c0-.2,0-.4,0-.6q0-.845,0-1.69C-7352.807-514.041-7352.807-514.158-7354-514.158Z" transform="translate(7453.877 961.733)" fill="#181617" stroke="rgba(0,0,0,0)" stroke-miterlimit="10" stroke-width="1"/>
    <path id="Subtraction_11" data-name="Subtraction 11" d="M-7391.429-671.295a4.877,4.877,0,0,1-.49-.025,4.071,4.071,0,0,1-3.735-3.052,7.38,7.38,0,0,1,.156-4.9,4.66,4.66,0,0,1,4.143-2.964,8.215,8.215,0,0,1,.971-.061,5.6,5.6,0,0,1,1.1.1.993.993,0,0,0,.19.022.272.272,0,0,0,.2-.067c.062-.064.086-.174.083-.382-.009-.448-.008-.89-.006-1.38v-.047c0-.491,0-1-.01-1.5a.513.513,0,0,1,.1-.388.438.438,0,0,1,.329-.1h.055c.3.014.583.02.851.02s.523-.007.766-.02l.067,0a.416.416,0,0,1,.323.105.5.5,0,0,1,.078.392,3.168,3.168,0,0,0-.006.372v.042c0,.041,0,.083,0,.124v6.387q0,3.194,0,6.387c0,.065,0,.125,0,.179,0,.3,0,.453-.07.524-.056.056-.153.065-.351.065h-.376l-.308,0h-.617c-.769,0-.769,0-.937-.767A3.69,3.69,0,0,1-7391.429-671.295Zm1.065-8.961a2.692,2.692,0,0,0-2.606,1.5,5.013,5.013,0,0,0-.024,3.963,2.039,2.039,0,0,0,1.828,1.318c.069.006.142.009.238.009a4.182,4.182,0,0,0,1.828-.509c.263-.129.282-.322.28-.562,0-.532,0-1.071,0-1.6v-.94h.009v-2.077c0-.9,0-.9-.9-1.047A3.97,3.97,0,0,0-7390.364-680.255Z" transform="translate(7482.213 1149.164)" fill="#181617" stroke="rgba(0,0,0,0)" stroke-miterlimit="10" stroke-width="1"/>
    <path id="Path_2117" data-name="Path 2117" d="M66.743,489.559c-1.907,0-3.678-.014-5.45.009-.448.006-.671-.076-.612-.582a5.457,5.457,0,0,0,0-1.153c-.042-.435.16-.505.535-.5q4.121.016,8.243,0c.41,0,.568.089.594.545a3.167,3.167,0,0,1-.644,2.131c-1.9,2.67-3.755,5.376-5.624,8.07-.13.187-.243.387-.4.634a1.191,1.191,0,0,0,.592.062c1.951,0,3.9.018,5.855-.009.481-.007.648.129.586.6-.069.524.231,1.226-.144,1.534-.312.256-.981.086-1.492.087-2.671,0-5.341-.011-8.012.013-.478,0-.581-.13-.606-.6a3.582,3.582,0,0,1,.73-2.415c1.872-2.6,3.674-5.246,5.5-7.876C66.5,489.966,66.586,489.813,66.743,489.559Z" transform="translate(-1.143 -44.651)" fill="#181617"/>
    <path id="Path_2118" data-name="Path 2118" d="M258.4,539.1c.921-1.155,1.887-2.277,2.745-3.477a1.845,1.845,0,0,1,1.9-.932,11.448,11.448,0,0,0,1.514.012c.1.267-.1.36-.207.486q-1.691,2.041-3.4,4.07c-.184.218-.292.369-.055.641.739.851,1.413,1.759,2.228,2.543a3.97,3.97,0,0,0,1.486.931c.338.113.447.3.357.626-.033.123-.058.249-.081.375-.217,1.2-.215,1.193-1.38.971a4.244,4.244,0,0,1-2.559-1.581c-.788-.977-1.544-1.98-2.316-2.97a.454.454,0,0,0-.384-.245v1.56c0,.9-.013,1.8.005,2.693.007.353-.084.52-.473.49-.662-.05-1.5.26-1.943-.11-.46-.387-.153-1.25-.156-1.9-.016-3.924-.008-7.849-.008-11.773,0-.787,0-.8.791-.786.56.01,1.28-.24,1.64.1.4.374.131,1.113.136,1.69.019,2.176.008,4.352.008,6.529Z" transform="translate(-104.608 -67.584)" fill="#181617"/>
    <path id="Subtraction_9" data-name="Subtraction 9" d="M-7390.922-674.973h0a6.015,6.015,0,0,1-2.376-.475,4.268,4.268,0,0,1-2.363-2.773,6.967,6.967,0,0,1,.382-5.225,4.182,4.182,0,0,1,2.242-2.1,6.549,6.549,0,0,1,2.434-.489,6.358,6.358,0,0,1,2.563.557,3.524,3.524,0,0,1,1.786,1.724,6.907,6.907,0,0,1,.2,5.947C-7386.844-675.937-7388.437-675.009-7390.922-674.973Zm.2-8.99a2.3,2.3,0,0,0-2.361,1.71,5.956,5.956,0,0,0-.282,1.741c.007.094.012.191.015.274v.02a4.934,4.934,0,0,0,.047.549,7.087,7.087,0,0,0,.237,1.047,2.32,2.32,0,0,0,2.345,1.591h.031a2.2,2.2,0,0,0,2.279-1.689,6.326,6.326,0,0,0,0-3.49,2.228,2.228,0,0,0-2.235-1.752Z" transform="translate(7523.396 1152.893)" fill="#181617" stroke="rgba(0,0,0,0)" stroke-miterlimit="10" stroke-width="1"/>
    <path id="Subtraction_10" data-name="Subtraction 10" d="M-7390.463-674.981a10.454,10.454,0,0,1-2.106-.211,3.742,3.742,0,0,1-3.055-2.708,8.145,8.145,0,0,1,.278-5.643,3.9,3.9,0,0,1,2.8-2.3,6.772,6.772,0,0,1,1.6-.2,6.125,6.125,0,0,1,1.679.234,3.5,3.5,0,0,1,2.434,2.459,10.833,10.833,0,0,1,.391,2.862l.008.171a.514.514,0,0,1-.094.393c-.077.08-.2.113-.429.113h-.013c-.872-.007-1.829-.01-3.012-.01l-1.8,0h-.891c-.344,0-.542.006-.624.1s-.054.291,0,.626a2.169,2.169,0,0,0,1.791,1.86,5.3,5.3,0,0,0,1.247.14,12.982,12.982,0,0,0,2.3-.277l.341-.062c.08-.014.159-.035.235-.056l.131-.034a2.442,2.442,0,0,1,.259.828l.012.065c.035.19.072.349.1.477.065.279.1.433.033.54-.089.139-.363.2-.963.324l-.022,0A12.762,12.762,0,0,1-7390.463-674.981Zm-.62-9.18a2.083,2.083,0,0,0-1.881,1.253,3.422,3.422,0,0,0-.3,1.39h3.393c.392,0,.6-.006.689-.113s.059-.314-.008-.7a1.963,1.963,0,0,0-1.522-1.8A2.494,2.494,0,0,0-7391.083-684.161Z" transform="translate(7535.383 1152.919)" fill="#181617" stroke="rgba(0,0,0,0)" stroke-miterlimit="10" stroke-width="1"/>
    <path id="Subtraction_12" data-name="Subtraction 12" d="M-7390.594-675.006a9.409,9.409,0,0,1-1.973-.2,3.822,3.822,0,0,1-3.152-2.985,8.693,8.693,0,0,1,.119-4.778,4.059,4.059,0,0,1,3.165-2.916,6.522,6.522,0,0,1,1.419-.156,7.257,7.257,0,0,1,1.256.113,3.594,3.594,0,0,1,3,2.9,11.626,11.626,0,0,1,.278,2.747.484.484,0,0,1-.095.358.528.528,0,0,1-.386.1h-.015c-.8-.006-1.651-.009-2.694-.009l-1.858,0-1.145,0c-.386,0-.579,0-.659.095s-.045.278.021.646l0,.019a2.134,2.134,0,0,0,1.741,1.815,5.219,5.219,0,0,0,1.3.153,12.9,12.9,0,0,0,2.324-.286l.338-.062c.033-.006.064-.015.1-.024a.684.684,0,0,1,.186-.033.4.4,0,0,1,.123.019c.032.131.062.264.093.4l.009.038c.072.316.155.675.253,1.02s-.045.459-.321.562a6.347,6.347,0,0,1-1.43.3l-.068.009A14.45,14.45,0,0,1-7390.594-675.006Zm-.545-9.156a2.352,2.352,0,0,0-2.146,2.369.251.251,0,0,0,.046.2c.055.061.149.065.266.065h.035c.563,0,1.127,0,1.689,0h1.152c.524,0,.787,0,.892-.13s.052-.4-.06-.937a1.806,1.806,0,0,0-1.865-1.565Z" transform="translate(7494.165 1152.931)" fill="#181617" stroke="rgba(0,0,0,0)" stroke-miterlimit="10" stroke-width="1"/>
    <path id="Path_2122" data-name="Path 2122" d="M120.553,493.958a30.457,30.457,0,0,1-.977,2.959c-1.248,3.625-2.524,7.24-3.79,10.858a4.073,4.073,0,0,0-.2.578c-.067.357-.279.429-.607.418-.64-.022-1.281-.007-2.025-.007l1.4-4.181a.926.926,0,0,0-.593-.09c-.288.021-.4-.121-.484-.375q-1.648-4.946-3.31-9.887a1.557,1.557,0,0,1-.031-.276c.81,0,1.6.012,2.4,0,.4-.008.426.269.506.544q1.063,3.647,2.136,7.291a.686.686,0,0,0,.222.43c.51-1.53,1.013-3.048,1.523-4.563.367-1.09.751-2.174,1.114-3.266.088-.263.176-.449.514-.438C119.06,493.973,119.776,493.958,120.553,493.958Z" transform="translate(-27.493 -48.157)" fill="#181617"/>
    <path id="Path_2123" data-name="Path 2123" d="M93.182,503.492c-.6.263-1.077.65-1.65.869a5.427,5.427,0,0,1-2.721.311,2.565,2.565,0,0,1-2.409-2.466,10.927,10.927,0,0,1-.1-1.3c-.013-2.131,0-4.261-.019-6.391,0-.428.107-.6.557-.567a11.357,11.357,0,0,0,1.54,0c.411-.027.517.122.513.518-.018,1.925-.008,3.85-.008,5.775a5.162,5.162,0,0,0,.078,1.072,1.258,1.258,0,0,0,1.321,1.14,5.372,5.372,0,0,0,2.452-.544.755.755,0,0,0,.493-.834c-.021-2.1-.013-4.209-.008-6.314,0-.9-.106-.8.837-.806.437,0,.874.013,1.31,0,.309-.013.457.053.456.414q-.019,4.851,0,9.7c0,.344-.119.44-.445.428a15.2,15.2,0,0,0-1.618,0c-.458.03-.593-.161-.544-.578A2.362,2.362,0,0,0,93.182,503.492Z" transform="translate(-14.97 -48.151)" fill="#181617"/>
    <path id="Path_2124" data-name="Path 2124" d="M95.858,540.061c.589-.3,1.018-.62,1.507-.844a5.259,5.259,0,0,1,3.308-.356,2.54,2.54,0,0,1,2.074,2.368,10.659,10.659,0,0,1,.105,1.379c.011,2.1-.006,4.208.013,6.312,0,.465-.068.736-.621.665-.628-.081-1.44.269-1.847-.147-.369-.378-.1-1.173-.105-1.783-.015-1.411,0-2.822-.006-4.233a9.817,9.817,0,0,0-.032-1A1.362,1.362,0,0,0,98.7,541a5.432,5.432,0,0,0-2.505.65c-.359.181-.338.465-.338.776q0,3,0,6c0,1.15,0,1.15-1.188,1.15-.18,0-.36,0-.539,0-.9-.012-.836.138-.837-.8q0-3.733,0-7.467,0-.77,0-1.54c0-.879-.02-.77.806-.773.385,0,.773.028,1.155-.008.462-.043.686.1.609.589A3.819,3.819,0,0,0,95.858,540.061Z" transform="translate(-18.681 -71.872)" fill="#181617"/>
    <path id="Path_2125" data-name="Path 2125" d="M187.359,547.729h4.3c.205,0,.411.007.616,0,.227-.008.326.093.322.319-.009.538.165,1.171-.06,1.591-.272.505-.968.19-1.47.2-2.078.032-4.158.014-6.238.013-.817,0-.715.091-.783-.719a2.581,2.581,0,0,1,.713-2c1.474-1.739,2.9-3.521,4.337-5.288.09-.111.264-.186.174-.452h-3.717c-.257,0-.514-.009-.77,0s-.388-.089-.363-.357a.59.59,0,0,0,0-.077c-.112-1.689-.112-1.689,1.575-1.689,1.977,0,3.954.015,5.93-.011.48-.006.584.146.615.608a2.751,2.751,0,0,1-.71,2.09c-1.481,1.766-2.9,3.584-4.345,5.38A.429.429,0,0,0,187.359,547.729Z" transform="translate(-66.724 -72.142)" fill="#191717"/>
    <path id="Path_2126" data-name="Path 2126" d="M170.67,540.28c.482-.34.777-.7,1.174-.937a3.656,3.656,0,0,1,2.6-.4c.319.051.46.19.362.516-.03.1-.054.2-.079.3-.112.444.022,1.022-.3,1.314-.308.278-.827-.065-1.259-.014a4.213,4.213,0,0,0-1.271.283,1.786,1.786,0,0,0-1.252,1.922c.1,1.893.032,3.8.029,5.7,0,.684-.007.709-.645.684s-1.439.284-1.846-.137c-.37-.382-.1-1.173-.107-1.783-.011-2.669.007-5.337-.014-8.006,0-.482.093-.712.628-.66a7.821,7.821,0,0,0,1.385,0c.466-.039.676.1.6.591A4.994,4.994,0,0,0,170.67,540.28Z" transform="translate(-58.226 -71.938)" fill="#191717"/>
  </g>
</svg>
