<svg xmlns="http://www.w3.org/2000/svg" viewBox="0 0 260.82 260.76">
  <defs>
    <style>
      .cls-1 {
        fill: #d53668;
      }

      .cls-2 {
        fill: #dc628a;
      }

      .cls-3 {
        fill: #e38fac;
      }

      .cls-4 {
        fill: #eabbce;
      }

      .cls-5 {
        fill: #fff;
      }
    </style>
  </defs>
  <g id="Layer_2" data-name="Layer 2">
    <g id="Layer_1-2" data-name="Layer 1">
      <g id="laesie2">
        <g>
          <path class="cls-1" d="M130.41,130.38,5.73,168.49A130.37,130.37,0,0,1,92.29,5.7,128.57,128.57,0,0,1,130.41,0Z"/>
          <path class="cls-2" d="M130.41,130.38,255.09,92.26a130.37,130.37,0,0,1-86.56,162.79c-68.72,21-141.79-17.84-162.8-86.56Z"/>
          <path class="cls-3" d="M130.41,130.38l29.33-127c46.79,10.81,81.31,43,95.35,88.92Z"/>
          <path class="cls-4" d="M130.41,130.38,144,.71a130.2,130.2,0,0,1,15.7,2.63Z"/>
          <path d="M130.41,130.38V0A110.83,110.83,0,0,1,144,.71Z"/>
        </g>
        <circle class="cls-5" cx="129.75" cy="132.15" r="87.6"/>
      </g>
    </g>
  </g>
</svg>
