<svg xmlns="http://www.w3.org/2000/svg" viewBox="0 0 260.8 260.78">
  <defs>
    <style>
      .cls-1 {
        fill: #317ff6;
      }

      .cls-2 {
        fill: #609bf4;
      }

      .cls-3 {
        fill: #90b7f1;
      }

      .cls-4 {
        fill: #bfd3ef;
      }

      .cls-5 {
        fill: #fff;
      }
    </style>
  </defs>
  <g id="Layer_2" data-name="Layer 2">
    <g id="Layer_1-2" data-name="Layer 1">
      <g id="motorisch4">
        <g>
          <path class="cls-1" d="M130.39,130.38.2,123.55A130.49,130.49,0,0,1,130.39,0Z"/>
          <path class="cls-2" d="M130.39,130.38,255.07,92.26A130.37,130.37,0,1,1,5.72,168.49,125.7,125.7,0,0,1,.2,123.55Z"/>
          <path class="cls-3" d="M130.39,130.38l29.33-127c46.73,10.79,81.33,43.06,95.35,88.92Z"/>
          <path class="cls-4" d="M130.39,130.38,144,.71a130.2,130.2,0,0,1,15.7,2.63Z"/>
          <path d="M130.39,130.38V0A110.83,110.83,0,0,1,144,.71Z"/>
        </g>
        <circle class="cls-5" cx="129.74" cy="132.15" r="87.6"/>
      </g>
    </g>
  </g>
</svg>
