<svg xmlns="http://www.w3.org/2000/svg" viewBox="0 0 260.76 260.75">
  <defs>
    <style>
      .cls-1 {
        fill: #d53668;
      }

      .cls-2 {
        fill: #ffc727;
      }

      .cls-3 {
        fill: #61bb8d;
      }

      .cls-4 {
        fill: #317ff6;
      }

      .cls-5 {
        fill: #fff;
      }
    </style>
  </defs>
  <g id="Layer_2" data-name="Layer 2">
    <g id="Layer_1-2" data-name="Layer 1">
      <g id="_1" data-name="1">
        <g>
          <path class="cls-1" d="M130.38,130.38.32,139.47A130.38,130.38,0,0,1,121.29.32c2.44-.17,6.64-.32,9.09-.32Z"/>
          <path class="cls-2" d="M130.38,130.38l83.8-99.88A130.37,130.37,0,0,1,46.58,230.25C18.06,206.32,2.92,176.6.32,139.47Z"/>
          <path class="cls-3" d="M130.38,130.38,201.39,21a127.27,127.27,0,0,1,12.79,9.47Z"/>
          <path class="cls-4" d="M130.38,130.38,144,.71A126.43,126.43,0,0,1,201.39,21Z"/>
          <path d="M130.38,130.38V0A110.83,110.83,0,0,1,144,.71Z"/>
        </g>
        <circle class="cls-5" cx="129.73" cy="132.15" r="87.6"/>
      </g>
    </g>
  </g>
</svg>
